<svg width="221" height="62" viewBox="0 0 221 62" fill="none" xmlns="http://www.w3.org/2000/svg">
	<g clip-path="url(#clip0_156_38)">
		<path
			d="M184.798 56.286C184.173 61.4435 184.173 61.4419 179.383 61.4324C177.156 61.428 174.928 61.4317 172.461 61.4317C172.746 59.5683 173 57.9106 173.273 56.1245C175.576 56.0273 175.971 54.42 176.265 52.5245C176.836 48.8417 177.642 45.1959 178.227 41.515C178.339 40.8136 178.13 39.7058 177.648 39.3249C175.626 37.7256 177.432 36.1086 177.518 34.5571C177.6 33.0885 179 33.7552 179.803 33.7388C183.392 33.6656 186.998 33.9102 190.57 33.6523C194.312 33.3823 196.537 36.9182 196.291 40.3352C196.088 43.1539 194.862 45.4103 192.664 47.2864C194.814 49.1625 194.182 51.3938 193.736 53.6068C193.492 54.8215 193.243 56.0638 195.041 56.258C194.675 58.0506 194.345 59.663 193.994 61.383C192.008 61.383 190.128 61.4601 188.257 61.3588C186.737 61.2766 185.712 59.9265 185.908 58.1979C186.207 55.5573 186.677 52.9367 187.058 50.3052C187.252 48.9673 186.655 48.1627 185.317 48.3577C184.988 48.4299 184.679 48.5744 184.412 48.781C184.145 48.9875 183.926 49.2509 183.772 49.5525C183.348 50.6349 183.308 51.8621 182.993 52.9964C182.51 54.73 182.692 56.0389 184.798 56.286ZM184.659 44.5193C187.842 44.996 188.559 44.4893 188.776 41.8508C188.805 41.4981 188.959 41.0495 188.804 40.8085C188.407 40.1895 187.925 39.2862 187.372 39.2029C186.806 39.1176 185.758 39.7349 185.55 40.2858C185.061 41.5824 184.947 43.0223 184.659 44.5194V44.5193Z"
			fill="white" />
		<path
			d="M163.023 22.4409C162.7 24.1799 162.476 25.6369 162.129 27.063C162.055 27.2577 161.936 27.4313 161.781 27.5685C161.626 27.7056 161.439 27.8022 161.238 27.8497C157.724 27.9056 154.208 27.885 150.579 27.885C150.859 26.1726 151.073 24.656 151.382 23.1591C151.432 22.9771 151.526 22.81 151.653 22.6717C151.781 22.5334 151.94 22.4279 152.116 22.364C153.601 22.1863 153.984 21.1872 154.212 19.9183C154.932 15.905 155.726 11.9048 156.436 7.8898C156.532 7.34657 156.524 6.43747 156.211 6.22422C154.168 4.83288 155.214 3.07038 155.482 1.39231C155.537 1.04926 155.6 0.707575 155.696 0.153633C158.118 0.153633 160.514 0.154677 162.91 0.153284C164.852 0.152141 166.794 0.140243 168.735 0.14692C172.178 0.158775 174.273 2.15312 174.491 5.6647C174.689 8.85563 173.358 11.3959 170.901 13.6491C173.123 15.4439 172.435 17.7309 171.949 19.9942C171.74 20.971 171.32 22.0069 172.804 22.4362C172.978 22.4866 173.087 23.1503 173.047 23.5094C172.57 27.7859 172.561 27.7849 168.287 27.7994C164.591 27.812 163.578 26.5673 164.258 22.864C164.632 20.8276 164.969 18.7842 165.366 16.7526C165.615 15.4774 165.101 14.8293 163.87 14.6767C162.736 14.5362 161.95 14.781 161.814 16.1633C161.682 17.3977 161.445 18.6185 161.106 19.812C160.67 21.3924 161.012 22.3859 163.023 22.4409ZM162.796 11.1156C166.028 11.4401 167.54 9.9853 167.076 7.10467C166.968 6.74336 166.774 6.41417 166.511 6.14575C166.248 5.87734 165.924 5.67783 165.568 5.56454C164.987 5.47255 163.888 6.05069 163.703 6.57903C163.209 7.98697 163.085 9.52618 162.796 11.1156H162.796Z"
			fill="white" />
		<path
			d="M82.5996 27.6295C80.7282 27.6295 78.9675 27.6884 77.2125 27.6123C75.5907 27.5421 74.4896 26.155 74.7268 24.4107C75.0693 21.8927 75.5445 19.393 75.9696 16.8866C76.1765 15.6667 75.869 14.7549 74.5318 14.5068C73.3366 14.2851 72.436 14.5635 72.2113 15.9717C72.0159 17.1963 71.7772 18.4149 71.5221 19.6285C71.1868 21.2238 71.3071 22.5176 73.4745 22.6048L72.4229 27.6425H61.2608C61.4983 26.164 61.6502 24.8251 61.9594 23.5244C62.0325 23.2919 62.1559 23.0789 62.3208 22.9007C62.4857 22.7225 62.6879 22.5836 62.9126 22.4943C64.2199 22.1423 64.6731 21.1671 64.8881 20.0268C65.6546 15.9627 66.4192 11.897 67.0743 7.81398C67.18 7.15516 66.8023 6.36859 66.4997 5.71024C66.3101 5.29752 65.52 4.97388 65.556 4.6794C65.743 3.28091 66.0341 1.89862 66.427 0.544349C66.482 0.346739 67.1261 0.223681 67.4984 0.221789C71.6779 0.200364 75.8598 0.129421 80.0366 0.23626C83.3778 0.32171 85.7436 4.11061 84.6371 7.91908C84.0338 9.99526 82.7355 11.8665 81.6349 14.0609C83.6168 15.5133 82.671 17.8949 82.3031 20.2023C82.214 20.7607 82.0374 21.7137 82.2706 21.852C84.4513 23.1436 82.8919 24.8494 82.8592 26.3662C82.8062 26.7936 82.7194 27.2161 82.5996 27.6295ZM73.2563 11.0238C76.739 11.8207 77.592 10.8806 77.7226 7.16145C77.7656 5.93712 76.9159 5.32214 75.8257 5.27604C74.7976 5.23255 74.0726 5.78281 73.9149 6.92869C73.7319 8.25818 73.4913 9.57965 73.2563 11.0238Z"
			fill="white" />
		<path
			d="M92.061 0.229085C96.8381 0.229085 101.531 0.123498 106.217 0.265831C109.396 0.362457 110.855 4.56475 110.546 6.98166C110.234 9.60987 108.92 12.012 106.883 13.6783C109.11 15.4271 108.555 17.646 108.006 19.8585C107.686 21.1504 107.452 22.3938 109.187 22.7088C109.2 22.8788 109.199 23.0496 109.183 23.2194C108.851 24.6416 108.882 26.967 108.096 27.2938C106.482 27.9651 104.422 27.681 102.559 27.5725C101.036 27.4837 100.1 25.6026 100.45 23.6863C100.863 21.4221 101.326 19.1666 101.702 16.8963C101.976 15.2384 101.197 14.2945 99.6046 14.5103C99.2692 14.5873 98.9554 14.7402 98.6869 14.9574C98.4185 15.1745 98.2023 15.4504 98.0547 15.7641C97.6663 17.0658 97.3915 18.3994 97.2335 19.7495C96.8989 21.8593 96.922 21.863 99.093 22.7712L98.161 27.6685H86.9676C87.222 26.1781 87.4128 24.7855 87.7243 23.4209C87.7868 23.2165 87.8939 23.0288 88.0376 22.8716C88.1813 22.7144 88.3581 22.5916 88.5549 22.5124C89.8044 22.175 90.3569 21.3972 90.5745 20.146C91.302 15.9674 92.1916 11.8148 92.8013 7.62011C92.9268 6.75647 92.1116 5.75409 91.73 4.81567L91.2166 4.97277C91.4829 3.47673 91.7493 1.98054 92.061 0.229085ZM98.9502 10.9934C102.576 11.6862 102.968 11.1268 103.473 7.45609C103.632 6.30628 102.928 5.36744 101.82 5.35666C101.127 5.34987 100.024 5.95094 99.8106 6.53906C99.3012 7.94343 99.2097 9.50169 98.9502 10.9936V10.9934Z"
			fill="white" />
		<path
			d="M0 61.4155C0.286743 59.9253 0.545934 58.4838 0.85634 57.0537C0.885868 56.9128 0.94589 56.7803 1.03211 56.6656C1.11833 56.5508 1.22861 56.4568 1.35505 56.3902C3.40204 55.8843 3.56719 54.1544 3.86765 52.5306C4.54505 48.8698 5.23459 45.21 5.81409 41.533C5.91963 40.8634 5.61354 40.0765 5.33338 39.4141C5.13481 38.9447 4.32912 38.5586 4.36707 38.1962C4.54531 36.7938 4.8297 35.4073 5.21775 34.0488C5.26451 33.8706 5.81731 33.7303 6.13309 33.7354C9.5983 33.7915 13.0801 33.6908 16.5235 34.0068C20.9666 34.4146 23.5887 38.2045 22.7808 42.5832C21.9995 46.8176 21.3358 51.077 20.4325 55.2844C19.5268 59.5031 16.9293 61.4237 12.613 61.4167C8.50785 61.4103 4.40248 61.4155 0 61.4155ZM9.87451 56.0177C13.4809 56.575 14.0334 56.2725 14.7092 52.9981C15.4367 49.4728 16.047 45.9216 16.6371 42.3696C16.88 40.9082 15.9907 40.0033 14.4999 40.0348C13.9283 40.0469 13.3584 40.1445 12.7018 40.212L9.87451 56.0177Z"
			fill="white" />
		<path
			d="M173.816 33.7083C173.182 37.0863 172.596 40.2088 171.986 43.4609H168.372C168.257 42.7786 168.153 42.0371 168.004 41.3052C167.768 40.1512 167.359 39.096 165.993 38.9454C164.521 38.7832 163.191 39.2191 162.671 40.6844C162.193 42.2019 161.844 43.7576 161.627 45.3347C161.574 45.6363 161.918 46.2524 162.167 46.3051C162.381 46.3387 162.6 46.3218 162.806 46.2555C163.013 46.1892 163.202 46.0754 163.357 45.923C163.693 45.4428 163.892 44.8793 163.934 44.2932C164.058 42.6066 164.893 42.1778 166.593 42.7471C165.958 46.0251 165.399 49.3264 164.604 52.5688C164.479 53.0809 163.285 53.3274 162.586 53.6967L162.257 53.2283C162.376 52.4914 162.61 51.7488 162.575 51.0194C162.548 50.4718 162.175 49.9412 161.956 49.4031C161.555 49.8099 160.967 50.1489 160.791 50.6383C160.455 51.5715 160.36 52.5919 160.153 53.5735C159.868 54.9223 160.068 56.1572 161.439 56.7108C162.814 57.2656 164.146 56.9722 165.018 55.6573C165.509 54.9898 165.857 54.2261 166.038 53.4151C166.31 51.705 167.213 51.1392 168.818 51.4142C169.27 51.4915 169.733 51.496 170.463 51.5563C169.804 54.8808 169.168 58.0845 168.507 61.4235H149.882C150.185 59.8682 150.425 58.495 150.736 57.138C150.772 56.9699 150.843 56.8116 150.946 56.6742C151.048 56.5368 151.179 56.4237 151.329 56.3426C153.109 55.8815 153.403 54.4128 153.671 52.944C154.329 49.3438 154.966 45.74 155.584 42.1326C155.947 40.0286 155.85 39.8344 154.131 38.5659C154.323 37.6092 154.69 36.6281 154.682 35.6504C154.665 33.8062 155.623 33.6427 157.135 33.67C162.018 33.7585 166.905 33.7063 171.79 33.7082C172.415 33.7086 173.039 33.7083 173.816 33.7083Z"
			fill="white" />
		<path
			d="M46.1397 33.7151C45.5566 36.9495 45.0335 39.9617 44.4378 42.9592C44.3861 43.2192 43.8678 43.5329 43.5435 43.5618C42.6233 43.6435 41.6912 43.5904 40.7868 43.5904C40.6141 42.6353 40.6566 41.7791 40.2984 41.157C39.8174 40.3214 39.1516 39.2936 38.3413 39.0194C38.0297 38.9126 37.7003 38.8692 37.3721 38.8917C37.0438 38.9141 36.7232 39.0019 36.4287 39.15C36.1342 39.2981 35.8717 39.5037 35.6563 39.7547C35.4409 40.0058 35.2769 40.2975 35.1736 40.6129C34.6509 42.1175 34.271 43.6689 34.0392 45.2462C33.9782 45.5975 34.5102 46.0532 34.7692 46.4611C35.1744 46.1897 35.7024 46.0007 35.952 45.6244C36.2231 45.1647 36.3661 44.6395 36.366 44.1044C36.4084 42.2765 37.4811 42.3714 38.972 42.7177C38.3676 45.7621 37.6293 48.7309 37.2371 51.7457C37.0118 53.4775 36.2671 53.6539 34.7274 53.2361C34.9074 52.4026 35.0231 51.5562 35.0733 50.7047C35.0713 50.2806 34.6595 49.8584 34.4328 49.4355C34.021 49.759 33.3747 50.0066 33.2428 50.4205C32.9263 51.5598 32.6877 52.7198 32.5288 53.8922C32.3037 55.1927 32.6464 56.3015 33.924 56.8255C34.52 57.1096 35.1988 57.1622 35.8308 56.9731C36.4627 56.7839 37.0036 56.3664 37.3499 55.8002C37.8366 55.132 38.1801 54.3687 38.3585 53.5591C38.6978 51.7264 39.6906 51.0992 41.4419 51.4752C41.8881 51.5424 42.3376 51.5845 42.7884 51.6014C42.1418 54.8668 41.5132 58.0413 40.8501 61.3902H22.4346C22.6959 60.0521 22.9342 58.6776 23.2499 57.3214C23.3312 56.9721 23.6019 56.4671 23.8774 56.3966C25.6809 55.9335 25.9384 54.4391 26.2033 52.9789C26.8564 49.3777 27.4423 45.7642 28.0911 42.1622C28.4666 40.0769 28.3771 39.7837 26.66 38.6677C26.6456 38.4968 26.6469 38.3249 26.664 38.1542C27.4917 33.708 27.4927 33.7072 32.019 33.7083C36.0791 33.7093 40.1392 33.7116 44.1993 33.7151C44.7722 33.7154 45.3449 33.7151 46.1397 33.7151Z"
			fill="white" />
		<path
			d="M196.074 17.9867C195.45 21.0791 194.901 23.9821 194.242 26.86C194.149 27.2665 193.527 27.8412 193.144 27.8453C187.384 27.9085 181.624 27.8892 175.561 27.8892C175.863 26.2585 176.125 24.7845 176.42 23.3172C176.461 23.1158 176.641 22.813 176.797 22.7851C178.927 22.4021 179.061 20.6805 179.356 19.0329C180 15.4258 180.674 11.824 181.333 8.21951C181.544 7.06331 181.622 5.99202 180.292 5.34663C180.031 5.2199 179.886 4.55451 179.918 4.15625C180.24 0.126932 180.254 0.12764 184.214 0.128568C188.568 0.129568 192.922 0.131007 197.276 0.13284C197.908 0.133054 198.54 0.13284 199.387 0.13284C198.763 3.31938 198.281 6.28249 197.573 9.18933C197.207 10.6896 195.777 9.86182 194.854 9.89913C194.499 9.91342 193.858 9.0707 193.776 8.55C193.324 5.67388 191.837 4.47476 189.767 5.56397C189.146 5.88492 188.655 6.41349 188.377 7.05947C187.9 8.5169 187.541 10.0114 187.306 11.5279C187.246 11.8814 187.697 12.622 187.984 12.6613C188.225 12.6499 188.461 12.5843 188.674 12.4694C188.886 12.3545 189.071 12.1931 189.214 11.9969C189.493 11.5423 189.639 11.0184 189.639 10.484C189.702 8.86828 190.527 8.46005 192.256 8.96061C192.031 10.0923 191.79 11.2659 191.565 12.4424C191.209 14.2997 190.873 16.1612 190.51 18.017C190.163 19.7845 190.153 19.7823 188.015 19.5493C188.139 18.7572 188.375 17.9671 188.344 17.1878C188.325 16.7178 187.892 16.2646 187.645 15.8039C187.255 16.0809 186.604 16.295 186.521 16.6458C186.168 18.1349 185.778 19.6715 185.828 21.1762C185.852 21.8925 186.784 23.1016 187.389 23.1571C188.501 23.1892 189.593 22.8505 190.495 22.1934C191.121 21.748 191.481 20.6996 191.64 19.8586C191.985 18.0398 193.058 17.6156 194.667 17.8755C195.066 17.9397 195.474 17.9414 196.074 17.9867Z"
			fill="white" />
		<path
			d="M151.584 0.156508C150.93 3.50459 150.319 6.63082 149.688 9.85485H146.168C146.018 8.99328 145.898 8.23911 145.753 7.48974C145.502 6.18739 144.787 5.26512 143.413 5.26155C142.119 5.25797 140.921 5.74785 140.5 7.11919C140.065 8.59312 139.723 10.0936 139.477 11.6116C139.419 11.9487 139.811 12.6729 140.026 12.6848C140.266 12.6901 140.505 12.6447 140.727 12.5515C140.949 12.4583 141.15 12.3194 141.316 12.1435C141.595 11.6912 141.748 11.1706 141.756 10.6374C141.888 9.18355 142.494 8.43181 144.337 8.99557C143.698 12.4763 143.047 16.0277 142.389 19.6127H140.126C140.296 18.7019 140.551 17.8918 140.555 17.0806C140.557 16.661 140.113 16.2393 139.87 15.8186C139.438 16.1178 138.755 16.3325 138.622 16.7322C138.308 17.8715 138.061 19.0289 137.883 20.198C137.617 21.5149 137.965 22.6052 139.225 23.1513C139.812 23.4513 140.487 23.5271 141.124 23.3649C141.762 23.2027 142.321 22.8134 142.697 22.2684C143.105 21.6902 143.427 21.0552 143.654 20.3834C144.698 17.6026 144.684 17.5973 148.152 18.1203C147.53 21.3374 146.91 24.5454 146.279 27.8122H127.703C128.014 26.3517 128.288 24.9761 128.613 23.6129C128.687 23.3022 128.899 22.8266 129.119 22.7811C131.072 22.378 131.229 20.785 131.518 19.2638C132.204 15.6609 132.916 12.063 133.561 8.45289C133.77 7.28308 133.873 6.12173 132.549 5.33011C132.226 5.13729 132.182 4.20591 132.257 3.64761C132.721 0.177695 132.744 0.179648 136.14 0.174292C140.614 0.16715 145.087 0.161276 149.561 0.156682C150.192 0.155825 150.824 0.156508 151.584 0.156508Z"
			fill="white" />
		<path
			d="M135.463 50.4523C135.846 52.2145 136.085 53.793 136.546 55.3028C136.974 56.7037 137.97 57.855 139.524 57.462C140.586 57.1413 141.507 56.4604 142.13 55.5341C142.969 54.2371 142.205 52.9709 141.111 52.1383C139.475 50.8935 137.712 49.8194 136.031 48.6327C131.932 45.7394 131.789 40.3613 133.769 37.2287C135.565 34.3871 139.636 31.8186 144.604 34.4944C146.191 32.8863 148.152 33.8998 150.238 33.574C149.584 36.914 148.994 40.0233 148.337 43.1183C148.264 43.2928 148.149 43.4465 148.003 43.566C147.857 43.6855 147.684 43.7672 147.5 43.8039C146.353 43.885 145.198 43.8365 143.887 43.8365C143.887 42.4239 143.927 41.251 143.877 40.0821C143.815 38.6199 143.07 37.4252 141.648 37.3065C141.148 37.301 140.653 37.3991 140.193 37.5949C139.732 37.7906 139.317 38.0798 138.972 38.4444C138.049 39.5302 138.28 40.964 139.281 41.9966C140.089 42.7528 140.975 43.4184 141.925 43.982C143.541 45.0444 145.421 45.811 146.783 47.1288C149.747 49.9965 149.925 54.5155 147.532 58.0329C145.213 61.4419 140.531 62.9174 136.746 61.4112C135.984 61.1082 135.255 60.7236 134.513 60.3777C133.533 61.5596 132.719 61.6925 128.936 61.2153C129.207 59.791 129.471 58.3744 129.749 56.9606C130.045 55.4534 130.496 53.9605 130.62 52.4398C130.76 50.7222 131.553 50.2197 133.132 50.4336C133.908 50.4933 134.687 50.4996 135.463 50.4523Z"
			fill="white" />
		<path
			d="M87.317 61.6484C87.6383 59.982 87.878 58.5957 88.1922 57.2268C88.2351 57.0669 88.314 56.919 88.4227 56.7948C88.5314 56.6707 88.667 56.5735 88.819 56.5108C90.9379 56.143 91.5451 54.4048 92.1646 52.7532C94.3243 46.9963 96.4784 41.2357 98.5054 35.4308C98.9719 34.0947 99.6056 33.6185 100.924 33.7979C101.511 33.8496 102.101 33.8484 102.687 33.7943C103.651 33.75 104.067 34.1 104.303 35.1513C105.649 41.1503 107.108 47.124 108.546 53.1018C108.981 54.91 109.296 56.8681 112.01 56.5277C111.734 58.1382 111.525 59.5306 111.235 60.9056C111.177 61.1783 110.81 61.5881 110.582 61.5907C106.787 61.6333 102.992 61.6211 99.0211 61.6211C99.3057 59.9527 99.4615 58.5525 99.8303 57.2118C99.9249 56.8681 100.718 56.7512 101.143 56.4594C101.627 56.1258 102.419 55.7322 102.44 55.331C102.486 54.4419 102.377 53.3632 100.961 53.4394C99.9044 53.4963 98.8207 53.3267 97.7908 53.5045C97.4886 53.5853 97.2054 53.726 96.9577 53.9185C96.71 54.111 96.5027 54.3514 96.348 54.6256C95.7465 55.7558 95.9512 56.5959 97.5074 56.4777C97.8695 56.4781 98.2313 56.4995 98.591 56.5418C98.3142 58.1187 98.0949 59.6074 97.7567 61.0682C97.698 61.3219 97.1394 61.6185 96.808 61.623C93.7026 61.6656 90.5963 61.6484 87.317 61.6484ZM97.9942 49.949H101.299C100.867 48.1842 100.464 46.5392 100.061 44.8942L99.7281 44.9293C99.1773 46.5237 98.6267 48.1181 97.9942 49.949Z"
			fill="white" />
		<path
			d="M221 56.6997C220.755 58.1929 220.589 59.5334 220.284 60.841C220.207 61.0382 220.084 61.2132 219.924 61.3506C219.764 61.4879 219.573 61.5832 219.368 61.628C215.679 61.6835 211.989 61.6634 208.044 61.6634C208.366 59.8114 208.644 58.2127 208.934 56.546C209.317 56.5704 209.702 56.5392 210.076 56.4531C210.624 56.2208 211.6 55.7908 211.565 55.5936C211.407 54.7054 211.51 53.4288 209.973 53.5404C209.212 53.5957 208.444 53.5624 207.68 53.5628C205.461 53.5642 205.185 53.8398 205.042 56.3598L207.586 56.5598C207.302 58.0554 207.062 59.53 206.713 60.9784C206.633 61.1467 206.513 61.2924 206.364 61.4028C206.214 61.5132 206.04 61.5848 205.857 61.6113C202.758 61.6577 199.657 61.6399 196.31 61.6399C196.648 59.8232 196.946 58.2251 197.258 56.5494C199.303 56.5144 200.164 55.2282 200.781 53.5618C202.977 47.6371 205.278 41.7511 207.411 35.8037C207.916 34.3932 208.556 33.7384 210.042 33.9617C210.626 34.0413 211.218 34.0423 211.803 33.9645C212.77 33.8461 213.164 34.3298 213.366 35.1965C214.771 41.2308 216.218 47.2551 217.596 53.2956C218.013 55.1219 218.452 56.8076 221 56.6997ZM206.987 49.9827H210.261C209.853 48.2872 209.48 46.7364 209.106 45.1856L208.712 45.1702L206.987 49.9827Z"
			fill="white" />
		<path
			d="M35.564 1.07228C36.1071 -0.0296054 37.4743 -0.278593 41.6193 0.30838C40.8164 4.10135 40.0349 7.88428 39.1817 11.6507C39.0904 11.8397 38.9549 12.0035 38.787 12.128C38.619 12.2524 38.4237 12.3338 38.2177 12.3652C36.7591 12.4448 35.2939 12.3989 33.5796 12.3989C33.7552 11.2733 33.9159 10.2603 34.0708 9.24648C34.2792 7.88296 33.8212 6.80244 32.4289 6.57359C31.0576 6.3482 30.2572 7.16467 30.0034 8.55023C29.344 12.1516 28.5919 15.7375 28.0266 19.3533C27.8875 20.2422 28.0154 21.5042 28.5569 22.0995C29.6023 23.249 31.4234 22.37 31.8519 20.6788C32.7414 17.1683 32.7414 17.1683 36.2807 17.1667C36.9108 17.1665 37.541 17.1667 38.1671 17.1667C38.215 22.8383 34.7791 27.4921 30.1143 28.3902C25.3314 29.3109 19.7123 24.5931 21.1162 19.3174C22.2532 15.0438 22.787 10.6107 23.8179 6.30412C24.6504 2.82613 26.8802 0.543993 30.5862 0.36413C32.1485 0.288286 33.7385 0.793363 35.564 1.07228Z"
			fill="white" />
		<path
			d="M51.7085 0.115343C58.7171 -0.081767 62.0701 3.79572 61.0877 9.16267C60.3646 13.1129 59.5737 17.0561 58.6401 20.9605C57.2342 26.8405 52.828 29.34 47.1918 27.61C43.7056 26.54 41.6372 23.9285 42.2304 20.2642C43.0293 15.0773 44.1764 9.9511 45.6639 4.92118C46.075 3.59884 46.872 2.43259 47.9505 1.5751C49.029 0.717609 50.3388 0.208851 51.7085 0.115343ZM55.4393 8.3486C55.3029 7.09624 54.6187 6.11972 53.2981 5.98724C51.7556 5.83248 50.9562 6.86163 50.6566 8.28854C49.8582 12.0911 49.1194 15.9069 48.2733 19.6985C47.9323 21.2268 48.702 21.9517 49.9105 22.3605C51.1649 22.7848 52.2806 22.2462 52.5822 21.0332C53.6209 16.8556 54.4884 12.6349 55.4393 8.3486Z"
			fill="white" />
		<path
			d="M49.946 33.7777H60.8012C60.5218 35.3787 60.2742 36.8674 59.9885 38.3486C59.9617 38.4609 59.9106 38.5657 59.8388 38.6557C59.7671 38.7456 59.6765 38.8185 59.5736 38.8689C57.5785 39.5007 57.2958 41.2043 56.9818 42.9262C56.3252 46.5269 55.6356 50.1214 54.9533 53.7174C54.7244 54.9234 54.8705 56.0042 56.1015 56.5641C57.3614 57.1372 58.691 57.2554 59.6337 56.0417C60.2524 55.2586 60.6958 54.3496 60.9335 53.377C61.2997 51.7221 62.1786 51.1367 63.7747 51.4146C64.318 51.4745 64.8639 51.5058 65.4104 51.5084C64.778 54.6601 64.1929 57.7002 63.5227 60.7213C63.4572 61.0164 62.8694 61.3932 62.5217 61.3957C56.6704 61.4373 50.8187 61.4254 44.754 61.4254C45.0708 59.8471 45.3303 58.4696 45.6373 57.103C45.666 56.9676 45.7232 56.84 45.8049 56.7288C45.8866 56.6176 45.9909 56.5254 46.1109 56.4583C47.9668 55.8789 48.2614 54.3562 48.5418 52.7143C49.149 49.1603 49.8677 45.6257 50.5243 42.08C50.8759 40.1807 50.6648 39.7281 48.9596 38.6542L49.946 33.7777Z"
			fill="white" />
		<path
			d="M86.8377 51.5173C86.22 54.6537 85.6642 57.6007 85.0289 60.5303C84.958 60.7327 84.8388 60.9144 84.6817 61.0592C84.5246 61.2039 84.3346 61.3072 84.1284 61.36C78.2602 61.4098 72.3914 61.3966 66.3013 61.3966C66.6327 59.7679 66.9064 58.3356 67.2306 56.915C67.2847 56.6783 67.5335 56.3416 67.7354 56.3071C69.5696 55.9935 69.7202 54.4687 69.9958 53.1011C70.7192 49.5119 71.4013 45.9143 72.0423 42.3085C72.2668 41.041 72.5582 39.6891 71.0102 38.8831C70.7928 38.77 70.702 38.1645 70.7533 37.8169C70.9504 36.4822 71.2293 35.1597 71.4878 33.7783H82.201C81.9554 35.2765 81.7271 36.6976 81.4834 38.1159C81.4544 38.2846 81.3813 38.5345 81.2611 38.5856C77.8044 40.0561 78.5129 43.4919 77.8004 46.1995C77.1559 48.6488 76.8867 51.1964 76.3971 53.6897C76.1222 55.0895 76.4176 56.196 77.8 56.7409C79.1883 57.2882 80.4933 57.1078 81.3791 55.7768C81.8328 55.1565 82.1478 54.4441 82.3023 53.6889C82.5782 51.7475 83.6233 51.0951 85.4483 51.4255C85.7872 51.4868 86.1394 51.4741 86.8377 51.5173Z"
			fill="white" />
		<path
			d="M123.924 22.8643C123.954 23.0162 123.966 23.171 123.962 23.3257C123.075 27.8116 123.074 27.8146 118.436 27.8337C116.384 27.8422 114.331 27.8351 112.067 27.8351C112.353 26.2396 112.574 24.8565 112.868 23.489C112.904 23.323 112.976 23.1671 113.078 23.0325C113.181 22.8979 113.312 22.788 113.462 22.7106C115.212 22.2499 115.575 20.8766 115.842 19.3522C116.516 15.5067 117.261 11.6738 117.919 7.82555C118.011 7.28803 117.966 6.36865 117.652 6.1774C115.702 4.98642 116.695 3.34931 116.807 1.81386C116.911 0.371243 117.619 0.014135 118.986 0.064448C121.917 0.172608 124.855 0.0976194 128.078 0.0976194C127.779 1.70403 127.53 3.12828 127.235 4.54293C127.211 4.68173 127.158 4.81378 127.079 4.93044C127.001 5.0471 126.899 5.14576 126.78 5.22001C124.819 5.89953 124.512 7.57869 124.212 9.31486C123.586 12.9324 122.971 16.5537 122.232 20.1487C121.903 21.7504 122.724 22.4259 123.924 22.8643Z"
			fill="white" />
	</g>
	<defs>
		<clipPath id="clip0_156_38">
			<rect width="221" height="62" fill="white" />
		</clipPath>
	</defs>
</svg>