<svg width="205" height="75" viewBox="0 0 205 75" fill="none" xmlns="http://www.w3.org/2000/svg">
    <path fill-rule="evenodd" clip-rule="evenodd"
        d="M100.795 18.2095C102.578 18.2095 104.311 18.6449 105.928 19.4316C114.946 22.9969 123.495 35.1686 123.722 46.691C124.713 59.2574 119.108 75 107.357 75C99.5553 75 92.7017 69.8195 88.5112 61.4918C85.695 56.9039 83.9542 50.7274 83.9542 43.9321C83.9542 29.7603 91.5032 18.2095 100.795 18.2095ZM14.0673 19.0871C15.3157 19.0871 16.5079 19.2178 17.6212 19.4721C25.5888 20.2172 31.3515 24.777 33.5196 32.1016C35.6761 39.3715 36.1378 47.4795 29.6459 54.8088L35.0154 60.8225V74.7064H5.11234L0 67.9686V64.8537L0.162762 64.775C6.16128 61.4838 10.4403 57.1907 12.8389 52.1484C9.35295 50.8453 7.08543 48.8491 4.67703 45.5556C3.8207 44.398 3.14957 43.2604 2.624 42.1405C1.52732 40.4965 0.798124 38.3697 0.745842 35.8269C0.676775 31.826 1.91035 26.2424 5.54766 22.5737C7.80486 20.2874 10.6173 19.1073 13.9148 19.0871H14.0673ZM62.9131 19.4432L68.918 25.3441V52.9069L69.6311 53.785H69.6586V53.8198L69.9893 54.2157L75.223 60.5864V63.1007H70.4769V65.6347L75.0999 71.6354V74.4607H51.8171L45.1981 67.9686V65.2115H45.5074C47.151 65.2115 48.0476 65.1247 49.1977 64.3055C49.733 63.9281 50.1057 63.5725 50.4052 63.1615H39.8078L33.9393 57.0258H33.9601V53.6301L34.0498 53.5376C38.7728 48.2258 41.0616 44.8687 44.2376 38.5679C47.691 31.7085 49.0924 27.5502 50.4622 20.0259L50.5157 19.7212L50.8147 19.7774C52.8505 20.2023 54.0478 20.333 55.9697 20.333H56.3676C58.7979 20.3063 60.189 20.1381 62.5399 19.5449L62.9131 19.4432ZM198.817 19.4218L204.879 25.9424V40.7392H201.629L195.648 34.7361C195.648 34.7361 195.521 31.0078 193.883 29.681C192.376 28.4625 190.61 28.3733 190.219 28.369L190.153 28.3691C190.145 28.3692 190.14 28.3694 190.14 28.3694L190.198 35.1049H192.823L199.257 42.4321V54.5267L205 59.6205V74.2687H173.616L167.486 67.7245V65.1028L167.775 65.1004C169.034 65.0213 169.806 64.694 170.713 63.8448C171.775 62.8568 172.173 61.9162 172.116 60.4738V28.3219L167.245 22.191V19.4218H198.817ZM149.058 19.1836C150.03 19.2778 151.005 19.5098 151.95 19.8796C158.915 21.4302 163.922 26.8518 164.669 34.0215C165.251 39.587 163.675 43.6484 159.425 47.4795C161.119 48.738 161.965 49.6636 163.042 51.4464C164.048 53.0855 164.448 54.1405 164.799 56.0097V66.5827L168.29 71.2747V74.0375H157.298L150.311 71.4054V73.8035H129.248L123.301 67.7245H123.285V65.1104L123.569 65.1004C125.091 64.9662 126.041 64.4599 126.971 63.2834C127.726 62.3325 127.784 61.4491 127.857 60.3246C127.868 60.1286 127.878 59.9293 127.91 59.7054V28.423L122.913 22.0766V19.1836H149.058ZM100.795 18.8183C91.8454 18.8183 84.5661 30.0817 84.5661 43.9321C84.5661 57.7845 91.8454 69.0571 100.795 69.0571C109.758 69.0571 117.04 57.7845 117.04 43.9321C117.04 30.0817 109.758 18.8183 100.795 18.8183ZM14.0673 19.6907H13.9304C10.786 19.7212 8.13547 20.8248 5.97843 22.9829C2.4728 26.5228 1.29618 31.9356 1.35933 35.8131C1.46472 41.607 5.21704 45.189 8.65017 45.189C11.6739 45.189 13.7573 42.6117 14.2403 38.3233C14.7183 33.933 13.747 31.8449 12.8545 30.8773C12.2195 30.1903 11.4006 29.8221 10.4772 29.8221C8.88132 29.8221 7.14336 30.8773 5.80989 32.6254L5.52688 33.0167L5.29629 32.597C4.35604 30.913 4.68157 27.7478 6.01462 25.5637C6.79155 24.3087 8.21417 22.7829 10.6864 22.7829H10.8119C12.0039 22.8067 13.0223 23.2894 13.8414 24.215C17.2215 28.0947 16.2974 39.2072 15.437 45.4718C14.3445 53.6301 9.22294 60.4415 0.608946 65.2033V67.3694H28.3434V54.3885H26.6797C26.5383 55.4285 26.1075 56.1471 25.2259 56.852C24.1447 57.7047 23.3046 57.7047 21.8929 57.6265H13.2431L14.2714 57.0751C23.0372 52.3004 28.1076 45.0387 28.218 37.126C28.3014 31.338 26.6222 26.4413 23.4886 23.3414C21.0635 20.9192 17.8881 19.6907 14.0673 19.6907ZM62.3093 20.2201C60.1154 20.7573 58.7295 20.907 56.378 20.9272H55.9697C54.1007 20.9272 52.8925 20.8117 51.0034 20.4394C49.6433 27.8327 48.2212 32.012 44.7731 38.8332C41.5867 45.1549 39.2938 48.5369 34.5748 53.855V56.4402H51.5594L51.5439 62.2567C51.1035 63.4043 50.583 64.0557 49.5594 64.7835C48.3109 65.682 47.2712 65.8022 45.8123 65.8058V67.3694H68.9225V65.4485H67.1076C65.7896 65.4485 64.8499 65.3929 63.8009 64.5466C62.9131 63.8448 62.5035 63.1747 62.3093 62.0873V56.3182H69.0554V54.3885H62.3093V20.2201ZM149.032 19.7636L123.522 19.7721V21.447C123.674 21.447 123.816 21.4302 123.982 21.4302C125.664 21.4302 126.814 21.9204 127.706 23.0147C128.362 23.8283 128.388 24.5254 128.409 25.3486C128.424 25.7261 128.435 26.1493 128.513 26.6356V59.7408C128.493 59.9702 128.493 60.1749 128.467 60.3564C128.387 61.5358 128.309 62.5474 127.454 63.6499C126.471 64.8871 125.433 65.4791 123.9 65.6595V67.1412H143.893V65.5653C142.277 65.5322 141.1 64.9455 140.072 63.6402C139.143 62.4336 139.143 61.3462 139.143 59.9702V44.4253L140.093 44.398H140.765C142.302 44.398 144.061 44.5121 145.121 45.5718C146.222 46.6823 146.433 48.2258 146.606 49.4521L146.496 61.1849C146.523 62.5898 146.775 63.4199 147.562 64.6311C148.471 65.9978 149.315 66.6665 150.858 67.2528H162.116V65.9254H162.107C160.826 65.9254 159.844 65.4884 158.947 64.5097C157.986 63.4448 157.986 62.5394 158.007 61.1509V51.6866C157.719 49.8758 157.245 48.7953 156.065 47.2979C154.711 45.5966 153.556 44.756 151.468 44.0368L150.774 43.8009L151.43 43.4882C156.207 41.2099 158.936 38.4668 158.754 31.1373C158.574 24.2716 153.723 20.2201 149.032 19.7636ZM198.203 20.0212H167.844V21.577C169.44 21.577 170.61 22.1275 171.648 23.371C172.525 24.4168 172.594 25.3013 172.683 26.5228L172.714 27.0269V60.4704C172.788 62.0451 172.315 63.1747 171.124 64.2806C170.179 65.1622 169.345 65.552 168.105 65.6595V67.1412H198.329V54.273H197.168C196.917 57.4189 195.941 59.461 193.61 61.7507C191.017 64.2946 188.461 65.3727 185.039 65.3727C184.625 65.3727 184.204 65.3629 183.743 65.3282L183.47 65.3144V44.6345L183.794 44.6439C184.368 44.6924 184.913 44.6733 185.407 44.6605C186.802 44.6236 187.905 44.6345 188.85 45.4527C189.809 46.2966 190.245 47.0586 190.445 48.2622V52.3502H192.586V35.8889H190.954V37.7474C190.833 39.1131 190.445 39.9686 189.485 40.952C188.209 42.2839 186.782 42.3879 185.289 42.3879H184.582C184.326 42.3655 184.046 42.3655 183.784 42.3655H183.47V22.0766L183.757 22.058C187.039 21.8735 189.206 22.5315 191.836 24.5254C194.992 26.9604 196.371 29.7621 196.324 33.599H198.203V20.0212ZM100.91 21.599C102.8 21.599 104.332 23.2333 104.332 25.2521V62.4469C104.332 64.4704 102.8 66.1138 100.91 66.1138C99.0142 66.1138 97.4764 64.4704 97.4764 62.4469V25.2521C97.4764 23.2333 99.0142 21.599 100.91 21.599ZM190.723 52.9571H190.14V63.6025C191.186 63.0596 192.182 62.3065 193.185 61.3289C193.982 60.5328 194.613 59.7848 195.106 58.9903C194.177 57.8232 191.868 54.8879 190.723 52.9571ZM51.5594 30.2915V54.3885H37.702V54.092C40.479 50.0747 41.9225 47.7495 44.3211 43.5222C47.1826 38.4921 48.6359 35.5802 50.9407 30.2979V30.2915H51.5594ZM50.9407 46.0434L46.6151 53.785H50.9407V46.0434ZM140.598 22.3467C142.403 22.3283 144.245 22.3726 145.32 23.4658C146.433 24.6006 146.649 26.3326 146.817 27.6322V37.0347C146.649 38.7175 146.292 40.0751 145.063 41.0705C143.826 42.1211 142.285 42.1865 140.156 42.1893L139.69 42.1893L139.451 42.1892V22.3575C139.701 22.3575 139.956 22.3545 140.212 22.3513L140.598 22.3467ZM17.9842 0.829278C19.0815 0.829278 20.7805 0.967178 21.506 1.08831L21.5946 1.19214C21.6831 1.91705 21.7537 3.12582 21.7715 4.28308L21.4354 4.30052C20.8333 3.10906 20.1254 2.15932 19.2763 1.38155C18.8338 1.26095 18.4443 1.20891 17.9313 1.20891C16.7632 1.20891 15.9848 1.81322 15.9848 2.85002C15.9848 3.88615 16.6219 4.30052 18.8868 5.19875C21.0281 6.0621 22.1254 6.83933 22.1254 8.73895C22.1254 11.0535 20.2495 12.3486 17.7721 12.3486C16.7276 12.3486 15.4004 12.2624 14.091 12.0033C13.9141 10.6218 13.8078 9.74087 13.8078 8.47991L14.1618 8.42827C14.7633 9.67192 15.4889 10.6907 16.3559 11.7443C16.8696 11.917 17.2942 11.9517 17.7894 11.9517C19.0286 11.9517 19.9134 11.2952 19.9134 9.9999C19.9134 8.86008 19.0109 8.39352 17.1701 7.73756C14.8166 6.89098 13.8078 5.88946 13.8078 4.23157C13.8078 2.24557 15.7544 0.829278 17.9842 0.829278ZM40.0024 3.40229C41.8604 3.40229 43.5065 4.12774 43.5065 5.88946C43.5065 6.30383 43.453 6.63181 43.3117 6.78769C43.2055 6.85664 43.0819 6.89098 42.9223 6.89098C41.56 6.89098 40.25 6.80459 38.8522 6.80459C38.8522 6.80459 38.8343 6.97723 38.8343 7.09836C38.8343 8.70474 39.7726 10.2764 41.4888 10.2764C42.25 10.2764 42.8515 10.19 43.4359 10.0173L43.5244 10.19C42.8338 11.5542 41.9139 12.3139 40.0908 12.3139C37.7904 12.3139 36.0203 10.5354 36.0203 8.08285C36.0203 5.28501 37.9674 3.40229 40.0024 3.40229ZM27.0884 3.40229C29.3711 3.40229 31.1941 5.09492 31.1941 7.78907C31.1941 10.5527 29.07 12.3139 26.8052 12.3139C24.646 12.3139 22.6638 10.6387 22.6638 7.9102C22.6638 5.38883 24.6637 3.40229 27.0884 3.40229ZM34.8861 0L35.2222 0.0347433C35.2222 0.0347433 35.1624 1.04495 35.1325 2.1111L35.1257 2.37826C35.1197 2.64547 35.1159 2.91121 35.1159 3.16057V10.4665C35.1159 11.4678 35.1515 11.6057 35.2928 11.6927L35.7353 11.8133C35.7353 11.8133 35.7709 11.9517 35.7709 12.1243H31.4704C31.4704 11.9517 31.5054 11.8133 31.5054 11.8133L31.9657 11.6927C32.1076 11.6057 32.1427 11.5193 32.1427 10.4665L32.1425 2.30224C32.1385 1.23292 32.0843 1.10042 31.9479 0.967178L31.4883 0.829278C31.4883 0.673939 31.5233 0.570246 31.5233 0.570246C31.5233 0.570246 33.2044 0.0863887 34.8861 0V0ZM10.1066 0L10.4427 0.0347433C10.4427 0.0347433 10.3782 1.13089 10.35 2.2446L10.3439 2.51167C10.3396 2.73359 10.337 2.95277 10.337 3.16057L10.3372 10.5922C10.3403 11.4797 10.3782 11.6095 10.5139 11.6927L10.9564 11.8133C10.9564 11.8133 10.9914 11.9517 10.9914 12.1243H6.69092C6.69092 11.9517 6.72652 11.8133 6.72652 11.8133L7.18673 11.6927C7.32804 11.6057 7.36378 11.5193 7.36378 10.4665L7.36354 2.30224C7.35954 1.23292 7.30487 1.10042 7.169 0.967178L6.70865 0.829278C6.70865 0.673939 6.74439 0.570246 6.74439 0.570246C6.74439 0.570246 8.42551 0.0863887 10.1066 0V0ZM6.20253 1.07087C6.20253 1.3126 6.16693 1.41629 6.16693 1.41629L5.35277 1.55419C5.15799 1.72697 5.1052 1.986 5.1052 3.71351L5.10537 9.64442C5.10876 11.2254 5.16427 11.4734 5.35277 11.6405L6.16693 11.7785C6.16693 11.7785 6.20253 11.8822 6.20253 12.1243H0.946128C0.946128 11.8822 0.98173 11.7785 0.98173 11.7785L1.79576 11.6405C1.99054 11.4678 2.04346 11.2088 2.04346 9.48183L2.04329 3.55087C2.0399 1.96938 1.98425 1.7214 1.79576 1.55419L0.98173 1.41629C0.98173 1.41629 0.946128 1.3126 0.946128 1.07087H6.20253ZM26.9114 3.76502C25.9376 3.76502 25.7077 5.8032 25.7077 7.65117C25.7077 9.72356 25.9376 11.917 27.0528 11.917C28.0617 11.917 28.168 9.80982 28.168 7.97915C28.168 5.9238 27.9376 3.76502 26.9114 3.76502ZM39.896 3.71351C39.2412 3.71351 38.8343 4.76708 38.8343 6.39022C38.8343 6.47661 38.87 6.51122 38.9757 6.51122L40.4092 6.45917C40.6218 6.39022 40.7459 5.9411 40.7459 5.18131C40.7459 4.23157 40.4804 3.71351 39.896 3.71351Z"
        fill="white" />
</svg>