<svg width="200" height="192" viewBox="0 0 200 192" fill="none" xmlns="http://www.w3.org/2000/svg">
<g clip-path="url(#clip0_1641_440)">
<path d="M1.85343 139.232C1.85343 139.232 6.10473 129.289 15.3901 132.725C24.6755 136.161 15.5206 144.087 15.5611 148.104C15.6016 152.12 18.6472 160.586 16.3843 161.005C14.1215 161.419 8.16965 152.098 10.8419 146.334C13.5096 140.57 12.8663 136.247 9.56426 138.516C6.26219 140.786 7.48584 143.758 4.29175 144.343C1.09765 144.929 0.391348 141.034 1.85343 139.237V139.232Z" fill="#60F0F8"/>
<path d="M18.1839 163.522C18.1839 163.522 14.5759 163.77 15.0573 166.44C15.3182 167.89 16.5374 168.786 18.0309 168.777C21.6659 168.746 21.9493 163.266 18.1839 163.527V163.522Z" fill="#60F0F8"/>
<path d="M1.75445 104.428C1.75445 104.428 5.90228 101.622 8.669 105.315C11.4357 109.007 5.87979 109.782 4.88557 111.362C3.89585 112.943 2.96461 117.018 1.97939 116.609C0.994168 116.199 1.00317 111.052 3.48646 109.476C5.96976 107.9 6.80203 106.049 4.94405 106.098C3.08608 106.148 2.82065 107.62 1.42605 107.039C0.0314401 106.459 0.733242 104.756 1.74995 104.428H1.75445Z" fill="#F050F8"/>
<path d="M2.05143 118.045C2.05143 118.045 0.580342 117.225 0.103477 118.392C-0.157449 119.022 0.0944793 119.684 0.679314 120.058C2.10541 120.968 3.58999 118.901 2.05143 118.045Z" fill="#F050F8"/>
<path d="M179.625 31.8642C180.273 31.6255 180.966 31.5579 181.645 31.6615C183.742 31.9587 190.467 33.2826 191.38 38.1505C192.465 43.9326 187.017 47.8052 182.545 47.49C178.073 47.1748 178.721 55.5821 175.527 54.2582C172.333 52.9343 174.308 50.0343 176.337 45.7428C178.366 41.4513 185.469 43.4237 186.477 40.8704C187.485 38.3171 185.267 37.0563 180.862 36.1646C177.12 35.4081 177.331 32.7423 179.621 31.8597L179.625 31.8642Z" fill="#F050F8"/>
<path d="M175.077 57.2303C175.077 57.2303 173.102 54.623 171.599 55.9874C170.101 57.3474 170.857 59.3693 173.03 60.2024C175.203 61.0309 176.229 58.4101 175.073 57.2348L175.077 57.2303Z" fill="#F050F8"/>
<path d="M152.269 7.67784C152.269 7.67784 156.475 3.98077 160.047 7.66433C163.623 11.3479 157.573 13.005 156.695 14.8919C155.818 16.7787 155.35 21.4169 154.203 21.1062C153.051 20.7955 152.35 15.1035 154.887 13.0095C157.42 10.9111 158.085 8.74508 156.034 9.06931C153.983 9.39353 153.893 11.0552 152.269 10.6139C150.644 10.1726 151.184 8.1957 152.269 7.68234V7.67784Z" fill="#60F0F8"/>
<path d="M154.482 22.6868C154.482 22.6868 152.741 21.9978 152.372 23.3532C152.17 24.0873 152.538 24.7807 153.24 25.1095C154.945 25.911 156.304 23.4118 154.482 22.6868Z" fill="#60F0F8"/>
<path d="M111.677 2.21554C111.937 1.83728 112.284 1.53107 112.693 1.32843C113.944 0.68448 118.101 -1.18432 120.467 1.10777C123.274 3.82767 121.803 8.02909 119.252 9.57816C116.706 11.1272 120.278 15.4412 118.042 15.9501C115.802 16.4589 115.761 14.1263 115.217 11.0147C114.673 7.903 119.284 6.24134 118.852 4.46711C118.42 2.69288 116.733 2.85949 114.002 4.07083C111.681 5.10205 110.772 3.57099 111.681 2.21104L111.677 2.21554Z" fill="#6675F6"/>
<path d="M121.394 20.7549C121.394 20.7549 118.478 19.8363 118.069 21.6871C117.66 23.5379 119.329 24.6727 121.434 24.1323C123.544 23.5919 122.91 21.0296 121.394 20.7594V20.7549Z" fill="#6675F6"/>
<path d="M58.8973 118.982C50.2778 125.799 44.2045 116.482 39.1794 120.229C34.1543 123.976 46.1344 143.799 59.8421 142.781C73.5497 141.763 58.8928 118.977 58.8928 118.977L58.8973 118.982Z" fill="#FF48D8"/>
<path opacity="0.1" d="M58.8119 119.018C50.1923 125.835 44.119 116.519 39.0939 120.265C34.0689 124.012 46.049 143.834 59.7566 142.817C73.4642 141.799 58.8074 119.013 58.8074 119.013L58.8119 119.018Z" fill="#100030"/>
<path d="M69.5054 106.215C69.5054 108.661 67.5259 110.642 65.0831 110.642C62.6403 110.642 60.6609 108.661 60.6609 106.215C60.6609 103.77 62.6403 101.789 65.0831 101.789C67.5259 101.789 69.5054 103.77 69.5054 106.215Z" fill="#DFC904"/>
<path opacity="0.5" d="M68.3897 103.261C68.3897 103.261 70.981 106.211 68.3987 109.165C65.2721 112.295 62.1365 109.521 62.1365 109.521C62.1365 109.521 64.8402 109.422 66.5632 107.692C68.2862 105.963 68.3897 103.261 68.3897 103.261Z" fill="#CBB700"/>
<path opacity="0.25" d="M62.2804 103.266C63.0182 102.527 64.3678 102.217 64.4938 102.527C64.6152 102.838 64.4938 103.266 63.3871 104.369C62.2804 105.477 61.907 105.693 61.5471 105.481C61.1872 105.27 61.5471 104 62.2849 103.266H62.2804Z" fill="white"/>
<path opacity="0.5" d="M49.2386 143.835C49.2386 143.835 53.6608 148.63 49.2386 154.16C43.7096 160.059 37.8163 155.268 37.8163 155.268C37.8163 155.268 42.3105 154.61 45.5541 151.364C48.7977 148.117 49.2386 143.835 49.2386 143.835Z" fill="#CBB700"/>
<path opacity="0.2" d="M150.429 111.137C144.607 131.122 132.933 132.716 130.891 142.362C97.636 169.255 67.9174 150.598 52.7387 138.615C52.9456 136.49 52.2348 134.301 51.0291 131.874C50.7682 131.347 50.4803 130.798 50.1744 130.249C45.9186 122.53 37.9288 112.205 37.9288 94.0569C37.9288 75.9093 51.0786 38.2676 96.3898 38.2676C155.418 38.2811 157.496 93.2373 150.429 111.142V111.137Z" fill="black"/>
<path d="M30.4429 30.6078L36.3362 102.158H50.7051L56.9674 30.6078L44.0695 16.2248L30.4384 30.6078H30.4429Z" fill="#E5E5E5"/>
<path d="M37.8163 111.745C37.8163 108.692 40.2906 106.211 43.3452 106.211C46.3999 106.211 48.8742 108.688 48.8742 111.745V133.874C48.8742 136.927 46.3999 139.408 43.3452 139.408C40.2906 139.408 37.8163 136.931 37.8163 133.874V111.745Z" fill="#DFC904"/>
<path d="M40.7629 131.293H45.923V145.307H40.7629V131.293Z" fill="#D5C002"/>
<path d="M51.0785 148.995C51.0785 153.476 47.4481 157.11 42.9718 157.11C38.4956 157.11 34.8651 153.476 34.8651 148.995C34.8651 144.514 38.4956 140.88 42.9718 140.88C47.4481 140.88 51.0785 144.514 51.0785 148.995Z" fill="#DFC904"/>
<path d="M48.8697 139.039V132.77L37.8163 137.197V143.096L48.8697 139.039Z" fill="#8C593B"/>
<path d="M48.8697 133.14V126.871L37.8163 131.298V137.197L48.8697 133.14Z" fill="#8C593B"/>
<path d="M48.8697 127.236V120.968L37.8163 125.394V131.293L48.8697 127.236Z" fill="#8C593B"/>
<path d="M48.8697 121.337V115.069L37.8163 119.495V125.394L48.8697 121.337Z" fill="#8C593B"/>
<path d="M48.8697 115.438V109.169L37.8163 113.596V119.495L48.8697 115.438Z" fill="#8C593B"/>
<path d="M48.8697 109.534V103.266L37.8163 107.692V113.591L48.8697 109.534Z" fill="#8C593B"/>
<path d="M28.9808 105.846C28.9808 103.604 30.7938 101.789 33.0342 101.789H55.1409C57.3813 101.789 59.1943 103.604 59.1943 105.846C59.1943 108.089 57.3813 109.903 55.1409 109.903H33.0342C30.7938 109.903 28.9808 108.089 28.9808 105.846Z" fill="#DFC904"/>
<path d="M26.7675 104H61.4032V107.688H26.7675V104Z" fill="#DFC904"/>
<path opacity="0.5" d="M26.7675 105.477H61.4032V107.688H26.7675V105.477Z" fill="#CBB700"/>
<path d="M27.5008 106.215C27.5008 108.661 25.5213 110.642 23.0785 110.642C20.6357 110.642 18.6562 108.661 18.6562 106.215C18.6562 103.77 20.6357 101.789 23.0785 101.789C25.5213 101.789 27.5008 103.77 27.5008 106.215Z" fill="#DFC904"/>
<path opacity="0.5" d="M26.3851 103.261C26.3851 103.261 29.1518 106.404 26.0252 109.534C23.0785 112.114 20.1318 109.521 20.1318 109.521C20.1318 109.521 22.8356 109.422 24.5586 107.692C26.2861 105.963 26.3851 103.261 26.3851 103.261Z" fill="#CBB700"/>
<path d="M28.9808 105.477H59.1943C59.1943 107.922 57.2149 109.903 54.772 109.903H33.4031C30.9603 109.903 28.9808 107.922 28.9808 105.477Z" fill="#D5C002"/>
<path opacity="0.25" d="M20.1318 103.266C20.8696 102.527 22.2192 102.217 22.3452 102.527C22.4666 102.838 22.3452 103.266 21.2385 104.369C20.1318 105.477 19.7584 105.693 19.3985 105.481C19.0386 105.27 19.3985 104 20.1318 103.266Z" fill="white"/>
<path opacity="0.25" d="M38.0007 143.965C39.3863 142.583 41.9416 142.002 42.171 142.583C42.4005 143.164 42.171 143.965 40.0836 146.037C38.0007 148.112 37.2899 148.518 36.6151 148.121C35.9358 147.721 36.6151 145.348 38.0007 143.965Z" fill="white"/>
<path opacity="0.2" d="M37.8208 127.916C37.8208 127.916 37.7128 124.417 38.1942 121.81C38.3426 121.936 38.5046 122.048 38.6755 122.143C39.5708 122.733 40.5065 123.255 41.4782 123.71C43.3407 124.948 37.8208 127.92 37.8208 127.92V127.916Z" fill="#010101"/>
<path d="M37.8478 127.407C37.8478 127.407 36.4847 123.697 37.8028 121.328C37.9512 121.454 38.1132 121.567 38.2842 121.661C39.1794 122.251 40.1151 122.773 41.0869 123.228C42.9493 124.467 37.8433 127.412 37.8433 127.412L37.8478 127.407Z" fill="#FF48D8"/>
<path d="M141.854 150.522C140.873 155.696 142.803 161.644 147.27 165.666C151.301 169.291 154.747 171.376 154.099 174.226C153.452 177.072 137.954 181.125 125.335 170.84C112.711 160.559 113.381 151.512 113.255 147.685C130.935 141.939 141.854 150.522 141.854 150.522Z" fill="#FF48D8"/>
<path d="M154.18 111.119C148.359 131.104 136.685 132.698 134.642 142.344C101.388 169.237 71.6692 150.58 56.4905 138.597C56.6974 136.472 55.9866 134.283 54.781 131.856C54.52 131.329 54.2321 130.78 53.9262 130.226C49.6704 122.508 41.6807 112.182 41.6807 94.0344C41.6807 75.8868 54.8305 38.2451 100.142 38.2451C159.174 38.2586 161.248 93.2148 154.185 111.119H154.18Z" fill="#FF48D8"/>
<path d="M56.5131 138.102C56.7065 143.362 54.1647 151.17 49.1441 154.471C44.6139 157.452 40.8935 158.992 41.1094 161.906C41.3254 164.819 56.0362 171.155 70.0542 162.883C84.0723 154.611 84.7696 145.573 85.4669 141.808C68.8531 133.468 56.5131 138.098 56.5131 138.098V138.102Z" fill="#FF48D8"/>
<path d="M113.17 143.218C113.17 143.218 112.005 153.534 110.259 159.591C108.514 165.648 106.359 175.816 95.8409 175.816C85.3229 175.816 82.952 164.234 82.2232 160.05C81.4405 155.565 80.2798 142.105 80.2798 142.105C80.2798 142.105 96.4392 127.515 113.17 143.213V143.218Z" fill="#FF48D8"/>
<path d="M78.3723 111.88C79.4745 105.076 74.8633 98.6636 68.0657 97.5603C61.2726 96.4571 54.8709 101.077 53.7687 107.882C52.6666 114.686 57.2778 121.098 64.0753 122.201C70.8684 123.305 77.2701 118.685 78.3723 111.88Z" fill="white"/>
<path d="M68.8891 120.639C73.7387 120.639 77.6706 116.703 77.6706 111.844C77.6706 106.985 73.7387 103.05 68.8891 103.05C64.0394 103.05 60.1075 106.985 60.1075 111.844C60.1075 116.703 64.0394 120.639 68.8891 120.639Z" fill="url(#paint0_linear_1641_440)"/>
<path d="M74.9984 109.984C76.0916 109.984 76.9778 109.097 76.9778 108.003C76.9778 106.909 76.0916 106.022 74.9984 106.022C73.9052 106.022 73.0189 106.909 73.0189 108.003C73.0189 109.097 73.9052 109.984 74.9984 109.984Z" fill="white"/>
<path d="M102.526 120.049C109.477 120.049 115.109 114.407 115.109 107.445C115.109 100.483 109.477 94.8405 102.526 94.8405C95.5755 94.8405 89.9431 100.483 89.9431 107.445C89.9431 114.407 95.5755 120.049 102.526 120.049Z" fill="white"/>
<path d="M104.204 119.018C109.468 119.018 113.732 114.699 113.732 109.377C113.732 104.054 109.468 99.7308 104.204 99.7308C98.9406 99.7308 94.6758 104.049 94.6758 109.377C94.6758 114.704 98.9406 119.018 104.204 119.018Z" fill="url(#paint1_linear_1641_440)"/>
<path d="M110.862 107.359C112.09 107.359 113.085 106.364 113.085 105.135C113.085 103.905 112.09 102.91 110.862 102.91C109.634 102.91 108.64 103.905 108.64 105.135C108.64 106.364 109.634 107.359 110.862 107.359Z" fill="white"/>
<path d="M109.211 86.4691C109.657 86.4691 110.043 86.5006 110.439 86.5367C110.835 86.5682 111.236 86.6177 111.645 86.6763C112.063 86.7348 112.482 86.8159 112.891 86.9194C113.395 87.0365 113.876 87.2256 114.326 87.4823C114.547 87.6129 114.722 87.8156 114.817 88.0587C114.911 88.2974 114.929 88.5631 114.857 88.8152C114.79 89.0629 114.641 89.2836 114.434 89.4412C114.227 89.5988 113.975 89.6843 113.719 89.6798H113.215C112.99 89.6618 112.761 89.6528 112.531 89.6573C112.23 89.6573 111.91 89.6889 111.582 89.7339C111.254 89.7744 110.921 89.8239 110.583 89.887C110.246 89.95 109.895 90.0221 109.603 90.0986C109.13 90.2247 108.631 90.1572 108.212 89.9095C107.794 89.6663 107.488 89.2611 107.362 88.7927C107.236 88.3199 107.308 87.8201 107.551 87.4013C107.794 86.9825 108.199 86.6763 108.667 86.5502C108.824 86.5096 108.991 86.4871 109.153 86.4871L109.207 86.4736L109.211 86.4691Z" fill="#100030"/>
<path d="M63.9719 91.3595C63.6795 91.265 63.3241 91.1704 62.9912 91.0938C62.6583 91.0128 62.3164 90.9452 61.9835 90.8822C61.6596 90.8237 61.3357 90.7786 61.0073 90.7516C60.7463 90.7336 60.4809 90.7336 60.2155 90.7516L59.9051 90.7741C59.7026 90.7876 59.5047 90.7381 59.3382 90.6255C59.1718 90.5174 59.0413 90.3508 58.9783 90.1617C58.9109 89.9726 58.9109 89.7654 58.9783 89.5763C59.0413 89.3872 59.1673 89.2205 59.3337 89.108C59.7431 88.8378 60.184 88.6261 60.6519 88.482C61.0658 88.3424 61.4841 88.2344 61.871 88.1443C62.2579 88.0542 62.6718 87.9777 63.0677 87.9146C63.4636 87.8516 63.8505 87.793 64.3138 87.757H64.4308C64.7097 87.73 64.9886 87.766 65.2496 87.8606C65.5105 87.9552 65.7489 88.1083 65.9424 88.3064C66.1358 88.5045 66.2843 88.7432 66.3742 89.0089C66.4642 89.2701 66.4957 89.5538 66.4642 89.8285C66.4327 90.1031 66.3383 90.3733 66.1898 90.6075C66.0413 90.8417 65.8434 91.0443 65.6095 91.1929C65.3755 91.3415 65.1101 91.4361 64.8312 91.4676C64.5568 91.4991 64.2733 91.4676 64.0124 91.382L63.9764 91.3595H63.9719Z" fill="#100030"/>
<path d="M71.3993 126.822C71.3993 126.822 73.5587 124.25 75.0028 125.385C76.4469 126.52 76.0555 127.623 75.0028 127.281C73.9501 126.939 71.7547 128.357 71.3993 126.822Z" fill="#100030"/>
<path d="M7.95371 25.9741L7.15744 29.4415C6.62209 31.7606 4.84959 33.7915 2.25382 35.0749L1.92542 35.237L3.15357 36.007C5.1555 37.2589 6.53211 38.9926 7.02248 40.929L7.96721 44.626L8.44407 40.965C8.68251 39.0827 9.7622 37.3129 11.4807 35.9485L12.2995 35.3045C9.97814 33.8455 8.53405 31.7246 8.30461 29.4415L7.96271 25.9741H7.94921H7.95371Z" fill="white"/>
<path d="M194.066 86.0278L192.977 90.7066C192.249 93.8362 189.824 96.5787 186.279 98.3169L185.829 98.533L187.507 99.5732C190.242 101.262 192.123 103.604 192.789 106.22L194.08 111.209L194.732 106.265C195.06 103.725 196.536 101.338 198.88 99.4922L199.995 98.6231C196.824 96.6552 194.853 93.7867 194.543 90.7021L194.08 86.0233H194.062L194.066 86.0278Z" fill="white"/>
<path d="M18.3683 36.1466L17.9364 38.0334C17.6395 39.2988 16.6588 40.4111 15.2372 41.1046L15.0527 41.1946L15.723 41.6134C16.8297 42.2979 17.581 43.2391 17.8509 44.2973L18.3728 46.3102L18.6337 44.3063C18.7687 43.2841 19.3625 42.3159 20.3072 41.5774L20.7616 41.2262C19.484 40.4291 18.6877 39.2673 18.5617 38.0289L18.3683 36.1421H18.3548L18.3683 36.1466Z" fill="white"/>
<path d="M189.145 71.9961L188.713 73.8829C188.416 75.1482 187.44 76.2605 186.013 76.954L185.833 77.0441L186.504 77.4629C187.611 78.1473 188.362 79.0885 188.636 80.1467L189.158 82.1596L189.419 80.1557C189.554 79.1335 190.148 78.1653 191.093 77.4268L191.547 77.0756C190.274 76.2785 189.473 75.1167 189.347 73.8784L189.154 71.9915H189.14L189.145 71.9961Z" fill="white"/>
<path d="M178.919 85.4604L178.487 87.3472C178.19 88.6126 177.214 89.7249 175.788 90.4184L175.603 90.5084L176.274 90.9272C177.376 91.6117 178.132 92.5529 178.402 93.6111L178.928 95.624L179.189 93.6201C179.324 92.5979 179.918 91.6297 180.862 90.8867L181.317 90.5355C180.044 89.7384 179.243 88.5766 179.117 87.3382L178.923 85.4514H178.91L178.919 85.4604Z" fill="white"/>
<path d="M14.7693 16.2248L14.3374 18.1116C14.0405 19.3725 13.0598 20.4892 11.6382 21.1827L11.4537 21.2728L12.124 21.6961C13.2307 22.3806 13.982 23.3217 14.2519 24.3799L14.7738 26.3928L15.0347 24.389C15.1697 23.3667 15.7635 22.3986 16.7083 21.6601L17.1626 21.3088C15.885 20.5118 15.0887 19.35 14.9627 18.1116L14.7693 16.2248Z" fill="white"/>
<path d="M189.851 122.206C189.896 117.185 186.184 112.934 181.209 112.295L177.308 111.795C172.598 111.196 168.118 109.363 164.33 106.499L156.407 100.505C153.542 98.3439 149.691 98.0106 146.501 99.6543L137.675 104.211C133.45 106.391 128.731 107.431 123.985 107.224L120.053 107.053C115.042 106.837 110.664 110.394 109.855 115.352C106.804 134.009 103.975 177.396 140.059 191.144C142.34 192.014 144.828 192.225 147.221 191.757C185.109 184.345 189.693 141.11 189.855 122.206H189.846H189.851Z" fill="#18F0B8"/>
<path d="M189.851 122.206C189.896 117.185 186.184 112.934 181.209 112.295L177.308 111.795C172.598 111.196 168.118 109.363 164.33 106.499L156.407 100.505C153.542 98.3439 149.691 98.0106 146.501 99.6543L137.675 104.211C133.45 106.391 128.731 107.431 123.985 107.224L120.053 107.053C115.042 106.837 110.664 110.394 109.855 115.352C106.804 134.009 103.975 177.396 140.059 191.144C142.34 192.014 144.828 192.225 147.221 191.757C185.109 184.345 189.693 141.11 189.855 122.206H189.846H189.851Z" fill="#5840FF"/>
<path d="M140.257 126.502C144.198 124.957 148.521 124.687 152.619 125.732C156.439 126.705 159.885 128.767 162.544 131.667C162.868 132.023 162.823 132.572 162.454 132.878L162.31 132.977C162.004 133.144 161.63 133.113 161.347 132.905L161.216 132.788C158.945 130.334 156.052 128.537 152.84 127.596L152.192 127.421C148.445 126.466 144.49 126.714 140.887 128.123L140.221 128.402C136.91 129.852 134.085 132.243 132.114 135.288L131.759 135.859C130.04 138.732 129.132 142.015 129.132 145.361C129.132 145.843 128.763 146.248 128.286 146.271L128.11 146.262C127.768 146.208 127.49 145.955 127.418 145.618L127.4 145.442C127.386 141.754 128.38 138.134 130.274 134.968L130.666 134.342C132.825 131.014 135.911 128.398 139.533 126.808L140.266 126.506L140.257 126.502Z" fill="#8AE6FC"/>
<path d="M166.781 142.412C166.309 142.484 165.985 142.929 166.035 143.407L166.093 144.091C166.331 147.527 165.607 150.967 163.988 154.03C162.125 157.551 159.183 160.379 155.589 162.09C152.219 163.698 148.449 164.243 144.778 163.671L144.045 163.54C140.423 162.824 137.108 161.045 134.516 158.434C134.179 158.091 133.63 158.064 133.275 158.389C132.919 158.713 132.888 159.262 133.225 159.604L133.77 160.136C136.532 162.73 139.969 164.508 143.707 165.247L144.508 165.391C148.26 165.976 152.102 165.495 155.593 164L156.335 163.666C160.02 161.91 163.083 159.082 165.13 155.561L165.526 154.849C167.425 151.256 168.198 147.176 167.753 143.146C167.699 142.668 167.254 142.344 166.781 142.416V142.412Z" fill="#8AE6FC"/>
<path d="M161.941 130.019C163.142 129.929 164.361 130.51 165.054 131.64L165.405 132.212C165.706 132.027 166.111 132.131 166.305 132.446C166.498 132.761 166.408 133.171 166.107 133.356L160.609 136.729C160.303 136.913 159.903 136.81 159.709 136.494C159.516 136.179 159.606 135.769 159.907 135.585L159.556 135.013C158.796 133.775 158.918 132.266 159.727 131.212C159.916 130.965 160.173 130.78 160.438 130.618C160.902 130.334 161.396 130.064 161.941 130.023V130.019Z" fill="#33D3F9"/>
<path d="M164.433 134.382L165.508 133.725L166.466 135.292C166.597 135.508 166.466 135.832 166.169 136.013C165.873 136.197 165.526 136.166 165.391 135.95L164.433 134.382ZM161.207 136.364L162.283 135.706L163.241 137.273C163.371 137.49 163.241 137.814 162.944 137.994C162.647 138.179 162.301 138.147 162.166 137.931L161.207 136.364Z" fill="#B2EEFD"/>
<path d="M133.752 153.102C134.049 152.904 134.453 152.994 134.66 153.305C134.867 153.615 134.791 154.025 134.494 154.219L134.863 154.777C135.664 155.988 135.601 157.502 134.827 158.582C134.647 158.834 134.395 159.028 134.139 159.204C133.684 159.505 133.203 159.789 132.659 159.852C131.462 159.987 130.22 159.447 129.491 158.344L129.123 157.785C128.826 157.983 128.421 157.893 128.214 157.583C128.007 157.272 128.083 156.862 128.38 156.668L133.756 153.102H133.752Z" fill="#33D3F9"/>
<path d="M130.013 155.583L128.961 156.281L127.948 154.75C127.809 154.538 127.93 154.21 128.223 154.021C128.515 153.827 128.862 153.845 129.001 154.057L130.013 155.588V155.583ZM133.167 153.489L132.114 154.187L131.102 152.656C130.963 152.444 131.084 152.116 131.376 151.927C131.669 151.733 132.015 151.751 132.155 151.963L133.167 153.494V153.489Z" fill="#B2EEFD"/>
<path d="M142.403 157.434C142.2 157.416 141.989 157.339 141.813 157.213C141.355 156.871 141.202 156.241 141.463 155.732L145.754 147.171L139.344 146.87C138.885 146.852 138.489 146.559 138.318 146.136C138.147 145.703 138.237 145.217 138.556 144.884L150.55 131.991C150.932 131.577 151.549 131.496 152.017 131.802C152.489 132.099 152.678 132.703 152.484 133.23L149.403 141.326L156.128 141.79C156.565 141.817 156.992 142.119 157.141 142.56C157.298 143.001 157.181 143.492 156.857 143.816L143.321 157.11C143.073 157.353 142.736 157.47 142.412 157.438H142.403V157.434Z" fill="#FF48D8"/>
<path opacity="0.5" d="M189.855 122.206C189.9 117.185 186.189 112.934 181.213 112.295L177.313 111.795C172.603 111.196 168.122 109.363 164.334 106.499L156.412 100.505C154.981 99.4201 153.303 98.7987 151.58 98.6501L143.599 191.955C144.801 192.059 146.029 191.995 147.23 191.757C185.118 184.345 189.702 141.11 189.864 122.206H189.855Z" fill="#2D19BE"/>
<path opacity="0.25" fill-rule="evenodd" clip-rule="evenodd" d="M180.669 118.761L173.489 117.541C169.049 116.969 164.833 115.24 161.261 112.538L154.293 107.26C153.978 107.021 153.713 106.814 153.465 106.625C153.155 106.386 152.876 106.17 152.574 105.945C152.066 105.576 151.675 105.328 151.324 105.171C150.995 105.027 150.73 104.973 150.469 104.986C150.208 104.995 149.844 105.072 149.335 105.333L139.717 110.678L139.694 110.691C135.727 112.74 131.291 113.727 126.828 113.542L119.99 113.785H119.923C117.943 113.695 117.192 114.109 116.787 114.573C116.27 115.172 115.865 116.343 115.653 118.761C114.902 127.461 114.124 141.115 117.151 154.021C120.165 166.891 126.891 178.765 140.995 184.421L141.076 184.453C143.185 185.259 144.648 185.817 146.132 185.525C162.049 182.408 171.19 171.641 176.472 159.366C181.771 147.054 183.094 133.387 183.377 124.953C183.377 124.863 183.377 124.773 183.377 124.687C183.386 123.679 183.395 122.823 183.35 122.057C183.305 121.215 183.202 120.616 183.035 120.171C182.887 119.765 182.689 119.509 182.419 119.315C182.126 119.103 181.618 118.883 180.709 118.766H180.673L180.669 118.761ZM185.141 124.989C185.141 124.89 185.141 124.791 185.141 124.692C185.181 120.432 185.204 117.559 180.93 117.009L173.75 115.789C169.602 115.262 165.666 113.646 162.328 111.124L155.359 105.846C155.089 105.643 154.833 105.445 154.585 105.252C152.498 103.631 151.004 102.473 148.498 103.77L138.88 109.115C135.164 111.034 131.007 111.952 126.833 111.768L119.995 112.011C115.586 111.822 114.304 113.736 113.885 118.608C112.378 136.058 110.669 174.186 140.342 186.074C140.45 186.114 140.558 186.155 140.662 186.195C142.56 186.925 144.468 187.655 146.465 187.263C179.805 180.733 184.569 142.02 185.141 124.989Z" fill="black"/>
<path fill-rule="evenodd" clip-rule="evenodd" d="M184.97 123.525L184.983 122.165C185.006 119.617 183.125 117.46 180.597 117.135L176.701 116.636C171.145 115.929 165.868 113.767 161.405 110.394L153.483 104.405C152.111 103.369 150.271 103.212 148.741 104L139.919 108.557C134.948 111.119 129.383 112.353 123.787 112.105L119.86 111.934C117.313 111.826 115.091 113.632 114.682 116.145C113.197 125.223 111.834 140.007 115.046 154.003C118.222 167.832 125.726 180.463 141.809 186.592C143.239 187.137 144.801 187.272 146.303 186.979C163.187 183.678 172.729 172.506 178.208 159.415C183.485 146.807 184.799 132.788 184.979 123.534L184.97 123.525ZM189.86 122.206C189.698 141.11 185.114 184.345 147.225 191.757C144.828 192.225 142.34 192.013 140.063 191.144C103.975 177.396 106.809 134.009 109.859 115.352C110.669 110.394 115.046 106.837 120.058 107.053L123.989 107.224C128.736 107.436 133.459 106.391 137.679 104.211L146.506 99.6543C149.7 98.0106 153.546 98.3394 156.412 100.505L164.334 106.499C168.126 109.363 172.603 111.196 177.313 111.795L181.213 112.295C186.189 112.934 189.896 117.185 189.855 122.206H189.864H189.86Z" fill="#D9DDFF"/>
</g>
<defs>
<linearGradient id="paint0_linear_1641_440" x1="77.1937" y1="111.844" x2="59.8556" y2="111.844" gradientUnits="userSpaceOnUse">
<stop/>
<stop offset="0.45" stop-color="#100030"/>
<stop offset="0.84" stop-color="#180070"/>
<stop offset="1"/>
</linearGradient>
<linearGradient id="paint1_linear_1641_440" x1="113.211" y1="109.372" x2="94.3969" y2="109.372" gradientUnits="userSpaceOnUse">
<stop/>
<stop offset="0.45" stop-color="#100030"/>
<stop offset="0.84" stop-color="#180070"/>
<stop offset="1"/>
</linearGradient>
<clipPath id="clip0_1641_440">
<rect width="200" height="192" fill="white"/>
</clipPath>
</defs>
</svg>
