<svg width="256" height="31" viewBox="0 0 256 31" fill="none" xmlns="http://www.w3.org/2000/svg">
  <path
    d="M27.6573 29.9669V18.0518H23.5745C23.5745 22.7657 22.7404 26.1258 17.4719 26.1258H12.6876V6.61876C12.6876 5.5267 13.3024 4.8733 14.3996 4.8733H17.122V1.03217H0V4.87238H2.72242C3.81961 4.87238 4.43353 5.5267 4.43353 6.61784V24.3794C4.43353 25.4705 3.81961 26.1249 2.72151 26.1249H0.0438511V29.9651H27.6573V29.9669ZM41.58 1.0847L34.1828 22.9049C33.2967 25.5682 32.6773 26.1783 31.127 26.1783H29.6196V30.0185H42.6425V26.1783H41.3571C40.1612 26.1783 38.6118 26.0474 38.6118 25.3489C38.6118 24.7388 38.789 24.0836 39.276 22.5565L39.8077 20.8101H48.8428L49.7737 23.9527C49.951 24.607 49.9948 25.0872 49.9948 25.524C49.9948 26.0041 48.8876 26.1783 47.5593 26.1783H46.23V30.0185H62.3992V26.1783H60.8937C59.3433 26.1783 58.723 25.5673 57.8369 22.9049L50.4397 1.0847H41.58ZM44.1471 7.80207H44.2403L47.5465 17.1008H40.8875L44.148 7.80207H44.1471ZM94.3392 0.484749H90.7215L89.9359 2.55738C87.4519 0.969499 84.6189 0 81.6544 0C75.6386 0 69.1441 1.98416 69.1441 9.26C69.1441 21.9133 88.0201 16.7994 88.0201 23.1049C88.0201 25.6189 85.2739 26.8971 83.0065 26.8971C77.8631 26.8971 74.0691 23.679 73.5036 19.0508H69.4492V30.6028H73.1107L74.2436 28.2666C76.9897 30.2941 80.3919 31 83.7474 31C89.7632 31 95.7772 28.6186 95.7772 21.564C95.7772 8.99643 76.903 13.4504 76.903 7.89607C76.903 4.94057 79.2563 4.10378 81.785 4.10378C85.6211 4.10378 89.6755 6.70539 90.3287 11.3345H94.3392V0.488436L94.3402 0.485671L94.3392 0.484749ZM101.328 12.115C101.328 7.66383 102.624 4.87238 107.591 4.87238V24.3803C107.591 25.4715 106.987 26.1258 105.907 26.1258H103.228V29.966H119.99V26.1258H117.399C116.319 26.1258 115.714 25.4715 115.714 24.3794V4.8733C120.682 4.8733 121.977 7.66568 121.977 12.1197H125.994V1.03309H97.3129V12.1197H101.33L101.328 12.115ZM133.258 1.0847L125.861 22.9049C124.975 25.5682 124.355 26.1783 122.805 26.1783H121.299V30.0185H134.321V26.1783H133.036C131.84 26.1783 130.291 26.0474 130.291 25.3489C130.291 24.7388 130.468 24.0836 130.955 22.5565L131.487 20.8101H140.522L141.453 23.9527C141.63 24.607 141.674 25.0872 141.674 25.524C141.674 26.0041 140.567 26.1783 139.237 26.1783H137.909V30.0185H154.078V26.1783H152.573C151.021 26.1783 150.402 25.5673 149.516 22.9049L142.116 1.0847H133.259H133.258ZM135.827 7.80207H135.918L139.225 17.1008H132.566L135.827 7.80207ZM155.701 1.03401V4.87422H158.345C159.446 4.87422 160.064 5.52854 160.064 6.61969V24.3794C160.064 25.4715 159.446 26.1258 158.345 26.1258H155.701V29.9651H168.438V26.1267H166.588C165.486 26.1267 164.869 25.4724 164.869 24.3803V5.52946H164.957L171.831 29.966H178.266L185.184 5.96537H185.273V24.3785C185.273 25.4705 184.656 26.1249 183.553 26.1249H181.703V29.9641H197.699V26.1249H195.275C194.174 26.1249 193.556 25.4705 193.556 24.3794V6.61876C193.556 5.52762 194.173 4.8733 195.275 4.8733H197.699V1.03217H182.009L176.809 18.7937H176.721L171.656 1.03217H155.701V1.03401ZM203.562 24.4319C203.562 25.5231 202.95 26.1774 201.858 26.1774H199.193V30.0185H216.404V26.1774H213.478C212.385 26.1774 211.773 25.5231 211.773 24.4319V17.5358H216.579C224.617 17.5358 228.855 15.2668 228.855 9.28949C228.855 3.31123 224.617 1.0847 217.454 1.0847H199.148V4.92583H201.857C202.949 4.92583 203.56 5.58015 203.56 6.67129V24.4319H203.562ZM211.953 4.70281H216.328C218.731 4.70281 220.661 6.40772 220.661 9.11624C220.661 11.8257 218.644 13.4845 215.642 13.4845H211.953V4.70189V4.70281ZM235.181 1.0847L227.784 22.9049C226.897 25.5682 226.278 26.1783 224.728 26.1783H223.22V30.0185H236.243V26.1783H234.959C233.763 26.1783 232.214 26.0474 232.214 25.3489C232.214 24.7388 232.39 24.0836 232.878 22.5565L233.409 20.8101H242.445L243.375 23.9527C243.553 24.607 243.597 25.0872 243.597 25.524C243.597 26.0041 242.488 26.1783 241.16 26.1783H239.832V30.0185H256V26.1783H254.494C252.944 26.1783 252.324 25.5673 251.438 22.9049L244.041 1.0847H235.18H235.181ZM237.749 7.80207H237.841L241.147 17.1008H234.489L237.749 7.80207Z"
    fill="white" />
</svg>