<svg width="197" height="111" viewBox="0 0 197 111" fill="none" xmlns="http://www.w3.org/2000/svg">
    <path
        d="M174.574 5.66504V101.332C174.574 103.998 172.408 106.332 169.576 106.332H28.3245C25.6594 106.332 23.3274 104.165 23.3274 101.332V5.66504C23.3274 2.99837 25.4928 0.665039 28.3245 0.665039H169.576C172.242 0.831706 174.574 2.99837 174.574 5.66504Z"
        fill="#5840FF" />
    <path d="M169.243 5.99805H28.4912V95.498H169.243V5.99805Z" fill="#180048" />
    <path opacity="0.5"
        d="M174.574 98.998V101.331C174.574 103.998 172.408 106.331 169.576 106.331H28.3245C25.6594 106.331 23.3274 104.165 23.3274 101.331V98.998H174.574Z"
        fill="#2D1A83" />
    <path
        d="M187.066 101.998V106.665C187.066 106.998 187.066 107.331 186.9 107.665C186.4 109.331 184.901 110.665 183.069 110.665H13.6664C11.8341 110.665 10.335 109.498 9.83528 107.665C9.6687 107.331 9.6687 106.998 9.6687 106.665V101.998H187.066Z"
        fill="#5840FF" />
    <path opacity="0.5"
        d="M186.9 107.665C186.4 109.332 184.901 110.665 183.069 110.665H13.6663C11.8341 110.665 10.3349 109.498 9.83521 107.665H186.9Z"
        fill="#2D1A83" />
    <path
        d="M116.607 101.998V102.498C116.607 103.165 116.107 103.665 115.441 103.665H81.2942C80.6279 103.665 80.1282 103.165 80.1282 102.498V101.998H116.607Z"
        fill="#6675F6" />
    <path
        d="M137.428 69.3314H59.3067C55.4756 69.3314 52.4773 66.3314 52.4773 62.4981V49.8314C52.4773 45.9981 55.4756 42.998 59.3067 42.998H137.428C141.259 42.998 144.258 45.9981 144.258 49.8314V62.4981C144.258 66.1647 141.093 69.3314 137.428 69.3314Z"
        fill="#100030" />
    <path
        d="M144.258 46.8317V62.9984C144.258 65.8317 141.926 68.165 139.094 68.165H57.4745C54.6428 68.165 52.3108 65.8317 52.3108 62.9984V46.8317C52.3108 43.9984 54.6428 41.665 57.4745 41.665H139.094C140.427 41.665 141.593 42.165 142.425 42.9984C143.591 43.9984 144.258 45.3317 144.258 46.8317Z"
        fill="#F050F8" />
    <path
        d="M94.4531 36.165C93.1205 34.665 91.6214 33.165 90.2888 31.665C89.7891 31.165 88.9563 31.165 88.4566 31.665C87.9569 32.165 87.9569 32.9984 88.4566 33.4984C89.9557 34.9984 91.2883 36.4984 92.6208 37.9984C93.1206 38.4984 93.9534 38.4984 94.4531 37.9984C94.7863 37.3317 94.7863 36.665 94.4531 36.165Z"
        fill="#60F0F8" />
    <path
        d="M100.117 36.6647C100.117 34.998 100.117 33.3314 100.117 31.8314C100.117 31.1647 99.6168 30.498 98.784 30.498C98.1177 30.498 97.618 30.998 97.4514 31.8314C97.4514 33.498 97.4514 35.1647 97.4514 36.6647C97.4514 37.3314 97.9511 37.998 98.784 37.998C99.4503 37.8314 100.117 37.3314 100.117 36.6647Z"
        fill="#60F0F8" />
    <path
        d="M104.947 37.9984C106.28 36.665 107.779 35.3317 109.111 33.9984C109.611 33.4984 109.611 32.665 109.111 32.165C108.612 31.665 107.779 31.665 107.279 32.165C105.946 33.4984 104.447 34.8317 103.115 36.165C102.615 36.665 102.615 37.4984 103.115 37.9984C103.614 38.4984 104.447 38.4984 104.947 37.9984Z"
        fill="#60F0F8" />
    <path
        d="M102.782 74.1649C104.114 75.6649 105.613 77.1649 106.946 78.6649C107.446 79.1649 108.279 79.1649 108.778 78.6649C109.278 78.1649 109.278 77.3315 108.778 76.8315C107.279 75.3315 105.947 73.8315 104.614 72.3315C104.114 71.8315 103.281 71.8315 102.782 72.3315C102.282 72.8315 102.282 73.6649 102.782 74.1649Z"
        fill="#60F0F8" />
    <path
        d="M97.2849 73.9984C97.2849 75.665 97.2849 77.3317 97.2849 78.8317C97.2849 79.4984 97.7846 80.165 98.6175 80.165C99.2838 80.165 99.7835 79.665 99.95 78.8317C99.95 77.165 99.95 75.4984 99.95 73.9984C99.95 73.3317 99.4503 72.665 98.6175 72.665C97.9512 72.665 97.2849 73.165 97.2849 73.9984Z"
        fill="#60F0F8" />
    <path
        d="M92.7873 72.1647C91.4548 73.498 89.9556 74.8314 88.6231 76.1647C88.1234 76.6647 88.1234 77.498 88.6231 77.998C89.1228 78.498 89.9556 78.498 90.4553 77.998C91.7879 76.6647 93.2871 75.3314 94.6196 73.998C95.1193 73.498 95.1193 72.6647 94.6196 72.1647C94.1199 71.8314 93.2871 71.6647 92.7873 72.1647Z"
        fill="#60F0F8" />
    <path
        d="M52.4773 62.6649V46.4982C52.4773 43.6649 54.8093 41.3315 57.641 41.3315H139.261C142.092 41.3315 144.424 43.6649 144.424 46.4982V46.9982C142.925 43.8315 138.761 44.3315 133.597 44.1649C128.6 43.9982 83.626 43.9982 69.3009 44.1649C55.1424 44.3315 54.8093 41.1649 54.4761 51.4982C54.3096 57.6649 54.3096 62.9982 54.143 66.3316C53.1436 65.4982 52.4773 64.1649 52.4773 62.6649Z"
        fill="#F0FFFF" fill-opacity="0.3" />
    <path opacity="0.2"
        d="M140.427 78.8314L143.758 82.6647C143.925 82.9981 144.424 82.9981 144.591 82.6647L147.09 80.4981C147.423 80.3314 147.423 79.8314 147.09 79.4981L143.758 76.1647C143.425 75.8314 143.592 75.4981 143.758 75.1647L147.756 71.6647C148.089 71.3314 148.089 70.8314 147.589 70.6647L129.933 61.4981C129.433 61.1647 128.933 61.6647 128.933 62.1647L133.764 81.9981C133.93 82.4981 134.43 82.6647 134.763 82.3314L139.094 78.6647C139.927 78.4981 140.26 78.4981 140.427 78.8314Z"
        fill="#100030" />
    <path
        d="M141.093 77.8316L144.424 81.6649C144.591 81.9982 145.091 81.9982 145.257 81.6649L147.756 79.4982C148.089 79.3316 148.089 78.8316 147.756 78.4982L144.424 75.1649C144.091 74.8316 144.258 74.4982 144.424 74.1649L148.589 70.8316C148.922 70.4982 148.922 69.9982 148.422 69.8316L130.766 60.8316C130.266 60.4982 129.766 60.9982 129.766 61.4982L134.597 81.3316C134.763 81.8316 135.263 81.9982 135.596 81.6649L139.927 77.9982C140.427 77.6649 140.926 77.6649 141.093 77.8316Z"
        fill="#60F0F8" />
    <path
        d="M4.47611 19.2664L4.46313 3.8182L4.5051 3.80566L8.61674 12.4321L14.5797 9.97046L15.6214 26.1297L15.5767 26.1433L10.4358 16.8078L4.47611 19.2664Z"
        fill="#FFA26B" />
    <path
        d="M2.24058 34.2504L7.25789 28.3817L7.27789 28.3906L6.03429 33.0046L9.09823 34.0123L4.24033 40.486L4.21891 40.4766L5.30229 35.2582L2.24058 34.2504Z"
        fill="#60F0F8" />
    <path
        d="M186.344 17.6498L194.76 10.5068L194.787 10.5211L192.108 16.4699L196.386 18.1806L188.089 26.1432L188.059 26.1282L190.618 19.36L186.344 17.6498Z"
        fill="#18F0B8" />
</svg>