<svg width="125" height="118" viewBox="0 0 125 118" fill="none" xmlns="http://www.w3.org/2000/svg">
    <rect x="3.3667" y="82.3257" width="118" height="35" fill="#5840FF" />
    <rect x="0.366699" y="82.3257" width="124" height="5" fill="#6675F6" />
    <rect x="0.366699" y="52.3257" width="124" height="30" fill="#5840FF" />
    <rect x="31.3667" y="65.3257" width="61" height="7" fill="#180048" />
    <path
        d="M80.4165 14.3287L43.8774 14.3538C41.4775 14.3555 39.5282 16.2898 39.5236 18.6742L39.375 95.357C39.3704 97.7414 41.3122 99.673 43.7121 99.6713L80.2512 99.6462C82.6511 99.6445 84.6004 97.7103 84.605 95.3258L84.7536 18.643C84.7582 16.2586 82.8164 14.327 80.4165 14.3287Z"
        fill="#18F0B8" />
    <path
        d="M70.0005 18.2118L54.9448 18.2222C54.5523 18.2225 54.2334 18.5388 54.2327 18.9289C54.2319 19.3189 54.5495 19.6348 54.9421 19.6346L69.9978 19.6242C70.3903 19.6239 70.7091 19.3075 70.7099 18.9175C70.7106 18.5275 70.393 18.2116 70.0005 18.2118Z"
        fill="#180048" />
    <path
        d="M74.669 18.9404C74.6689 19.0831 74.6404 19.2245 74.5852 19.3565C74.5301 19.4885 74.4493 19.6084 74.3475 19.7094C74.2457 19.8104 74.1249 19.8905 73.992 19.9452C73.8591 19.9999 73.7168 20.028 73.5731 20.0279C73.4893 20.0279 73.4057 20.0184 73.3241 19.9996C73.1298 19.9546 72.9515 19.858 72.8083 19.7201C72.6877 19.6017 72.5961 19.4573 72.5406 19.298C72.5009 19.1834 72.4808 19.063 72.4813 18.9418C72.4814 18.799 72.5099 18.6576 72.5651 18.5257C72.6202 18.3937 72.701 18.2738 72.8028 18.1728C72.9046 18.0718 73.0254 17.9916 73.1583 17.937C73.2912 17.8823 73.4336 17.8542 73.5773 17.8542C73.7101 17.8538 73.8418 17.8778 73.9656 17.9252C74.1176 17.9815 74.2547 18.0713 74.3666 18.1879C74.5076 18.3345 74.6043 18.5175 74.6459 18.7162C74.6616 18.7899 74.6693 18.865 74.669 18.9404V18.9404Z"
        fill="#180048" />
    <path opacity="0.2"
        d="M74.3667 18.1878L72.8084 19.72C72.6877 19.6016 72.5961 19.4572 72.5406 19.2979L73.9657 17.9252C74.1177 17.9814 74.2548 18.0713 74.3667 18.1878V18.1878Z"
        fill="#F7F7F7" />
    <path opacity="0.2"
        d="M74.6691 18.9403C74.6689 19.0831 74.6404 19.2245 74.5853 19.3564C74.5301 19.4884 74.4493 19.6083 74.3475 19.7093C74.2457 19.8103 74.1249 19.8905 73.992 19.9451C73.8592 19.9998 73.7168 20.0279 73.5731 20.0279C73.4893 20.0278 73.4058 20.0183 73.3241 19.9996L74.646 18.7162C74.6616 18.7899 74.6694 18.865 74.6691 18.9403V18.9403Z"
        fill="#F7F7F7" />
    <path
        d="M62.2076 97.8582C61.5722 97.8579 60.9636 97.6073 60.5152 97.1612C60.0668 96.7152 59.8153 96.1101 59.8158 95.4789C59.8178 94.8476 60.0716 94.2423 60.5218 93.7956C60.9719 93.349 61.5816 93.0975 62.2169 93.0964C62.8522 93.0966 63.4608 93.3473 63.9092 93.7933C64.3576 94.2394 64.6091 94.8444 64.6086 95.4756C64.6067 96.1068 64.3528 96.7122 63.9027 97.1589C63.4526 97.6056 62.8429 97.8571 62.2076 97.8582V97.8582ZM62.2158 93.6146C61.7187 93.6155 61.2418 93.8122 60.8896 94.1617C60.5375 94.5111 60.3388 94.9847 60.3373 95.4786C60.3369 95.9724 60.5337 96.4458 60.8845 96.7948C61.2353 97.1438 61.7115 97.3399 62.2086 97.3401C62.7057 97.3392 63.1826 97.1424 63.5348 96.7929C63.8869 96.4435 64.0855 95.9698 64.087 95.476C64.0874 94.9821 63.8906 94.5088 63.5399 94.1599C63.1891 93.8109 62.713 93.6148 62.2159 93.6145L62.2158 93.6146Z"
        fill="#13C093" />
    <path
        d="M80.3138 22.7118L43.9463 22.7368C42.932 22.7375 42.1081 23.555 42.1062 24.5628L41.9799 89.7322C41.978 90.74 42.7987 91.5564 43.813 91.5557L80.1805 91.5307C81.1948 91.53 82.0187 90.7124 82.0206 89.7047L82.1469 24.5353C82.1488 23.5275 81.3281 22.7111 80.3138 22.7118Z"
        fill="#100030" />
    <rect x="49.3667" y="33.3256" width="27" height="2" fill="#F050F8" />
    <rect x="49.3667" y="39.3256" width="27" height="2" fill="#F050F8" />
    <rect x="49.3667" y="45.3256" width="27" height="2" fill="#F050F8" />
    <rect x="49.3667" y="56.3256" width="27" height="2" fill="#F050F8" />
    <rect x="49.3667" y="62.3256" width="27" height="2" fill="#F050F8" />
    <rect x="49.3667" y="68.3256" width="27" height="2" fill="#F050F8" />
    <rect x="31.3667" y="72.3257" width="65" height="10" fill="#5840FF" />
    <rect x="31.3667" y="87.3257" width="65" height="16" fill="#5840FF" />
    <rect x="31.3667" y="82.3257" width="64" height="5" fill="#6675F6" />
    <path
        d="M85.0235 8.16692C85.0431 6.25118 84.9395 4.22733 84.9592 2.31159C84.9246 1.63698 84.3079 1.09641 83.6024 1.12234C82.8969 1.14827 82.3377 1.73207 82.3723 2.40668C82.4759 4.43053 82.4562 6.34627 82.4366 8.26201C82.4711 8.93662 83.0878 9.47719 83.7933 9.45126C84.4873 9.20045 84.9347 8.73342 85.0235 8.16692Z"
        fill="#FFA26B" />
    <path
        d="M88.8818 12.1943C90.0002 11.0265 91.1187 9.85877 92.1253 8.80779C92.5726 8.34069 92.6499 7.54922 92.0332 7.00862C91.5398 6.57613 90.8342 6.60209 90.1516 7.07785C89.0331 8.2456 87.9147 9.41335 86.9081 10.4643C86.4607 10.9314 86.3834 11.7229 87.0002 12.2635C87.6054 12.5792 88.4344 12.6614 88.8818 12.1943Z"
        fill="#FFA26B" />
    <path
        d="M91.5657 16.2634C93.4471 16.1942 95.4518 16.2332 97.3332 16.164C98.0387 16.1381 98.5979 15.5543 98.5633 14.8797C98.5288 14.205 97.912 13.6645 97.2065 13.6904C95.3251 13.7596 93.3204 13.7206 91.439 13.7898C90.7335 13.8157 90.1744 14.3995 90.2089 15.0741C90.2435 15.7487 90.8602 16.2893 91.5657 16.2634Z"
        fill="#FFA26B" />
</svg>