<svg width="140" height="31" viewBox="0 0 140 31" fill="none" xmlns="http://www.w3.org/2000/svg">
	<path fill-rule="evenodd" clip-rule="evenodd" d="M107.735 21.8038C113.522 21.8038 118.214 17.1122 118.214 11.3247C118.214 5.53717 113.522 0.845459 107.735 0.845459C101.948 0.845459 97.2559 5.53717 97.2559 11.3247L97.2558 3.72282H91.9135V30.8455H97.2558L97.2559 11.3247C97.2559 17.1122 101.948 21.8038 107.735 21.8038ZM107.735 16.5643C104.841 16.5643 102.496 14.2184 102.496 11.3247C102.496 8.43092 104.841 6.08507 107.735 6.08507C110.629 6.08507 112.975 8.43092 112.975 11.3247C112.975 14.2184 110.629 16.5643 107.735 16.5643ZM139.584 11.5302C139.584 17.4311 134.8 22.2148 128.899 22.2148C122.998 22.2148 118.214 17.4311 118.214 11.5302C118.214 5.62916 122.998 0.845459 128.899 0.845459C134.8 0.845459 139.584 5.62916 139.584 11.5302ZM123.557 11.5302C123.557 14.4806 125.949 16.8725 128.899 16.8725C131.85 16.8725 134.242 14.4806 134.242 11.5302C134.242 8.57965 131.85 6.1878 128.899 6.1878C125.949 6.1878 123.557 8.57965 123.557 11.5302ZM55.2493 9.8877H57.3282V5.32134H59.6596V9.8877H61.7385V5.32134H62.88V3.69909H61.7385V3.66303C61.7385 3.09825 62.3753 3.01413 62.7838 3.01413C62.9761 3.01413 63.1203 3.03817 63.1203 3.03817V1.28372C63.1203 1.28372 62.868 1.24767 62.4955 1.24767C61.4981 1.24767 59.6596 1.52406 59.6596 3.55488V3.69909H57.3282V3.66303C57.3282 3.09825 57.9652 3.01413 58.3737 3.01413C58.566 3.01413 58.7102 3.03817 58.7102 3.03817V1.28372C58.7102 1.28372 58.4579 1.24767 58.0854 1.24767C57.088 1.24767 55.2493 1.52406 55.2493 3.55488V3.69909H54.4923V5.32134H55.2493V9.8877ZM34.6385 9.8877C34.0257 9.8877 33.7613 9.62334 33.7613 9.01049V3.30253C33.7613 3.1343 33.6651 3.03817 33.4969 3.03817H33.0403V1.29574H34.963C35.5759 1.29574 35.8402 1.56011 35.8402 2.17296V7.88091C35.8402 8.04914 35.9363 8.14528 36.1046 8.14528H36.5612V9.8877H34.6385ZM24.9233 9.94779C23.938 9.94779 22.0273 9.68342 22.0273 7.60453V5.32134H21.2342V3.69909H22.0874V2.02876H24.1063V3.69909H25.404V5.32134H24.1063V7.32814C24.1063 8.02511 24.8152 8.12124 25.2118 8.12124C25.3799 8.12124 25.4882 8.10922 25.4882 8.10922V9.91174C25.4882 9.91174 25.2599 9.94779 24.9233 9.94779ZM3.2999 12.291H1.221V5.70588C1.221 5.53765 1.12487 5.44151 0.956636 5.44151H0.5V3.69909H2.29049C2.89133 3.69909 3.09562 3.97547 3.09562 4.23984V4.34799H3.11964C3.11964 4.34799 3.66041 3.55488 4.97023 3.55488C6.65257 3.55488 7.75811 4.87673 7.75811 6.7994C7.75811 8.75813 6.52039 10.0319 4.8741 10.0319C3.86468 10.0319 3.2999 9.50317 3.2999 9.50317H3.27587C3.27587 9.50317 3.2999 9.71947 3.2999 10.0319V12.291ZM4.45351 5.30932C3.82864 5.30932 3.23981 5.76596 3.23981 6.83545C3.23981 7.58049 3.63637 8.31351 4.45351 8.31351C5.10241 8.31351 5.6672 7.78478 5.6672 6.83545C5.6672 5.91017 5.17451 5.30932 4.45351 5.30932ZM11.8611 10.0319C9.91436 10.0319 8.3642 8.74612 8.3642 6.81142C8.3642 4.86471 9.91436 3.55488 11.8491 3.55488C13.8078 3.55488 15.3579 4.86471 15.3579 6.81142C15.3579 8.74612 13.8078 10.0319 11.8611 10.0319ZM11.8611 5.2853C11.104 5.2853 10.4551 5.87411 10.4551 6.81142C10.4551 7.73671 11.104 8.30149 11.8611 8.30149C12.6181 8.30149 13.267 7.73671 13.267 6.81142C13.267 5.87411 12.6181 5.2853 11.8611 5.2853ZM16.6057 9.8877H18.6846V7.54444C18.6846 7.20797 18.7207 6.93159 18.7928 6.70327C19.0932 5.77798 19.8983 5.62176 20.391 5.62176C20.6434 5.62176 20.8115 5.65782 20.8115 5.65782V3.61497C20.8115 3.61497 20.6914 3.59094 20.5713 3.59094C19.646 3.59094 18.8649 4.2879 18.6005 5.12907H18.5764C18.5764 5.12907 18.6005 5.00891 18.6005 4.81664V4.49219C18.6005 3.9274 18.2881 3.69909 17.7233 3.69909H15.8847V5.44151H16.3414C16.5095 5.44151 16.6057 5.53765 16.6057 5.70588V9.8877ZM26.1789 8.03713C26.1789 9.26284 27.1283 10.0319 28.2818 10.0319C29.5797 10.0319 30.0122 9.13065 30.0122 9.13065H30.0363V9.2388C30.0363 9.51518 30.2526 9.8877 30.8535 9.8877H32.656V8.14528H32.1994C32.0311 8.14528 31.9349 8.04914 31.9349 7.88091V6.0784C31.9349 4.66042 31.226 3.55488 29.0629 3.55488C28.354 3.55488 26.5995 3.62698 26.5995 5.00891V5.69386H28.5222V5.41748C28.5222 5.17715 28.7986 5.11706 29.0629 5.11706C29.5797 5.11706 29.856 5.33336 29.856 5.92218V5.99428H29.772C28.8106 5.99428 26.1789 6.19857 26.1789 8.03713ZM28.2699 7.92897C28.2699 7.43629 29.0269 7.25604 29.6878 7.25604H29.8801V7.35217C29.8801 7.85688 29.3994 8.4457 28.8586 8.4457C28.4501 8.4457 28.2699 8.21738 28.2699 7.92897ZM37.1034 6.78739C37.1034 8.43368 38.2931 10.0319 40.5042 10.0319C42.1505 10.0319 43.1479 9.04653 43.1479 9.04653L42.3187 7.65259C42.3187 7.65259 41.5616 8.30149 40.6724 8.30149C40.0115 8.30149 39.3867 7.95301 39.2304 7.17192H43.1358C43.1358 7.17192 43.1839 6.75134 43.1839 6.54705C43.1839 4.82866 42.1505 3.55488 40.3239 3.55488C38.3291 3.55488 37.1034 4.97286 37.1034 6.78739ZM39.2905 5.91017C39.4227 5.45353 39.7231 5.11706 40.3239 5.11706C40.7565 5.11706 41.0569 5.52563 41.0569 5.91017H39.2905ZM50.5047 10.0319C48.558 10.0319 47.0078 8.74612 47.0078 6.81142C47.0078 4.86471 48.558 3.55488 50.4927 3.55488C52.4515 3.55488 54.0016 4.86471 54.0016 6.81142C54.0016 8.74612 52.4514 10.0319 50.5047 10.0319ZM50.5047 5.2853C49.7477 5.2853 49.0988 5.87411 49.0988 6.81142C49.0988 7.73671 49.7477 8.30149 50.5047 8.30149C51.2617 8.30149 51.9107 7.73671 51.9107 6.81142C51.9107 5.87411 51.2617 5.2853 50.5047 5.2853ZM66.6851 10.0319C64.4741 10.0319 63.2845 8.43368 63.2845 6.78739C63.2845 4.97286 64.5101 3.55488 66.5049 3.55488C68.3314 3.55488 69.365 4.82866 69.365 6.54705C69.365 6.75134 69.3169 7.17192 69.3169 7.17192H65.4114C65.5676 7.95301 66.1925 8.30149 66.8534 8.30149C67.7427 8.30149 68.4997 7.65259 68.4997 7.65259L69.3289 9.04653C69.3289 9.04653 68.3314 10.0319 66.6851 10.0319ZM66.5049 5.11706C65.9041 5.11706 65.6037 5.45353 65.4715 5.91017H67.238C67.238 5.52563 66.9376 5.11706 66.5049 5.11706ZM70.7162 9.8877H72.7951V7.54444C72.7951 7.20797 72.8312 6.93159 72.9033 6.70327C73.2037 5.77798 74.0088 5.62176 74.5015 5.62176C74.7539 5.62176 74.9221 5.65782 74.9221 5.65782V3.61497C74.9221 3.61497 74.8019 3.59094 74.6818 3.59094C73.7565 3.59094 72.9753 4.2879 72.711 5.12907H72.687C72.687 5.12907 72.711 5.00891 72.711 4.81664V4.49219C72.711 3.9274 72.3985 3.69909 71.8338 3.69909H69.9952V5.44151H70.4519C70.6201 5.44151 70.7162 5.53765 70.7162 5.70588V9.8877ZM79.0339 9.94779C78.0485 9.94779 76.1378 9.68342 76.1378 7.60453V5.32134H75.3448V3.69909H76.198V2.02876H78.2167V3.69909H79.5145V5.32134H78.2167V7.32814C78.2167 8.02511 78.9258 8.12124 79.3223 8.12124C79.4905 8.12124 79.5987 8.10922 79.5987 8.10922V9.91174C79.5987 9.91174 79.3703 9.94779 79.0339 9.94779ZM80.1947 6.78739C80.1947 8.43368 81.3843 10.0319 83.5955 10.0319C85.2417 10.0319 86.2391 9.04653 86.2391 9.04653L85.41 7.65259C85.41 7.65259 84.6529 8.30149 83.7637 8.30149C83.1028 8.30149 82.4779 7.95301 82.3217 7.17192H86.2271C86.2271 7.17192 86.2752 6.75134 86.2752 6.54705C86.2752 4.82866 85.2417 3.55488 83.4152 3.55488C81.4205 3.55488 80.1947 4.97286 80.1947 6.78739ZM82.3817 5.91017C82.5139 5.45353 82.8143 5.11706 83.4152 5.11706C83.8478 5.11706 84.1483 5.52563 84.1483 5.91017H82.3817ZM49.7565 18.4656C49.7565 18.8614 49.9273 19.0322 50.3231 19.0322H51.5648V17.9069H51.2699C51.1613 17.9069 51.0992 17.8448 51.0992 17.7361V14.0497C51.0992 13.6539 50.9284 13.4832 50.5326 13.4832H49.2909V14.6085H49.5858C49.6945 14.6085 49.7565 14.6706 49.7565 14.7792V18.4656ZM52.3186 17.6275C52.3186 18.7528 52.9472 19.1253 53.7388 19.1253C54.2743 19.1253 54.7632 18.8614 54.9806 18.4346H54.996C54.996 18.4346 54.9883 18.489 54.9883 18.5277V18.5821C54.9883 18.8537 55.1901 19.0322 55.5548 19.0322H56.7422V17.9069H56.4473C56.3387 17.9069 56.2766 17.8448 56.2766 17.7361V15.0354H54.9339V16.8049C54.9339 17.4024 54.6623 17.9069 54.0881 17.9069C53.8086 17.9069 53.6612 17.7517 53.6612 17.3791V15.6019C53.6612 15.2061 53.4905 15.0354 53.0947 15.0354H51.853V16.1607H52.1479C52.2565 16.1607 52.3186 16.2228 52.3186 16.3314V17.6275ZM59.3112 19.1253C57.8832 19.1253 57.0839 18.1319 57.0839 17.0299C57.0839 15.9745 57.8288 14.9422 59.3422 14.9422C59.901 14.9422 60.8168 15.1596 60.8168 15.8813V16.4324H59.6527V16.2228C59.6527 16.0986 59.5052 16.0521 59.3422 16.0521C58.7757 16.0521 58.4342 16.4789 58.4342 17.0144C58.4342 17.6974 58.9464 17.969 59.4431 17.969C60.0175 17.969 60.5452 17.449 60.5452 17.449L61.0807 18.3493C61.0807 18.3493 60.452 19.1253 59.3112 19.1253ZM61.3204 17.0299C61.3204 18.0932 62.0888 19.1253 63.5168 19.1253C64.58 19.1253 65.2242 18.489 65.2242 18.489L64.6886 17.5887C64.6886 17.5887 64.1998 18.0077 63.6254 18.0077C63.1985 18.0077 62.795 17.7827 62.6941 17.2782H65.2164C65.2164 17.2782 65.2474 17.0066 65.2474 16.8747C65.2474 15.7649 64.58 14.9422 63.4003 14.9422C62.112 14.9422 61.3204 15.858 61.3204 17.0299ZM62.7329 16.4633C62.8183 16.1685 63.0124 15.9512 63.4003 15.9512C63.6798 15.9512 63.8738 16.215 63.8738 16.4633H62.7329ZM69.9134 19.1253C68.4854 19.1253 67.7171 18.0932 67.7171 17.0299C67.7171 15.858 68.5087 14.9422 69.797 14.9422C70.9766 14.9422 71.6441 15.7649 71.6441 16.8747C71.6441 17.0066 71.613 17.2782 71.613 17.2782H69.0907C69.1916 17.7827 69.5952 18.0077 70.0221 18.0077C70.5963 18.0077 71.0853 17.5887 71.0853 17.5887L71.6208 18.489C71.6208 18.489 70.9766 19.1253 69.9134 19.1253ZM69.797 15.9512C69.4089 15.9512 69.2149 16.1685 69.1295 16.4633H70.2704C70.2704 16.215 70.0763 15.9512 69.797 15.9512ZM74.1137 16.9058C74.1137 17.9302 74.7112 18.9158 75.9142 18.9158C76.3799 18.9158 76.6825 18.7916 76.9153 18.5355H76.9308C76.9308 18.5355 76.9231 18.6364 76.9231 18.683V18.7451C76.9231 19.3349 76.4807 19.5134 75.9995 19.5134C75.3709 19.5134 74.882 19.2572 74.882 19.2572L74.4939 20.305C74.882 20.5067 75.4718 20.662 76.0073 20.662C77.1016 20.662 78.2657 20.1265 78.2657 18.6674V16.3082C78.2657 16.215 78.3355 16.1607 78.4364 16.1607H78.7159V15.0354H77.5052C77.2025 15.0354 77.0783 15.2449 77.0783 15.3536V15.4079H77.0627C77.0627 15.4079 76.7213 14.9422 75.9064 14.9422C74.6958 14.9422 74.1137 15.8891 74.1137 16.9058ZM76.2323 17.7982C75.6969 17.7982 75.4641 17.3559 75.4641 16.8591C75.4641 16.4013 75.7046 16.0598 76.1781 16.0598C76.5816 16.0598 76.9541 16.215 76.9541 16.9212C76.9541 17.6198 76.5816 17.7982 76.2323 17.7982ZM80.4365 19.1253C79.6915 19.1253 79.0784 18.6286 79.0784 17.837C79.0784 16.6496 80.778 16.5177 81.3989 16.5177H81.4532V16.4712C81.4532 16.0908 81.2747 15.9512 80.941 15.9512C80.7703 15.9512 80.5917 15.99 80.5917 16.1452V16.3237H79.3501V15.8813C79.3501 14.9888 80.4831 14.9422 80.941 14.9422C82.3379 14.9422 82.7958 15.6563 82.7958 16.5721V17.7361C82.7958 17.8448 82.8579 17.9069 82.9665 17.9069H83.2615V19.0322H82.0974C81.7093 19.0322 81.5696 18.7916 81.5696 18.6132V18.5433H81.5541C81.5541 18.5433 81.2747 19.1253 80.4365 19.1253ZM81.3446 17.3326C80.9177 17.3326 80.4288 17.449 80.4288 17.7672C80.4288 17.9535 80.5452 18.1009 80.8091 18.1009C81.1583 18.1009 81.4688 17.7207 81.4688 17.3947V17.3326H81.3446ZM83.5563 18.3958C83.5563 18.3958 84.1772 19.1253 85.3258 19.1253C86.257 19.1253 86.9632 18.6364 86.9632 17.8293C86.9632 16.965 86.1239 16.6796 85.5259 16.4763C85.1948 16.3636 84.9377 16.2763 84.9377 16.1296C84.9377 16.0055 85.1084 15.9434 85.2947 15.9434C85.4888 15.9434 85.6595 16.021 85.6595 16.1296V16.3237H86.8236V15.8503C86.8236 15.1285 85.9233 14.9422 85.2714 14.9422C84.4255 14.9422 83.6261 15.3148 83.6261 16.1763C83.6261 17.036 84.5072 17.3733 85.1005 17.6003C85.4015 17.7155 85.6284 17.8024 85.6284 17.9146C85.6284 18.0544 85.5197 18.1086 85.3258 18.1086C84.7126 18.1086 84.1538 17.5344 84.1538 17.5344L83.5563 18.3958Z" fill="#F0FFFF" />
</svg>
