<svg width="261" height="52" viewBox="0 0 261 52" fill="none" xmlns="http://www.w3.org/2000/svg">
    <path
        d="M9.78376 37.847V0H7.97464L0 3.79193V4.92083L2.01175 6.90363V37.847C2.01175 39.6271 1.89597 40.3797 0 40.5245V42.4204H11.7231V40.5245C9.89955 40.3797 9.78376 39.6271 9.78376 37.847Z"
        fill="white" />
    <path
        d="M32.3328 36.9785V23.1568C32.3328 17.2228 28.8158 14.2414 22.0425 14.2414C16.7453 14.2414 13.1705 16.9334 13.1705 20.6385C13.1509 21.1547 13.2362 21.6696 13.4213 22.1519C13.6063 22.6343 13.8873 23.0741 14.2471 23.4448C14.607 23.8155 15.0383 24.1093 15.515 24.3086C15.9916 24.5078 16.5037 24.6084 17.0203 24.6041C17.4618 24.648 17.9075 24.5966 18.3274 24.4533C18.7473 24.31 19.1315 24.0782 19.4539 23.7735C19.7764 23.4689 20.0297 23.0985 20.1967 22.6875C20.3636 22.2764 20.4403 21.8343 20.4215 21.3911C20.4215 19.1188 18.3953 18.4965 18.3953 17.8018C18.3953 17.1071 19.3939 16.615 20.682 16.615C23.4174 16.615 24.5029 17.9175 24.5029 21.174V25.0817L19.8281 27.2671C14.6323 29.6262 12.4324 31.8406 12.4324 36.1825C12.3701 37.0893 12.503 37.9989 12.8223 38.8499C13.1416 39.701 13.6398 40.4736 14.2832 41.1156C14.9266 41.7577 15.7003 42.2542 16.552 42.5716C17.4037 42.8891 18.3136 43.0201 19.2202 42.9559C20.4113 42.9164 21.5716 42.5673 22.5867 41.943C23.6019 41.3187 24.4369 40.4407 25.0094 39.3955C25.2242 40.4523 25.8147 41.3953 26.6716 42.05C27.5286 42.7047 28.5937 43.0265 29.6698 42.9559C30.6 42.9836 31.5251 42.8075 32.3801 42.44C33.2352 42.0725 33.9995 41.5224 34.6195 40.8283V38.9324C34.2939 39.1515 33.912 39.2721 33.5196 39.2797C32.738 39.2797 32.3328 38.585 32.3328 36.9785ZM24.5029 35.8207C24.5029 37.5574 23.5332 38.9324 22.028 38.9324C20.5228 38.9324 19.7268 37.6443 19.7268 34.8655C19.7268 31.6235 20.6531 30.2051 22.4477 28.917L24.5029 27.4697V35.8207Z"
        fill="white" />
    <path
        d="M71.5835 32.4629C70.4981 25.2264 68.0666 22.6212 62.8129 21.5358C69.3113 20.2332 72.2348 16.8176 72.2348 11.9257C72.2348 5.28256 67.6903 1.20117 58.5144 1.20117H44.6492V3.09714C47.4715 3.32871 47.7609 4.24051 47.7609 6.94696V36.6456C47.7609 39.2942 47.0662 40.2639 44.6492 40.4954V42.3914H59.7157V40.5244C57.2408 40.2928 56.604 39.3231 56.604 36.6745V22.491H57.4723C58.3328 22.38 59.205 22.5721 59.9393 23.0343C60.6735 23.4965 61.2239 24.1999 61.4958 25.0238C62.2919 27.9184 62.3208 34.0839 63.4497 38.0495C64.5786 42.0151 67.1837 42.7243 70.6862 42.7243C72.5352 42.7838 74.3642 42.3277 75.9689 41.4072L75.8676 39.5113C73.5229 40.0323 72.5822 39.0771 71.5835 32.4629ZM57.1105 20.045H56.5895V3.69053H57.2987C62.0313 3.69053 63.2037 6.19437 63.2037 12.2586C63.2037 18.3228 62.0169 20.045 57.125 20.045H57.1105Z"
        fill="white" />
    <path
        d="M88.7196 37.8903C85.1881 37.8903 82.7567 34.1852 82.4672 26.3119H95.0008V25.4435C95.0008 18.3228 91.1076 14.2414 85.8394 14.2414C79.645 14.2414 74.811 19.8714 74.811 29.0762C74.811 37.7601 79.4134 43.0282 85.6657 43.0282C90.3261 43.0282 93.322 40.6257 95.2035 35.893L93.5391 34.6628C92.1931 36.7904 90.9339 37.8903 88.7196 37.8903ZM85.3908 16.6294C86.8381 16.6294 87.8512 18.4096 87.8512 23.0265V23.866H82.4962C82.5685 18.2215 83.8421 16.6294 85.3908 16.6294Z"
        fill="white" />
    <path
        d="M112.036 14.2704C110.753 14.2603 109.49 14.5846 108.37 15.2115C107.251 15.8384 106.315 16.7461 105.653 17.8453V14.2704H103.916L95.9417 17.5124V18.6413L97.9534 20.6096V47.2255C97.9534 49.0057 97.8376 49.7583 95.8838 49.8741V51.77H107.853V49.8741C105.827 49.7583 105.711 49.0057 105.711 47.2255V42.3915C106.859 42.8191 108.075 43.0348 109.3 43.0283C115.871 43.0283 119.981 37.0654 119.981 27.2383C119.981 18.4821 116.71 14.2704 112.036 14.2704ZM108.548 40.5245C106.55 40.5245 105.653 39.0772 105.653 36.3273V22.3609C105.653 20.1175 106.869 18.511 108.548 18.511C110.82 18.511 111.616 22.028 111.616 30.4802C111.703 37.2391 111.283 40.5245 108.548 40.5245Z"
        fill="white" />
    <path
        d="M143.095 36.0089V14.2993H141.315L133.601 16.1229V17.7294C135.164 18.3663 135.337 19.6544 135.337 21.8832V35.1115C135.385 35.5361 135.348 35.966 135.228 36.3761C135.108 36.7861 134.907 37.1681 134.638 37.4996C134.368 37.8311 134.035 38.1056 133.658 38.3069C133.281 38.5082 132.868 38.6323 132.443 38.6719C130.836 38.6719 130.199 37.5864 130.199 35.7773V14.2704H128.376L120.343 16.094V17.7005C122.066 17.99 122.384 19.3215 122.384 21.8543V33.9103C122.384 40.2495 125.134 43.0862 129.157 43.0862C130.427 43.0564 131.667 42.693 132.751 42.0325C133.836 41.372 134.728 40.4376 135.337 39.3232V42.6665H136.929L144.918 41.4797V39.5692C143.283 39.2219 143.095 38.7298 143.095 36.0089Z"
        fill="white" />
    <path
        d="M160.795 14.2704C159.531 14.286 158.292 14.6221 157.193 15.2474C156.095 15.8726 155.173 16.7665 154.514 17.8452V0H152.705L144.73 3.79193V4.92083L146.727 6.90363V39.0772C149.693 41.7611 153.601 43.161 157.597 42.9704C164.631 42.9704 168.755 37.0075 168.755 27.1803C168.784 18.4821 165.513 14.2704 160.795 14.2704ZM157.293 40.5245C155.353 40.5245 154.514 39.2074 154.514 36.9641V22.3608C154.514 20.1175 155.73 18.511 157.409 18.511C159.681 18.511 160.477 22.0279 160.477 30.4802C160.506 37.2391 160.086 40.5245 157.293 40.5245Z"
        fill="white" />
    <path
        d="M184.69 14.2704C183.428 14.2871 182.192 14.6238 181.095 15.2491C179.999 15.8743 179.08 16.7676 178.423 17.8452V0H176.571L168.611 3.79193V4.92083L170.622 6.90363V39.0772C173.588 41.7611 177.496 43.161 181.492 42.9704C188.526 42.9704 192.65 37.0075 192.65 27.1803C192.694 18.4821 189.423 14.2704 184.69 14.2704ZM181.202 40.5245C179.263 40.5245 178.423 39.2074 178.423 36.9641V22.3608C178.423 20.1175 179.639 18.511 181.318 18.511C183.605 18.511 184.401 22.0279 184.401 30.4802C184.415 37.2391 183.996 40.5245 181.202 40.5245Z"
        fill="white" />
    <path
        d="M203.274 37.847V0H201.464L193.504 3.79193V4.92083L195.516 6.90363V37.847C195.516 39.6271 195.4 40.3797 193.533 40.4955V42.3915H205.256V40.5245C203.389 40.3797 203.274 39.6271 203.274 37.847Z"
        fill="white" />
    <path
        d="M212.189 10.4206C212.77 10.4544 213.351 10.3693 213.898 10.1704C214.444 9.97149 214.944 9.66302 215.367 9.2639C215.79 8.86479 216.127 8.38345 216.358 7.84941C216.588 7.31536 216.707 6.73989 216.707 6.15827C216.707 5.57666 216.588 5.00119 216.358 4.46714C216.127 3.9331 215.79 3.45176 215.367 3.05265C214.944 2.65353 214.444 2.34506 213.898 2.14616C213.351 1.94726 212.77 1.86212 212.189 1.89597C211.037 1.89597 209.933 2.35342 209.119 3.16768C208.304 3.98195 207.847 5.08633 207.847 6.23788C207.888 7.36161 208.364 8.42551 209.174 9.20566C209.984 9.9858 211.064 10.4213 212.189 10.4206Z"
        fill="white" />
    <path
        d="M215.995 37.8469V14.2704H214.201L206.226 17.5123V18.6412L208.238 20.6096V37.8469C208.238 39.6271 208.122 40.3797 206.255 40.4955V42.3915H217.978V40.5244C216.111 40.3797 215.995 39.6271 215.995 37.8469Z"
        fill="white" />
    <path
        d="M230.483 21.3911C230.459 21.8256 230.528 22.2602 230.686 22.6658C230.843 23.0713 231.086 23.4385 231.397 23.7428C231.708 24.047 232.081 24.2813 232.49 24.4298C232.898 24.5784 233.335 24.6378 233.768 24.6042C234.297 24.598 234.819 24.4831 235.301 24.2665C235.783 24.0499 236.216 23.7363 236.571 23.3452C236.927 22.9542 237.199 22.4941 237.369 21.9935C237.539 21.493 237.604 20.9628 237.56 20.4359C237.56 16.6874 234.434 14.2125 229.991 14.2125C223.55 14.2125 218.239 19.2057 218.239 29.5105C218.239 37.5575 222.581 43.0283 228.905 43.0283C233.508 43.0283 235.708 39.9166 237.213 36.0668L234.608 34.7353C233.435 37.4996 232.422 39.0772 230.338 39.0772C227.096 39.0772 225.779 34.8076 225.779 25.8923C225.779 18.4097 227.559 16.6729 230.121 16.6729C231.395 16.6729 232.321 17.1361 232.321 17.8597C232.321 18.5834 230.483 19.0755 230.483 21.3911Z"
        fill="white" />
    <path
        d="M259.414 39.2797C258.618 39.2797 258.213 38.585 258.213 36.9785V23.1568C258.213 17.2228 254.711 14.2414 247.923 14.2414C242.626 14.2414 239.051 16.9334 239.051 20.6385C239.031 21.156 239.117 21.672 239.303 22.1554C239.489 22.6387 239.771 23.0792 240.133 23.4501C240.494 23.821 240.927 24.1145 241.405 24.3129C241.884 24.5113 242.397 24.6103 242.915 24.6041C243.356 24.6483 243.801 24.5969 244.22 24.4535C244.64 24.3101 245.023 24.078 245.344 23.7731C245.666 23.4682 245.918 23.0976 246.083 22.6865C246.248 22.2755 246.323 21.8336 246.302 21.3911C246.302 19.1188 244.276 18.4965 244.276 17.8018C244.276 17.1071 245.289 16.615 246.577 16.615C249.298 16.615 250.383 17.9175 250.383 21.174V25.0817L245.723 27.2092C240.513 29.5683 238.313 31.8261 238.313 36.1391C238.25 37.0459 238.383 37.9555 238.703 38.8065C239.022 39.6576 239.52 40.4302 240.164 41.0722C240.807 41.7142 241.581 42.2107 242.432 42.5282C243.284 42.8457 244.194 42.9767 245.101 42.9125C246.292 42.873 247.452 42.5239 248.467 41.8996C249.482 41.2753 250.317 40.3973 250.89 39.3521C251.105 40.4088 251.695 41.3519 252.552 42.0066C253.409 42.6612 254.474 42.9831 255.55 42.9125C256.478 42.9495 257.404 42.7835 258.261 42.4261C259.118 42.0686 259.887 41.5283 260.514 40.8428V38.9324C260.189 39.1515 259.807 39.2721 259.414 39.2797ZM250.383 35.8207C250.383 37.5574 249.414 38.9324 247.923 38.9324C246.432 38.9324 245.622 37.6443 245.622 34.8655C245.622 31.6235 246.533 30.2051 248.328 28.917L250.383 27.4987V35.8207Z"
        fill="white" />
</svg>