<?xml version="1.0" encoding="UTF-8"?>
<svg id="Livello_1" xmlns="http://www.w3.org/2000/svg" viewBox="0 0 192 72">
  <defs>
    <style>
      .cls-1 {
        fill: #fff;
      }
    </style>
  </defs>
  <path class="cls-1" d="M161.99,22.77v26.55h13.08c3.66,0,5.77-.58,7.31-1.92,1.92-1.73,2.89-4.81,2.89-11.35s-.96-9.62-2.89-11.35c-1.54-1.35-3.66-1.92-7.31-1.92h-13.08ZM179.88,36.05c0,5.77-.38,7.12-1.54,7.89-.77.58-1.73.77-3.66.77h-7.31v-17.51h7.31c1.92,0,2.89,0,3.66.77,1.15.96,1.54,2.31,1.54,8.08ZM192,55.19h-38.38V16.81h38.38v38.38ZM122.26,27.2v-4.42h22.7v8.46h-4.81v-4.04h-9.23v6.35h7.31v4.23h-7.31v7.12h9.43v-4.62h4.81v9.04h-22.89v-4.42h3.65v-17.7h-3.66ZM101.68,42.4c0,2.89.19,5,.58,6.73h5.2c-.19-1.35-.38-3.85-.38-7.12-.19-3.85-1.35-4.42-4.04-5,3.08-.58,4.43-1.92,4.43-6.73,0-3.85-.58-5.39-1.73-6.35-.77-.77-2.11-1.15-4.23-1.15h-16.16v26.55h5.39v-10.39h7.5c1.54,0,2.11.19,2.69.58s.77.96.77,2.89ZM90.71,34.7v-7.31h8.66c1.15,0,1.54.19,1.73.38.38.38.77.96.77,3.27s-.38,3.08-.77,3.46c-.19.19-.58.38-1.73.38l-8.66-.19ZM115.14,55.19h-38.48V16.81h38.38v38.38h.1ZM66.66,44.9v4.42h-18.28v-4.42h6.54v-17.7h-6.54v-4.42h18.28v4.42h-6.54v17.7h6.54ZM35.78,22.77h-5l-3.66,20.97-4.23-19.43c-.19-1.35-.77-1.54-1.92-1.54h-2.69c-1.15,0-1.73.38-1.92,1.54l-4.23,19.43-3.66-20.97H3.08l5.19,25.2c.19,1.15.58,1.35,1.92,1.35h3.66c1.15,0,1.54-.19,1.92-1.35l4.04-18.28,4.04,18.28c.19,1.15.58,1.35,1.92,1.35h3.46c1.15,0,1.73-.19,1.92-1.35l4.62-25.2ZM38.48,55.19H0V16.81h38.38v38.38h.1Z"/>
</svg>