<svg width="313" height="169" viewBox="0 0 313 169" fill="none" xmlns="http://www.w3.org/2000/svg">
    <path
        d="M198.099 128C199.589 132.789 204.21 138.954 209.627 140.278C214.496 141.501 218.223 141.705 218.968 144.354C219.664 147.003 208.832 157.396 194.024 154.493C179.217 151.588 175.789 143.743 174 140.584C185.876 127.847 198.099 128 198.099 128Z"
        fill="#FF48D3" />
    <path
        d="M204.924 125.653C206.816 116.748 220.061 104.034 221.755 86.5709C223.945 63.6657 212.244 23 155.329 23C98.4154 23 90 65.0013 90 82.5139C90 105.964 112.657 118.48 111.86 126.841C125.901 137.873 174.002 150.438 204.924 125.653Z"
        fill="#FF48D3" />
    <path
        d="M156.68 142.051C153.86 146.034 151.832 153.355 154.008 158.483C155.987 163.115 158.065 166.202 156.383 168.343C154.75 170.485 140.207 167.796 133.628 154.201C127.049 140.607 131.155 133.237 132.54 130C149.556 132.141 156.68 142.051 156.68 142.051Z"
        fill="#FF48D3" />
    <path
        d="M182.19 136.102C182.19 136.102 178.752 147.422 178.651 153.306C178.6 159.14 188.36 165.922 178.802 168.515C174.807 169.612 170.61 168.764 167.07 166.82C164.187 165.274 161.608 163.08 159.585 160.486C157.361 157.595 156.248 154.204 154.933 150.863C153.922 148.319 152.961 145.826 152 143.283C152 143.233 163.024 126.178 182.19 136.102Z"
        fill="#FF48D3" />
    <path
        d="M213 110C207.599 123.552 222.974 123.529 223.966 129.126C224.957 134.724 204.335 140.321 195.759 131.073C187.183 121.826 213 110 213 110Z"
        fill="#FF48D3" />
    <path
        d="M132 137.198C125.044 144.276 132.725 150.768 128.86 154.917C124.996 159.066 114.707 150.914 112.484 136.954C112.146 134.855 112.098 130.658 112.001 127.631C111.808 120.895 132 137.198 132 137.198Z"
        fill="#FF48D3" />
    <path
        d="M130 101C138.284 101 145 94.0605 145 85.4997C145 76.9395 138.284 70 130 70C121.716 70 115 76.9395 115 85.4997C115 94.0605 121.716 101 130 101Z"
        fill="white" />
    <path
        d="M134.5 97C140.299 97 145 92.0751 145 85.9997C145 79.9249 140.299 75 134.5 75C128.701 75 124 79.9249 124 85.9997C124 92.0751 128.701 97 134.5 97Z"
        fill="url(#paint0_linear_18_299)" />
    <path
        d="M142.5 88C143.881 88 145 86.8808 145 85.4997C145 84.1192 143.881 83 142.5 83C141.119 83 140 84.1192 140 85.4997C140 86.8808 141.119 88 142.5 88Z"
        fill="white" />
    <path
        d="M178.5 100C186.509 100 193 93.7318 193 85.9997C193 78.2682 186.509 72 178.5 72C170.492 72 164 78.2682 164 85.9997C164 93.7318 170.492 100 178.5 100Z"
        fill="white" />
    <path
        d="M181.5 96C187.299 96 192 91.299 192 85.5C192 79.701 187.299 75 181.5 75C175.701 75 171 79.701 171 85.5C171 91.299 175.701 96 181.5 96Z"
        fill="url(#paint1_linear_18_299)" />
    <path
        d="M189.5 87C190.881 87 192 85.8808 192 84.5C192 83.1193 190.881 82 189.5 82C188.119 82 187 83.1193 187 84.5C187 85.8808 188.119 87 189.5 87Z"
        fill="white" />
    <path
        d="M193.594 55.1695C194 55.3289 194.304 55.4884 194.658 55.7005C195.013 55.86 195.317 56.0721 195.672 56.2849C196.027 56.4971 196.331 56.7098 196.685 56.9754C197.04 57.2409 197.395 57.5064 197.75 58.0374C198.155 58.5684 198.054 59.3116 197.547 59.7366C197.243 60.0021 196.837 60.0548 196.483 59.9487L195.875 59.7366C195.774 59.6832 195.57 59.5771 195.317 59.4711C195.064 59.365 194.76 59.2583 194.456 59.2055C194.151 59.0995 193.848 59.0461 193.543 58.9927C193.24 58.94 192.885 58.8867 192.631 58.834C191.618 58.7272 190.908 57.7719 191.01 56.7099C191.111 55.6478 192.023 54.904 193.037 55.0101C193.24 55.0101 193.391 55.0634 193.543 55.1695H193.594Z"
        fill="#100030" />
    <path
        d="M117.242 60.1848C116.93 60.1848 116.567 60.2293 116.256 60.2738C115.945 60.3178 115.582 60.3623 115.27 60.4063C114.959 60.4508 114.648 60.4953 114.336 60.5838C114.025 60.6278 113.766 60.7608 113.61 60.8053L113.247 60.9384C112.78 61.1154 112.21 60.8938 112.054 60.4953C111.95 60.2293 112.002 59.9633 112.158 59.7417C112.469 59.3432 112.832 59.0772 113.144 58.8557C113.455 58.6342 113.818 58.4127 114.129 58.2357C114.441 58.0587 114.804 57.8811 115.114 57.7041C115.478 57.5266 115.789 57.3941 116.152 57.2166L116.256 57.1726C117.19 56.7736 118.331 57.0836 118.798 57.9256C119.265 58.7232 118.902 59.6978 117.916 60.0963C117.813 60.1408 117.501 60.1848 117.242 60.1848Z"
        fill="#100030" />
    <path
        d="M170.678 119.567C172.061 123.539 168.752 127.61 165.245 126.924C162.726 126.433 160.503 124.717 160.009 121.038C159.811 119.468 162.874 121.087 165.443 120.548C168.011 120.008 170.135 118.046 170.678 119.567Z"
        fill="#100030" />
    <path
        d="M140.796 135.826L125.879 135.894C104.129 135.994 86.3611 120.52 86.2719 101.399L86.2581 98.4633C86.297 98.1821 86.4344 97.9245 86.6447 97.7378C86.8553 97.551 87.1248 97.4477 87.4044 97.4463C87.6838 97.4451 87.9542 97.546 88.1665 97.7308C88.3784 97.9157 88.5181 98.1718 88.5595 98.4525L88.5731 101.389C88.6573 119.394 105.389 133.965 125.87 133.871L140.786 133.802C140.929 133.781 141.075 133.79 141.213 133.831C141.352 133.872 141.481 133.942 141.59 134.037C141.7 134.133 141.788 134.251 141.849 134.384C141.909 134.517 141.941 134.662 141.942 134.808C141.942 134.955 141.912 135.1 141.853 135.234C141.793 135.367 141.706 135.486 141.597 135.583C141.489 135.68 141.361 135.751 141.222 135.793C141.084 135.835 140.939 135.846 140.796 135.826Z"
        fill="#FFA26B" />
    <path
        d="M79.629 97.3726L75.0431 97.4461C73.9369 97.4643 73.0253 96.3568 73.019 94.9851L73 90.873C72.9949 89.7615 73.7169 88.855 74.6185 88.8509L79.3409 88.8286L79.629 97.3726Z"
        fill="#5840FF" />
    <path
        d="M79.629 97.3728L75.03 97.4461C73.9206 97.4642 73.0064 96.3591 73 94.9899V94.9769C73.2348 95.5263 73.6561 95.9699 74.1857 96.2255C74.7153 96.4812 75.3173 96.5318 75.8804 96.3675C77.0569 96.0197 77.6027 94.6306 77.3977 93.6438C77.1128 92.2845 77.6164 91.2509 78.1676 89.9311C78.4914 89.1582 78.8422 88.9184 79.0716 88.8523C79.0765 88.8523 79.0863 88.8479 79.091 88.8479C79.1723 88.8227 79.259 88.8221 79.3403 88.8467L79.629 97.3728Z"
        fill="#6675F6" />
    <path d="M93.662 49.3247L91.0457 49.3389L91.0807 58.6053L93.6973 58.5914L93.662 49.3247Z" fill="#FFA26B" />
    <path d="M223.348 43.9111L220.974 43.9231L221.006 51.7309L223.38 51.7192L223.348 43.9111Z" fill="#FFA26B" />
    <path
        d="M94.9554 61.9565L94.9148 58.4728C94.8771 58.0544 94.6595 57.6666 94.3097 57.3932C93.9596 57.1201 93.5056 56.9834 93.0457 57.0133L89.2535 57.0288C87.9856 57.0343 86.9654 57.8534 86.9824 58.8529L87.0527 62.9754L94.9554 61.9565Z"
        fill="#5840FF" />
    <path
        d="M225.467 56.4856L225.447 52.4374C225.412 52.0388 225.213 51.6692 224.892 51.4087C224.571 51.1485 224.155 51.0185 223.733 51.0468L220.257 51.0616C219.095 51.0667 218.16 51.8473 218.175 52.7996L218.246 57.0091L225.467 56.4856Z"
        fill="#5840FF" />
    <path
        d="M94.9555 61.9564C92.4187 75.5384 91.3464 88.4232 95.8578 102.559C95.8626 103.523 94.598 105.355 93.4302 105.36L83.9089 105.401C80.5544 105.415 77.8199 103.188 77.8062 100.431L77.6404 67.2645C77.6252 64.2294 80.5848 61.7452 84.277 61.7007C89.2012 61.6344 94.7162 61.7575 94.9555 61.9564Z"
        fill="#5840FF" />
    <path
        d="M216.763 57.1442C219.885 72.1974 221.637 84.3166 218.365 95.585C217.95 96.7248 219.645 99.6354 221.166 99.4236L229.875 99.3833C232.944 99.3689 235.423 97.1547 235.41 94.4378L235.259 61.7715C235.245 58.7823 232.515 56.3619 229.138 56.3467C224.635 56.3263 216.982 56.9483 216.763 57.1442Z"
        fill="#5840FF" />
    <path
        d="M154.474 131.254L137.333 131.33C135.477 131.338 133.978 132.812 133.987 134.621C133.995 136.431 135.507 137.891 137.364 137.883L154.505 137.807C156.361 137.799 157.86 136.326 157.851 134.516C157.843 132.706 156.331 131.246 154.474 131.254Z"
        fill="#60F0F8" />
    <path
        d="M94.7828 62.9756C92.7038 77.89 92.0851 92.5145 95.8578 102.559V103.161L95.2563 104.063C94.5777 105.013 94.0678 105.356 92.9265 105.361L83.6208 105.401C80.3424 105.415 77.6699 103.248 77.6565 100.565L77.6404 97.3574C77.9803 97.3413 78.3177 97.4228 78.608 97.591C78.8981 97.7595 79.128 98.0067 79.2672 98.3005C82.4025 103.645 89.0617 101.776 89.3647 97.2993C89.6808 92.5714 85.215 83.4163 87.5503 74.5102C89.8807 65.6042 94.7828 62.9756 94.7828 62.9756Z"
        fill="#6675F6" />
    <path
        d="M216.763 57.1445C219.624 71.2587 221.498 82.27 218.324 95.7422C218.057 97.5147 219.702 99.5706 221.191 99.428L229.884 99.3876C232.946 99.3733 235.423 97.1517 235.41 94.4296L235.395 91.1752C235.077 91.1619 234.763 91.2475 234.494 91.4208C234.224 91.5941 234.011 91.847 233.884 92.1462C231.005 97.5958 224.767 95.7576 224.442 91.2183C224.102 86.4248 228.188 77.0982 225.923 68.0834C223.663 59.0686 216.763 57.1445 216.763 57.1445Z"
        fill="#6675F6" />
    <path
        d="M224.804 47.5211L223.316 47.5308L220.615 47.5538L219.615 47.6822C219.614 47.6741 219.608 47.6337 219.595 47.5612L219.482 47.5607L219.594 47.549C219.38 46.2712 217.438 35.9827 209.353 26.2943C198.031 12.7272 178.195 7.88012 154.419 9.02665C130.574 10.1634 113.826 16.1326 102.947 30.3722C94.7152 41.1463 94.833 51.4791 94.8203 51.5849L93.371 51.6176L89.6031 51.7061C89.6519 51.2306 88.4448 39.2946 97.3378 27.5557C105.613 16.6425 121.502 1.67624 154.224 0.114354C187.06 -1.44706 206.258 13.3184 214.95 23.811C224.256 35.0582 224.745 47.0367 224.804 47.5211Z"
        fill="#60F0F8" />
    <path
        d="M224.804 47.5215L223.316 47.5311C223.285 46.7256 223.145 44.9351 222.68 41.3756C221.965 35.948 219.085 30.3442 213.688 23.6801C208.297 17.0155 194.807 6.78136 175.403 3.48116C155.994 0.176898 142.185 3.20664 129.254 6.78017C116.328 10.3537 110.056 16.3225 102.216 23.9644C94.3816 31.6101 92.1033 41.1137 91.5115 46.0107C90.9144 50.9079 93.5251 51.5603 93.5251 51.5603L93.3711 51.6176L89.6031 51.7061C89.6519 51.2306 88.4448 39.2945 97.3378 27.5556C105.613 16.6426 121.502 1.67625 154.224 0.114355C187.06 -1.44707 206.258 13.3185 214.95 23.8111C224.256 35.0583 224.745 47.0369 224.804 47.5215Z"
        fill="#88E8FF" />
    <path
        d="M231.257 118.191C235.149 117.29 238.98 116.139 242.726 114.745C248.25 112.63 249.156 113.668 253.155 116.298C257.153 118.928 276.581 128.713 286.49 127.345C296.398 125.977 302.88 120.715 304.573 110.229C306.266 99.7418 301.75 88.8069 285.582 84.1702C269.413 79.5337 258.158 78.314 250.272 81.3132C242.385 84.3121 241.528 93.662 240.674 98.6023C239.82 103.543 239.405 105.82 236.246 107.828C233.087 109.837 224.097 118.932 231.257 118.191Z"
        fill="#18F0B8" />
    <path
        d="M67.1644 36.0808C67.1644 36.0808 62.1181 16.6015 51.0305 16.043C39.9424 15.4845 24.0575 20.4973 16.4951 23.536C8.93274 26.5748 -4.68477 38.7822 1.61939 53.5088C7.92349 68.2353 23.5463 69.0016 31.8688 64.755C40.1914 60.5084 55.3163 51.5091 58.0813 51.7686C60.8469 52.0287 75.9849 55.5608 79.2614 52.9636C82.5378 50.3658 74.0191 46.9635 71.1877 44.9638C68.3569 42.9642 67.1644 39.9772 67.1644 36.0808Z"
        fill="#FFA26B" />
    <defs>
        <linearGradient id="paint0_linear_18_299" x1="144.426" y1="86.0003" x2="123.698" y2="86.0003"
            gradientUnits="userSpaceOnUse">
            <stop />
            <stop offset="0.4481" stop-color="#100030" />
            <stop offset="0.8399" stop-color="#180070" />
            <stop offset="1" />
        </linearGradient>
        <linearGradient id="paint1_linear_18_299" x1="171.073" y1="85.4773" x2="191.457" y2="85.4773"
            gradientUnits="userSpaceOnUse">
            <stop />
            <stop offset="0.4481" stop-color="#100030" />
            <stop offset="0.8399" stop-color="#180070" />
            <stop offset="1" />
        </linearGradient>
    </defs>
</svg>