<?xml version="1.0" encoding="UTF-8"?>
<svg id="Layer_1" data-name="Layer 1" xmlns="http://www.w3.org/2000/svg" xmlns:xlink="http://www.w3.org/1999/xlink" viewBox="0 0 91 115">
  <defs>
    <style>
      .cls-1 {
        fill: #ff32ff;
      }

      .cls-1, .cls-2, .cls-3, .cls-4, .cls-5, .cls-6, .cls-7, .cls-8, .cls-9, .cls-10, .cls-11, .cls-12, .cls-13 {
        stroke-width: 0px;
      }

      .cls-14 {
        clip-path: url(#clippath);
      }

      .cls-2 {
        fill: none;
      }

      .cls-15 {
        mask: url(#mask);
      }

      .cls-3 {
        fill: #a49fc8;
      }

      .cls-4 {
        fill: #00f4b3;
      }

      .cls-16 {
        fill: #949fff;
        stroke: #949fff;
        stroke-miterlimit: 10;
        stroke-width: .7px;
      }

      .cls-5 {
        fill: #bb00d4;
      }

      .cls-6 {
        fill: #ffa26b;
      }

      .cls-7 {
        fill: azure;
      }

      .cls-8 {
        fill: #5840ff;
      }

      .cls-9 {
        fill: #f050f8;
      }

      .cls-17 {
        mask: url(#mask-1);
      }

      .cls-10 {
        fill: #d9ddff;
      }

      .cls-11 {
        fill: #6675f6;
      }

      .cls-12 {
        fill: #00f3f9;
      }

      .cls-13 {
        fill: #6671ff;
      }
    </style>
    <mask id="mask" x="20.77" y="54.88" width="14.53" height="14.64" maskUnits="userSpaceOnUse">
      <g id="mask0_723_3581" data-name="mask0 723 3581">
        <path class="cls-8" d="M27.51,57.69c-1.32-.41-5.21-1.18-5.98,1.43-.77,2.61.15,4.75,4.3,4.9s8.44.75,8.76-1.84c.17-1.34-.18-2.34-7.09-4.49Z"/>
      </g>
    </mask>
    <clipPath id="clippath">
      <rect class="cls-2" x="72.87" y="32.82" width="5.83" height="13.65"/>
    </clipPath>
    <mask id="mask-1" x="69.7" y="31.01" width="15.67" height="15.89" maskUnits="userSpaceOnUse">
      <g id="mask1_723_3581" data-name="mask1 723 3581">
        <g class="cls-14">
          <path class="cls-1" d="M72.87,33.66s.43-1.09,1.05-.78c.61.31,5.07,6.76,4.77,12.45-.31,5.69-5.81-11.67-5.81-11.67Z"/>
        </g>
      </g>
    </mask>
  </defs>
  <path class="cls-5" d="M11.88,78.03s8.7,7.55,13.21,7.55,3.75-4.83,3.75-4.83l-16.96-2.72Z"/>
  <path class="cls-5" d="M9.76,64.23l14.3,6.76,1.58-7.21-15.88.45Z"/>
  <path class="cls-5" d="M8.97,44.18l14.4,8.9,2.03-4.95-16.43-3.95Z"/>
  <path class="cls-5" d="M62.12,98.99s-2.11,9.95-9.8,12.44c-7.69,2.49-17.19-2.71-21.95-7.01-4.75-4.3-7.61-15.29-8.14-17.87-1-4.92-1.13-16.29-1.13-16.29l41.56,6.17-.54,22.57Z"/>
  <path class="cls-11" d="M7.99,15.59s-4.51-.88-5.36,1.47,3.29,5.37,3.29,5.37l1.61.77.46-5.38v-2.22Z"/>
  <path class="cls-9" d="M20.13,16.28l.31,15.37S3.38,27.5,4.76,19.35c1.38-8.15,15.37-3.07,15.37-3.07Z"/>
  <path class="cls-7" d="M6.68,14.11s-1.09-2.7,1.42-3.75c0,0-2.11,1.12-3.17-1.38,0,0,1.04,2.05-1.14,2.97,0,0,1.66-.73,2.88,2.17Z"/>
  <path class="cls-3" d="M76.78,5.67H22.09v78.66h54.69V5.67Z"/>
  <path class="cls-10" d="M75.42,3.86H20.74v78.66h54.69V3.86Z"/>
  <path class="cls-7" d="M74.07,2.5H19.38v78.66h54.69V2.5Z"/>
  <path class="cls-6" d="M71.44,6.57h-17.6v2.75h17.6v-2.75Z"/>
  <path class="cls-6" d="M71.44,11.1h-17.6v.88h17.6v-.88Z"/>
  <path class="cls-6" d="M71.44,12.91h-10.91v.88h10.91v-.88Z"/>
  <path class="cls-6" d="M71.39,19.95H26.2v.38h45.19v-.38Z"/>
  <path class="cls-6" d="M56.8,25.34h-30.68v1.82h30.68v-1.82Z"/>
  <path class="cls-6" d="M67.41,28.06H26.13v.65h41.28v-.65Z"/>
  <path class="cls-6" d="M67.41,29.41H26.13v.65h41.28v-.65Z"/>
  <path class="cls-6" d="M52.55,30.77h-26.42v.65h26.42v-.65Z"/>
  <path class="cls-6" d="M52.55,32.13h-26.42v.65h26.42v-.65Z"/>
  <path class="cls-6" d="M64.37,33.49H26.13v.65h38.24v-.65Z"/>
  <path class="cls-6" d="M67.41,37.11H26.13v.65h41.28v-.65Z"/>
  <path class="cls-6" d="M67.41,38.46H26.13v.65h41.28v-.65Z"/>
  <path class="cls-6" d="M52.55,39.82h-26.42v.65h26.42v-.65Z"/>
  <path class="cls-6" d="M52.55,41.18h-26.42v.65h26.42v-.65Z"/>
  <path class="cls-6" d="M64.37,42.53H26.13v.65h38.24v-.65Z"/>
  <path class="cls-6" d="M67.41,43.89H26.13v.65h41.28v-.65Z"/>
  <path class="cls-6" d="M67.41,45.25H26.13v.65h41.28v-.65Z"/>
  <path class="cls-6" d="M52.55,46.61h-26.42v.65h26.42v-.65Z"/>
  <path class="cls-6" d="M52.55,47.96h-26.42v.65h26.42v-.65Z"/>
  <path class="cls-6" d="M64.37,49.32H26.13v.65h38.24v-.65Z"/>
  <path class="cls-6" d="M30.2,55.91c-.32-.46-.73-.79-1.46-.79-.86,0-1.46.58-1.7,1.39h-.56v.51h.47c-.01.09-.01.19-.01.28,0,.08,0,.16,0,.23h-.46v.52h.55c.23.85.86,1.42,1.75,1.42.68,0,1.11-.35,1.45-.85l-.53-.39c-.28.37-.52.58-.92.58-.47,0-.82-.29-.98-.76h1.3v-.52h-1.41c0-.08,0-.16,0-.24,0-.09,0-.18.01-.26h1.4v-.51h-1.29c.17-.45.5-.73.92-.73s.67.19.92.55l.56-.41Z"/>
  <path class="cls-6" d="M35.63,55.91c-.32-.46-.73-.79-1.46-.79-.86,0-1.46.58-1.7,1.39h-.56v.51h.47c-.01.09-.01.19-.01.28,0,.08,0,.16,0,.23h-.46v.52h.55c.23.85.86,1.42,1.75,1.42.68,0,1.11-.35,1.45-.85l-.53-.39c-.28.37-.52.58-.92.58-.47,0-.82-.29-.98-.76h1.3v-.52h-1.41c0-.08,0-.16,0-.24,0-.09,0-.18.01-.26h1.4v-.51h-1.29c.17-.45.5-.73.92-.73s.67.19.92.55l.56-.41Z"/>
  <path class="cls-6" d="M41.06,55.91c-.32-.46-.73-.79-1.46-.79-.86,0-1.46.58-1.7,1.39h-.56v.51h.47c-.01.09-.01.19-.01.28,0,.08,0,.16,0,.23h-.46v.52h.55c.23.85.86,1.42,1.75,1.42.68,0,1.11-.35,1.45-.85l-.53-.39c-.28.37-.52.58-.92.58-.47,0-.82-.29-.98-.76h1.3v-.52h-1.41c0-.08,0-.16,0-.24,0-.09,0-.18.01-.26h1.4v-.51h-1.29c.17-.45.5-.73.92-.73s.67.19.92.55l.56-.41Z"/>
  <path class="cls-9" d="M8.3,40.57s1.69-10.15,17.52-3.84c15.83,6.3,4.92,14.91-4.61,12.91-9.53-2-14.14-4.92-12.91-9.07Z"/>
  <path class="cls-9" d="M19.67,53.64s-13.22-3.23-11.99,6.3c1.23,9.53,17.06,5.84,17.06,5.84,0,0,12.84-2.41,6.76-8.61-2.17-2.21-11.84-3.54-11.84-3.54Z"/>
  <path class="cls-9" d="M18.13,70.85s-8.73-1.17-7.84,4.3c.69,4.21,5.23,5.07,11.22,4.92,6-.15,9.99-8.46-3.38-9.22Z"/>
  <path class="cls-8" d="M27.34,40.22c-1.32-.41-5.21-1.18-5.98,1.43-.77,2.61.15,4.75,4.3,4.9,4.15.15,8.44.75,8.76-1.84.17-1.34-.18-2.34-7.09-4.49Z"/>
  <path class="cls-9" d="M75.12,35.34s-.6-2.89-2.44-3.21c-1.09-.18-3.37.12-4.78,3.37-3.29,7.55-.4,18.22.42,24.93.49,3.9,1.72,11.01-2.66,16.96-4.97,6.76-14.24,4.17-20.8,12.77-3.61,4.73-3.25,9.73-1.13,14.71,1.32,3.02,3.64,5.49,6.56,7.01,0,0,9.28,2.71,19.68-3.17,10.41-5.88,11.79-15.7,14.11-25.51,1.37-5.89.75-15.42-1.88-24.33-7.38-25.06-7.07-23.52-7.07-23.52Z"/>
  <path class="cls-1" d="M27.05,73.93s-7.07-2-7.69,1.54c-.61,3.54,6.76,1.84,7.23,1.84s4.04-1.75.46-3.38Z"/>
  <path class="cls-16" d="M23.91,44.93l.28,1.05s.02.02.03.03c.01,0,.03,0,.04,0,.03,0,.05-.03.05-.06l-.18-1.06-.08-.11h-.11l-.03.15Z"/>
  <path class="cls-16" d="M23.7,44.7l-1.05-.28s-.03-.02-.04-.03c0-.01-.01-.03-.01-.05,0-.01.02-.02.03-.03.01,0,.03,0,.04,0l1.06.17.11.08-.03.11-.12.03Z"/>
  <path class="cls-16" d="M24.24,44.55l.72-.8s.01-.03.01-.05,0-.03-.01-.05c-.01,0-.02-.01-.04-.01s-.03,0-.04.01l-.8.74-.05.12.08.08.12-.05Z"/>
  <path class="cls-12" d="M23.98,44.86s.08-.01.12-.04c.04-.02.06-.06.08-.1.02-.04.02-.08.01-.12,0-.04-.03-.08-.06-.11-.03-.03-.07-.05-.11-.06-.04,0-.09,0-.12.01-.04.02-.07.04-.1.08-.02.04-.04.08-.04.12,0,.06.02.11.06.15.04.04.09.06.15.06Z"/>
  <path class="cls-16" d="M22.56,42.03l.28,1.05s.03.05.06.03c.03-.02.05-.03.05-.06l-.18-1.06-.06-.11h-.12l-.02.15Z"/>
  <path class="cls-16" d="M22.35,41.8l-1.05-.28s-.06-.05-.05-.08c.02-.03.03-.05.06-.03l1.06.17.11.08v.11l-.14.03Z"/>
  <path class="cls-16" d="M22.87,41.65l.72-.8s.01-.01.02-.02c0,0,0-.02,0-.03s0-.02,0-.03c0,0,0-.01-.02-.02-.01,0-.02-.01-.04-.01s-.03,0-.04.01l-.8.72-.05.12.08.08.12-.03Z"/>
  <path class="cls-12" d="M22.61,41.95s.08-.01.12-.04c.04-.02.06-.06.08-.1.02-.04.02-.08.01-.12,0-.04-.03-.08-.06-.11-.03-.03-.07-.05-.11-.06-.04,0-.09,0-.12.01-.04.02-.07.04-.1.08-.02.04-.04.08-.04.12,0,.06.02.11.06.15.04.04.09.06.15.06Z"/>
  <path class="cls-16" d="M27.4,45.13l.91.61s.06,0,.08-.02c0,0,0-.01,0-.02,0,0,0-.01,0-.02,0,0,0-.01,0-.02,0,0,0-.01-.02-.01l-.83-.69-.12-.03-.08.09.06.11Z"/>
  <path class="cls-16" d="M27.1,45.12l-.97.48s-.03,0-.04,0c-.01,0-.03-.02-.03-.03-.02-.02,0-.06.02-.08l.92-.57h.14l.05.09-.08.11Z"/>
  <path class="cls-16" d="M27.39,44.64v-1.08s-.02-.06-.05-.06-.06.02-.06.05l-.12,1.06.05.12h.12l.06-.09Z"/>
  <path class="cls-12" d="M27.27,45.1s.08-.01.12-.04c.04-.02.06-.06.08-.1.02-.04.02-.08.01-.12,0-.04-.03-.08-.06-.11-.03-.03-.07-.05-.11-.06-.04,0-.09,0-.12.01-.04.02-.07.04-.1.08-.02.04-.04.08-.04.12,0,.03,0,.06.02.08.01.03.03.05.05.07.02.02.04.04.07.05.03.01.05.02.08.02Z"/>
  <path class="cls-16" d="M26.28,41.8l-.43,1s0,.06.03.08c0,0,.01,0,.02,0,0,0,.02,0,.02,0,0,0,.01,0,.02-.01,0,0,0-.01.01-.02l.51-.95v-.12l-.11-.05-.08.08Z"/>
  <path class="cls-16" d="M26.25,41.49l-.65-.88s-.03-.05,0-.08c0,0,.01-.01.02-.01,0,0,.02,0,.02,0,0,0,.02,0,.02.01,0,0,.01.01.01.02l.72.8.05.12-.09.06-.11-.05Z"/>
  <path class="cls-16" d="M26.76,41.69l1.08-.18s.05-.03.05-.06-.03-.05-.06-.05l-1.08.08-.12.06v.12l.14.03Z"/>
  <path class="cls-12" d="M26.5,41.83s.08-.01.12-.04c.04-.02.06-.06.08-.1.02-.04.02-.08.01-.12,0-.04-.03-.08-.06-.11-.03-.03-.07-.05-.11-.06-.04,0-.09,0-.12.01-.04.02-.07.04-.1.08s-.04.08-.04.12c0,.06.02.11.06.15.04.04.1.06.15.06Z"/>
  <path class="cls-16" d="M29.59,42.8l-.55.92s-.01.03,0,.05c0,.02.01.03.02.04.02.02.06,0,.08-.02l.65-.86v-.12l-.09-.06-.09.05Z"/>
  <path class="cls-16" d="M29.6,42.49l-.52-.95s0-.06.02-.08c.01,0,.03,0,.04,0,.01,0,.03.01.04.02l.61.89v.12l-.09.06-.09-.06Z"/>
  <path class="cls-16" d="M30.08,42.77l1.09-.03s.05-.03.05-.06-.02-.05-.05-.06l-1.08-.08-.12.05v.11l.11.08Z"/>
  <path class="cls-12" d="M29.82,42.86s.08-.01.12-.04c.04-.02.06-.06.08-.1.02-.04.02-.08.01-.12,0-.04-.03-.08-.06-.11-.03-.03-.07-.05-.11-.06-.04,0-.09,0-.12.01-.04.02-.07.04-.1.08-.02.04-.04.08-.04.12,0,.03,0,.06.02.08.01.03.03.05.05.07.02.02.04.04.07.05.03.01.05.02.08.02Z"/>
  <path class="cls-16" d="M32.17,44.75l.09,1.08s.03.05.06.05c.01,0,.02,0,.03-.01,0,0,.01-.02.01-.03v-1.08l-.06-.11h-.11l-.03.11Z"/>
  <path class="cls-16" d="M31.99,44.49l-.98-.45s-.02-.02-.03-.03c0,0,0-.01,0-.02,0,0,0-.02,0-.02,0,0,0-.01.01-.02s.01,0,.02-.01c.01,0,.03,0,.04,0l1.01.35.09.09-.05.11h-.12Z"/>
  <path class="cls-16" d="M32.54,44.43l.85-.68s.03-.05.02-.08c0-.01-.02-.02-.04-.02s-.03,0-.04,0l-.91.58-.06.12.06.08.12-.02Z"/>
  <path class="cls-12" d="M32.26,44.69s.08-.01.12-.04c.04-.02.06-.06.08-.1.02-.04.02-.08.01-.12,0-.04-.03-.08-.06-.11-.03-.03-.07-.05-.11-.06-.04,0-.09,0-.12.01-.04.02-.07.04-.1.08-.02.04-.04.08-.04.12,0,.03,0,.06.02.08.01.03.03.05.05.07s.04.04.07.05c.03.01.05.02.08.02Z"/>
  <path class="cls-8" d="M26.9,73.91s-7.07-2-7.69,1.54c-.61,3.54,6.76,1.84,7.23,1.84s4.04-1.74.46-3.38Z"/>
  <path class="cls-9" d="M21.64,41.02l-.18.32c-.04.08-.07.17-.09.26l-.06.25-.95.23v-1.01l1.29-.05Z"/>
  <path class="cls-7" d="M80.93,72.04s1.65-6.03,7.56-4.52c0,0-5.29-.88-3.84-6.54,0,0-.88,4.87-6,3.56,0,0,3.95.96,2.28,7.51Z"/>
  <g class="cls-15">
    <g>
      <path class="cls-13" d="M32.72,67.94l-.11.09c-.84.65-1.82,1.1-2.86,1.32-1.04.22-2.12.21-3.15-.03-1.27-.31-2.44-.94-3.4-1.83-.96-.89-1.67-2.01-2.07-3.26-.45-1.37-.48-2.84-.09-4.23.4-1.39,1.21-2.62,2.32-3.54.36-.31.76-.57,1.18-.78,1.15-.59,2.43-.86,3.72-.78,1.28.08,2.52.49,3.6,1.2,1.1.72,2,1.72,2.6,2.89.63,1.21.92,2.57.83,3.94-.1,1.56-.72,3.05-1.75,4.23-.25.28-.53.54-.82.78Z"/>
      <path class="cls-4" d="M24.55,55.69c.12-.03.25-.03.37,0,.12.02.24.07.35.14s.19.16.26.27c.07.11.11.23.13.35.09.49-.69.57-.61.98.08.41.77.49.68.88-.03.09-.07.17-.14.23-.06.07-.14.12-.23.14-.09.02-.19.02-.28,0-.08-.03-.16-.08-.23-.14-.29-.31-.52-.78-.94-.57-.42.22-.51.89-.45,1.48.06.58-.32.86-.77,1.26-.45.4-1.15,1.57-.72,2.34.43.77,1.09.42,1.54.11.2-.15.45-.21.7-.17.25.04.47.17.62.37.4.43.71.81,1.01.58.31-.23.14-.46.22-.94.08-.48.57-.37.57-.94s-.61-.89-.63-1.66c-.02-.77.81-1.45,1.23-1.23.42.22.22.51.14.78-.08.28.28.55.69.46.42-.09,1.01-.74,1.23-.2.22.54.81,1.12,1.38.68.57-.45.17-1.08-.12-1.29-.13-.13-.22-.29-.25-.46s-.02-.36.04-.52c.08-.38-.29-.83-.09-1.32.2-.49.91-.35,1.37-.57.1-.06.18-.15.23-.26.05-.12.06-.25.03-.37-1.08-.71-2.32-1.12-3.61-1.2-1.28-.07-2.56.21-3.7.8Z"/>
      <path class="cls-4" d="M32.97,59.9c-.1.04-.18.11-.25.2-.07.06-.13.13-.17.22-.03.09-.06.18-.06.28.04.12.05.26.03.38-.02.12-.06.24-.12.35-.06.09-.09.19-.11.3-.01.11,0,.22.03.32.03.1.09.2.16.28.07.08.16.14.27.18.63.34,1.08-.37.95-.81-.12-.45.42-.88-.03-1.38-.12-.15-.28-.27-.46-.34h-.12s-.05,0-.07.01c-.02,0-.04.02-.06.04v-.02Z"/>
      <path class="cls-4" d="M31.13,58.1s.43-.18.66.43c.23.61.02.88-.21.97-.23.09-.65-.31-.68-.71-.03-.4.05-.63.23-.69Z"/>
    </g>
  </g>
  <g class="cls-17">
    <g>
      <path class="cls-8" d="M81.76,32.14l.14.08c.96.63,1.77,1.47,2.37,2.44.6.99.97,2.09,1.08,3.24.14,1.41-.09,2.83-.66,4.12-.56,1.3-1.46,2.43-2.6,3.27-1.24.95-2.73,1.5-4.29,1.58-1.56.09-3.11-.3-4.44-1.11-.44-.27-.84-.58-1.21-.94-1.01-.97-1.74-2.18-2.12-3.53-.38-1.34-.4-2.76-.04-4.11.35-1.41,1.07-2.69,2.09-3.73,1.01-1.04,2.28-1.79,3.68-2.18,1.63-.45,3.37-.34,4.93.31.38.15.74.34,1.09.55Z"/>
      <path class="cls-4" d="M72.12,44.84c-.07-.12-.12-.25-.14-.38-.02-.14,0-.27.03-.4.04-.13.1-.25.19-.36.09-.11.2-.19.32-.25.49-.26.81.51,1.21.28.4-.23.25-.95.66-1,.1,0,.19.02.28.06.09.04.17.1.23.18.05.09.08.18.09.28,0,.1-.02.2-.06.29-.2.41-.61.81-.25,1.17s1.09.2,1.66-.08c.57-.28,1,.03,1.57.34.57.31,2.01.63,2.64-.08.63-.71.05-1.26-.43-1.63-.11-.07-.21-.17-.28-.28s-.12-.24-.15-.37c-.02-.13-.02-.27,0-.4.03-.13.08-.25.16-.36.31-.57.57-1.01.23-1.23s-.52.02-1.03.11c-.51.09-.58-.46-1.17-.26-.58.2-.69.94-1.48,1.23-.78.29-1.77-.31-1.69-.81.08-.51.45-.4.75-.42.31-.02.48-.49.23-.88-.25-.38-1.12-.77-.65-1.2.48-.43.86-1.21.2-1.64-.66-.43-1.17.2-1.28.6-.11.4-.51.51-.92.55-.41.05-.74.6-1.32.57-.58-.03-.68-.81-1.06-1.2-.1-.09-.23-.14-.37-.15-.13,0-.26.04-.37.11-.35,1.35-.33,2.77.06,4.1.37,1.34,1.1,2.56,2.11,3.52Z"/>
      <path class="cls-4" d="M73.45,34.74c.08.08.17.13.28.17.09.06.19.09.29.09.1.01.21,0,.31-.03.11-.08.24-.14.37-.17.14-.02.28-.02.42,0,.11.03.23.03.35,0,.11-.02.22-.07.32-.14.09-.07.17-.16.22-.27.05-.1.08-.22.08-.34.12-.77-.75-.97-1.15-.69-.4.28-1.05-.11-1.41.52-.11.18-.17.39-.18.6,0,.05.01.09.03.14.03.03.05.08.09.11Z"/>
      <path class="cls-4" d="M72.27,37.26s-.35-.38.2-.85.89-.32,1.06-.11c.17.21-.09.75-.48.94-.38.18-.66.17-.78.02Z"/>
    </g>
  </g>
</svg>