<?xml version="1.0" encoding="UTF-8"?>
<svg id="svg2" xmlns="http://www.w3.org/2000/svg" xmlns:svg="http://www.w3.org/2000/svg" xmlns:sodipodi="http://sodipodi.sourceforge.net/DTD/sodipodi-0.dtd" xmlns:rdf="http://www.w3.org/1999/02/22-rdf-syntax-ns#" xmlns:inkscape="http://www.inkscape.org/namespaces/inkscape" xmlns:dc="http://purl.org/dc/elements/1.1/" xmlns:cc="http://creativecommons.org/ns#" version="1.1" viewBox="0 0 260 33.7">
  <defs>
    <style>
      .cls-1 {
        fill: #fff;
        stroke-width: 0px;
      }
    </style>
  </defs>
  <sodipodi:namedview id="base" bordercolor="#666666" borderopacity="1.0" fit-margin-bottom="0" fit-margin-left="0" fit-margin-right="0" fit-margin-top="0" inkscape:current-layer="layer1" inkscape:cx="412.19286" inkscape:cy="187.81429" inkscape:document-units="px" inkscape:pageopacity="0.0" inkscape:pageshadow="2" inkscape:window-height="705" inkscape:window-maximized="1" inkscape:window-width="1366" inkscape:window-x="-8" inkscape:window-y="-8" inkscape:zoom="0.35" pagecolor="#ffffff" showgrid="false"/>
  <g id="layer1" inkscape:groupmode="layer" inkscape:label="Layer 1">
    <g id="layer1-3" inkscape:label="Layer 1">
      <path id="path3348" class="cls-1" d="M34.4,31.3h9.4l5.1-28.9h-9.4l-1.9,10.4h-8.2l1.9-10.4h-9.4l-5.1,28.9h9.4l1.9-10.8h8.2s-1.9,10.8-1.9,10.8Z" inkscape:connector-curvature="0"/>
      <path id="path3352" class="cls-1" d="M54.2,2.4l-2.9,16.1c-.3,1.3-.4,2.5-.4,3.6,0,8.5,7.5,9.8,11.9,9.8,9.4,0,13.4-3.1,14.9-11.5l3.2-18h-9.4l-2.7,15.1c-.9,4.7-1.5,7.2-5,7.2s-3.4-1.2-3.4-3.7.1-2.1.4-3.6l2.7-15h-9.4Z" inkscape:connector-curvature="0"/>
      <path id="path3356" class="cls-1" d="M130.7,31.3h9.4l1.3-7.5h4.4c8.2,0,12.8-4.4,12.8-12.5s-3.9-9-10.9-9h-12l-5.1,28.9ZM145.4,16.7h-2.7l1.3-6.8h2.5c2.1,0,3.2,1,3.2,2.9s-1.6,3.9-4.3,3.9Z" inkscape:connector-curvature="0"/>
      <path id="path3360" class="cls-1" d="M177,1.8c-10.2,0-16.4,6.6-16.4,17.8s4.9,12.4,13,12.4,16.4-6.6,16.4-17.8c0-7.8-4.8-12.4-13-12.4h0ZM174.2,24.4c-2.4,0-3.9-1.8-3.9-4.7s.1-2.1.3-3.2c.7-3.8,1.9-7.3,5.8-7.3s3.9,1.8,3.9,4.7-.1,2.1-.3,3.2c-.7,3.8-1.9,7.3-5.8,7.3Z" inkscape:connector-curvature="0"/>
      <path id="path3364" class="cls-1" d="M222.8,31.3h9.4l3.7-21.2h7.1l1.4-7.7h-24.1l-1.4,7.7h7.5l-3.7,21.2Z" inkscape:connector-curvature="0"/>
      <path id="path3366" class="cls-1" d="M207.2,13.1c-3-.9-4.2-1.3-4.2-2.7s.6-2,2.4-2,2.4.8,2.9,1.9l8.3-2.3c-1-4.1-4.5-6.2-10.5-6.2-11.4,0-12.3,7.6-12.3,10,0,4.7,2.5,7.6,8,9.1,1.4.4,3.1.8,3.1,2.4s-.9,2-2.5,2-3-.9-3.6-2.4l-8.2,2.2c.9,4.3,4.9,6.7,11.3,6.7s12.9-1.3,12.9-10c0-4.4-2.4-7.2-7.5-8.8h0Z" inkscape:connector-curvature="0"/>
      <path id="path3370" class="cls-1" d="M11.5,31.3L16.6,2.4H1v28.9h10.5Z" inkscape:connector-curvature="0"/>
      <path id="path3374" class="cls-1" d="M248.5,2.4l-5.1,28.9h15.6V2.4h-10.5Z" inkscape:connector-curvature="0"/>
      <polygon id="polygon3376" class="cls-1" points="92.2 22.8 100.1 22.8 101.4 15.5 93.5 15.5 94.4 10.1 105.4 10.1 106.8 2.4 86.3 2.4 81.3 31.3 90.7 31.3 92.2 22.8"/>
      <polygon id="polygon3378" class="cls-1" points="116.9 22.8 124.8 22.8 126.1 15.5 118.2 15.5 119.1 10.1 130.2 10.1 131.5 2.4 111 2.4 106 31.3 115.4 31.3 116.9 22.8"/>
    </g>
  </g>
</svg>