<svg width="247" height="170" viewBox="0 0 247 170" fill="none" xmlns="http://www.w3.org/2000/svg">
    <path
        d="M26.8207 56.4012C26.8207 56.4012 23.0711 71.206 39.5446 70.6955C56.0181 70.185 26.8207 56.4012 26.8207 56.4012Z"
        fill="#FFA26B" />
    <path
        d="M218.294 34.7147H150.044C149.277 34.7174 148.518 34.8706 147.811 35.1655C147.103 35.4605 146.461 35.8914 145.921 36.4337C145.381 36.9761 144.953 37.6191 144.662 38.3263C144.371 39.0334 144.222 39.7907 144.225 40.555V74.5141C144.222 75.2784 144.371 76.0357 144.662 76.7428C144.953 77.4499 145.381 78.093 145.921 78.6353C146.461 79.1777 147.103 79.6086 147.811 79.9035C148.518 80.1985 149.277 80.3517 150.044 80.3544H218.294C219.839 80.3436 221.317 79.7228 222.404 78.6282C223.491 77.5335 224.098 76.0541 224.093 74.5141V40.555C224.098 39.015 223.491 37.5356 222.404 36.4409C221.317 35.3462 219.839 34.7255 218.294 34.7147Z"
        fill="#FFA26B" />
    <path
        d="M172.111 140.064L184.179 141.861L176.947 143.76L178.156 148.232L165.37 147.027L173.3 144.495L172.111 140.064Z"
        fill="#F050F8" />
    <path
        d="M205.304 69.6336V73.8811C205.304 74.9838 205.304 76.1069 205.304 77.2709V79.17C205.304 93.2601 204.771 112.169 201.206 122.911C198.837 130.185 194.227 136.53 188.031 141.044C187.88 141.164 187.692 141.229 187.499 141.228C187.291 141.222 187.09 141.15 186.925 141.023C186.747 140.909 186.616 140.736 186.556 140.533C186.484 140.328 186.484 140.105 186.556 139.9C186.622 139.701 186.752 139.529 186.925 139.41C192.77 135.144 197.115 129.148 199.342 122.277C202.948 111.373 203.317 91.6468 203.439 77.4751V69.6336C203.439 69.5049 203.465 69.3775 203.514 69.2585C203.564 69.1396 203.636 69.0316 203.728 68.9405C203.819 68.8495 203.927 68.7773 204.047 68.7281C204.166 68.6788 204.294 68.6535 204.423 68.6535C204.677 68.656 204.92 68.7588 205.099 68.9393C205.254 69.1362 205.327 69.3846 205.304 69.6336Z"
        fill="#1ED6A6" />
    <path
        d="M123.08 123.115L115.929 118.438L121.174 119.153L121.83 115.723L129.616 120.072L123.756 119.602L123.08 123.115Z"
        fill="#F050F8" />
    <path
        d="M62.2469 51.0511L54.5838 42.8829L53.5184 41.1063C53.9487 41.5351 61.0995 48.8456 63.3943 48.1514C64.7616 47.493 65.9827 46.5683 66.9856 45.432C67.9885 44.2957 68.753 42.9707 69.2338 41.5351C70.1148 38.9622 68.8854 36.818 68.6805 37.0835C68.4756 37.3489 67.2873 38.9622 66.2628 38.9622C65.2383 38.9622 62.6157 36.2054 61.7961 35.4294C61.6857 35.3456 61.5962 35.2375 61.5346 35.1135C61.473 34.9895 61.4409 34.8531 61.4409 34.7147C61.4409 34.5764 61.473 34.4399 61.5346 34.3159C61.5962 34.192 61.6857 34.0838 61.7961 34L66.4882 32.5297L66.6316 32.6523C78.0647 42.3111 62.2469 51.0511 62.2469 51.0511Z"
        fill="#2D19B8" />
    <path
        d="M56.9606 54.0937L48.5804 80.9057L29.7711 59.7093C35.4672 64.6102 46.1627 73.4931 47.7404 72.6354C49.9122 71.451 55.6698 55.1556 55.0141 54.3592C54.3584 53.5628 44.9538 43.2709 43.7039 41.9027L45.6299 41.4534L56.9401 53.9712L56.9606 54.0937Z"
        fill="#2D19B8" />
    <path
        d="M66.8176 37.7273L73.4545 29.6832C73.7276 29.3522 73.6798 28.8632 73.3476 28.591L69.1695 25.167C68.8374 24.8948 68.3467 24.9425 68.0736 25.2735L61.4367 33.3176C61.1636 33.6486 61.2115 34.1376 61.5436 34.4098L65.7217 37.8338C66.0538 38.106 66.5445 38.0583 66.8176 37.7273Z"
        fill="#F050F8" />
    <path
        d="M59.2121 55.9386L63.2072 52.2438C63.5224 51.9523 63.5408 51.4613 63.2483 51.1472L48.266 35.056C47.9735 34.7419 47.4808 34.7235 47.1656 35.015L43.1705 38.7098C42.8553 39.0013 42.8369 39.4923 43.1294 39.8064L58.1118 55.8976C58.4043 56.2118 58.8969 56.2301 59.2121 55.9386Z"
        fill="#F050F8" />
    <path
        d="M98.0214 146.557H59.7676C59.7676 146.557 92.2024 145.291 94.9275 144.985C97.6526 144.679 96.2183 139.574 96.0339 138.859C97.2822 141.238 97.9624 143.873 98.0214 146.557Z"
        fill="#2D19B8" />
    <path opacity="0.2"
        d="M117.732 70.5934C117.732 70.5934 114.987 67.1832 111.708 68.7964C110.995 69.103 110.358 69.5608 109.84 70.1378C109.323 70.7148 108.937 71.3972 108.711 72.1376C108.485 72.8781 108.423 73.6587 108.53 74.4253C108.638 75.1918 108.911 75.9259 109.332 76.5766C108.817 76.0734 108.414 75.4679 108.149 74.7995C107.885 74.1311 107.764 73.4146 107.795 72.6967C107.857 71.5432 108.301 70.4426 109.056 69.5669C109.812 68.6912 110.838 68.0897 111.973 67.8565C113.109 67.6232 114.289 67.7712 115.331 68.2775C116.373 68.7837 117.217 69.6196 117.732 70.6547V70.5934Z"
        fill="white" />
    <path
        d="M164.51 73.4318C172.295 73.4318 178.606 67.1418 178.606 59.3826C178.606 51.6234 172.295 45.3333 164.51 45.3333C156.724 45.3333 150.413 51.6234 150.413 59.3826C150.413 67.1418 156.724 73.4318 164.51 73.4318Z"
        fill="#FFBD97" />
    <path
        d="M171.066 62.1598C172.186 62.1598 173.095 61.2547 173.095 60.1381C173.095 59.0216 172.186 58.1165 171.066 58.1165C169.946 58.1165 169.038 59.0216 169.038 60.1381C169.038 61.2547 169.946 62.1598 171.066 62.1598Z"
        fill="#5840FF" />
    <path
        d="M157.891 62.1598C159.012 62.1598 159.92 61.2547 159.92 60.1381C159.92 59.0216 159.012 58.1165 157.891 58.1165C156.771 58.1165 155.863 59.0216 155.863 60.1381C155.863 61.2547 156.771 62.1598 157.891 62.1598Z"
        fill="#5840FF" />
    <path
        d="M207.107 73.0847V73.636C206.992 75.0191 206.372 76.3122 205.365 77.2709C205.021 77.502 204.613 77.623 204.198 77.618H203.993C203.796 77.611 203.602 77.5696 203.419 77.4955C202.128 76.9646 201.616 75.188 201.37 74.0649C201.37 73.9219 201.37 73.779 201.37 73.6769C201.37 73.5748 201.37 73.1051 201.37 73.1051L207.107 73.0847Z"
        fill="#1ED6A6" />
    <path
        d="M205.304 79.1904C204.984 78.7303 204.729 78.2288 204.546 77.6997C204.095 76.1682 204.546 75.2493 203.911 73.4931C203.709 73.0265 203.383 72.6239 202.968 72.3291V69.7766C202.975 69.4799 203.092 69.1964 203.296 68.9802C203.527 68.7725 203.825 68.6563 204.136 68.6535C204.441 68.6535 204.735 68.7704 204.956 68.9802C205.172 69.1896 205.298 69.4758 205.304 69.7766V73.0438C205.304 74.9634 205.324 77.0054 205.304 79.1904Z"
        fill="#12C093" />
    <path
        d="M218.233 59.8931C218.232 63.115 217.12 66.2387 215.083 68.7407C213.047 71.2427 210.209 72.9711 207.046 73.636C206.472 73.7591 205.89 73.8409 205.304 73.8811C204.915 73.9014 204.525 73.9014 204.136 73.8811C203.877 73.9019 203.617 73.9019 203.358 73.8811C202.669 73.8611 201.983 73.7791 201.309 73.636C198.905 73.1421 196.672 72.0332 194.829 70.4184C192.986 68.8037 191.597 66.7386 190.798 64.4264C190.294 62.9678 190.038 61.4357 190.039 59.8931C190.049 56.8209 191.069 53.8367 192.943 51.3974C194.817 48.9581 197.442 47.1983 200.415 46.3874C203.389 45.5765 206.546 45.7593 209.406 46.9077C212.265 48.0561 214.667 50.1069 216.245 52.7459C217.554 54.9014 218.241 57.3741 218.233 59.8931Z"
        fill="#1ED6A6" />
    <path
        d="M218.233 59.8931C218.232 63.115 217.12 66.2387 215.083 68.7407C213.047 71.2427 210.209 72.9711 207.046 73.636C206.93 75.0191 206.311 76.3122 205.304 77.2709V79.17C205.304 79.17 204.935 78.4757 204.546 77.6997C204.157 76.9237 204.136 75.2901 203.911 74.9225C203.439 74.1261 202.026 74.167 201.309 73.6565C201.309 73.5135 201.309 73.6565 201.309 73.6565C198.905 73.1625 196.672 72.0536 194.829 70.4389C192.986 68.8241 191.597 66.7591 190.798 64.4468C191.187 64.9982 195.899 71.594 203.358 71.5736C203.835 71.6029 204.314 71.6029 204.792 71.5736H205.304C213.5 70.2462 218.663 60.8324 216.245 52.9093C217.525 55.0172 218.211 57.4296 218.233 59.8931Z"
        fill="#12C093" />
    <path
        d="M164.51 61.4246C165.189 61.4246 165.739 60.8761 165.739 60.1994C165.739 59.5227 165.189 58.9742 164.51 58.9742C163.831 58.9742 163.28 59.5227 163.28 60.1994C163.28 60.8761 163.831 61.4246 164.51 61.4246Z"
        fill="#FFA26B" />
    <path
        d="M92.7761 135.632C92.6514 135.635 92.5274 135.613 92.4113 135.567C92.2953 135.522 92.1894 135.454 92.1 135.367C92.002 135.275 91.9238 135.165 91.8704 135.042C91.817 134.919 91.7895 134.786 91.7895 134.652C91.7895 134.518 91.817 134.386 91.8704 134.263C91.9238 134.14 92.002 134.029 92.1 133.938C95.6878 129.898 99.8669 126.421 104.496 123.625C107.103 122.029 109.846 120.662 112.692 119.541C112.817 119.489 112.951 119.462 113.086 119.462C113.222 119.463 113.356 119.49 113.48 119.544C113.605 119.597 113.717 119.675 113.81 119.773C113.904 119.871 113.976 119.986 114.024 120.113C114.073 120.239 114.097 120.373 114.094 120.509C114.09 120.644 114.06 120.777 114.005 120.9C113.95 121.024 113.87 121.135 113.772 121.228C113.673 121.321 113.556 121.393 113.429 121.44C105.821 124.456 99.0184 129.188 93.5547 135.265C93.4636 135.383 93.3454 135.479 93.21 135.543C93.0746 135.606 92.9259 135.637 92.7761 135.632Z"
        fill="#1ED6A6" />
    <path
        d="M164.182 145.883H163.956C163.731 145.883 142.668 140.472 142.176 123.911C140.507 123.321 138.872 122.639 137.279 121.869C135.646 121.079 133.962 120.397 132.239 119.827C132.108 119.792 131.985 119.731 131.878 119.648C131.771 119.565 131.681 119.461 131.615 119.343C131.548 119.226 131.505 119.096 131.489 118.961C131.473 118.827 131.484 118.691 131.522 118.561C131.602 118.304 131.78 118.088 132.016 117.959C132.253 117.829 132.531 117.796 132.792 117.867C134.616 118.415 136.397 119.097 138.119 119.909C139.512 120.521 140.865 121.134 142.217 121.604V121.399C142.435 118.151 143.611 115.04 145.598 112.455C146.255 111.638 147.097 110.988 148.055 110.558C149.013 110.129 150.06 109.932 151.109 109.984C152.072 110.075 152.998 110.402 153.802 110.936C154.607 111.471 155.266 112.196 155.72 113.047C156.231 113.839 156.552 114.737 156.658 115.671C156.765 116.606 156.654 117.553 156.334 118.438C155.773 119.749 154.932 120.923 153.871 121.879C152.81 122.834 151.553 123.549 150.187 123.972C148.276 124.628 146.223 124.755 144.246 124.34C145.188 138.92 164.202 143.78 164.407 143.821C164.679 143.854 164.926 143.992 165.096 144.207C165.265 144.421 165.341 144.694 165.309 144.965C165.276 145.235 165.137 145.482 164.922 145.651C164.706 145.819 164.433 145.896 164.161 145.863L164.182 145.883ZM144.246 122.298C145.999 122.719 147.836 122.649 149.552 122.094C150.622 121.759 151.608 121.202 152.445 120.46C153.282 119.717 153.951 118.805 154.408 117.785C154.632 117.182 154.71 116.535 154.635 115.896C154.56 115.257 154.335 114.645 153.978 114.109C153.684 113.548 153.255 113.067 152.73 112.711C152.204 112.355 151.598 112.134 150.966 112.067C150.242 112.046 149.522 112.195 148.867 112.504C148.212 112.813 147.639 113.272 147.196 113.844C145.475 116.093 144.463 118.801 144.287 121.624C144.266 121.889 144.246 122.094 144.246 122.298Z"
        fill="#1ED6A6" />
    <path d="M57.8083 36.8929L115.038 69.0712L116.559 66.3856L59.3285 34.2073L57.8083 36.8929Z" fill="#F050F8" />
    <path d="M54.8541 43.5555L111.954 75.9625L113.485 73.2831L56.3851 40.876L54.8541 43.5555Z" fill="#F050F8" />
    <path d="M74.598 134.025L106.404 76.7201L103.697 75.2275L71.8907 132.533L74.598 134.025Z" fill="#F050F8" />
    <path d="M81.3442 136.895L113.381 79.7182L110.68 78.2148L78.6429 135.392L81.3442 136.895Z" fill="#F050F8" />
    <path
        d="M113.04 85.8679C120.237 85.8679 126.071 80.0532 126.071 72.8805C126.071 65.7077 120.237 59.8931 113.04 59.8931C105.843 59.8931 100.009 65.7077 100.009 72.8805C100.009 80.0532 105.843 85.8679 113.04 85.8679Z"
        fill="#5840FF" />
    <path
        d="M118.285 73.0847C118.255 74.103 117.926 75.0902 117.339 75.924C116.751 76.7577 115.931 77.4014 114.98 77.7752C114.029 78.1491 112.989 78.2368 111.989 78.0273C110.988 77.8179 110.072 77.3206 109.352 76.597C108.837 76.0938 108.435 75.4883 108.17 74.8199C107.905 74.1515 107.784 73.4351 107.815 72.7171C107.877 71.5636 108.321 70.463 109.077 69.5873C109.833 68.7116 110.859 68.1102 111.994 67.8769C113.129 67.6436 114.31 67.7917 115.352 68.2979C116.394 68.8041 117.238 69.6401 117.753 70.6751C118.127 71.4222 118.31 72.25 118.285 73.0847Z"
        fill="#FFA26B" />
    <path
        d="M98.0214 146.557H58.4973C58.4973 146.557 61.038 128.914 79.7039 129.853C89.2314 130.323 93.8006 134.673 96.0954 138.818C97.3285 141.215 97.9877 143.864 98.0214 146.557Z"
        fill="#5840FF" />
    <path
        d="M62.2469 51.0511L54.5838 42.8829L48.5394 36.3892C48.5394 36.3892 55.137 23.0342 66.4882 32.5297L66.6316 32.6523C78.0647 42.3111 62.2469 51.0511 62.2469 51.0511Z"
        fill="#5840FF" />
    <path
        d="M56.9811 54.012L48.5804 80.9057L29.7711 59.7093L19.0961 47.7021L43.6834 41.9027L45.6095 41.4534L56.9196 53.9712L56.9811 54.012Z"
        fill="#5840FF" />
    <path
        d="M128.489 115.253C129.745 113.565 130.868 111.783 131.849 109.923C131.964 109.707 131.991 109.457 131.926 109.221C131.862 108.986 131.71 108.785 131.501 108.657C131.289 108.539 131.039 108.509 130.805 108.574C130.571 108.639 130.372 108.794 130.251 109.004C129.281 110.877 128.157 112.666 126.891 114.354C126.771 114.563 126.738 114.811 126.799 115.044C126.861 115.277 127.011 115.477 127.219 115.6C127.432 115.721 127.683 115.754 127.92 115.693C128.158 115.632 128.362 115.482 128.489 115.273V115.253Z"
        fill="#1ED6A6" />
    <path
        d="M124.76 114.068C124.76 112.169 124.76 110.291 124.76 108.392C124.76 108.148 124.663 107.914 124.49 107.742C124.317 107.569 124.083 107.473 123.838 107.473C123.594 107.473 123.359 107.569 123.186 107.742C123.013 107.914 122.916 108.148 122.916 108.392C122.916 110.291 122.916 112.169 122.916 114.068C122.926 114.309 123.026 114.537 123.197 114.707C123.368 114.877 123.597 114.977 123.838 114.987C124.081 114.982 124.312 114.884 124.484 114.712C124.656 114.541 124.755 114.311 124.76 114.068Z"
        fill="#1ED6A6" />
    <path
        d="M174.508 150.213C174.286 151.525 173.929 152.812 173.443 154.052C173.388 154.298 173.432 154.556 173.566 154.77C173.7 154.984 173.914 155.137 174.16 155.195C174.396 155.252 174.645 155.216 174.855 155.094C175.065 154.972 175.22 154.774 175.287 154.542C175.724 153.296 176.033 152.01 176.209 150.703C176.292 150.472 176.292 150.219 176.209 149.988C176.08 149.786 175.884 149.634 175.656 149.559C175.417 149.502 175.165 149.537 174.952 149.659C174.739 149.78 174.58 149.978 174.508 150.213Z"
        fill="#1ED6A6" />
    <path
        d="M178.647 150.519C179.063 151.917 179.76 153.216 180.696 154.338C180.872 154.508 181.107 154.603 181.352 154.603C181.596 154.599 181.83 154.504 182.008 154.338C182.17 154.157 182.264 153.926 182.274 153.684C182.247 153.446 182.155 153.22 182.008 153.031C182.008 153.031 182.008 152.908 181.844 152.867C181.68 152.826 181.946 152.99 181.844 152.867L181.577 152.5C181.413 152.234 181.249 151.969 181.106 151.683C181.029 151.544 180.961 151.401 180.901 151.254V151.05V150.927C180.777 150.635 180.675 150.335 180.594 150.029C180.561 149.912 180.506 149.803 180.432 149.708C180.357 149.612 180.264 149.532 180.159 149.472C179.946 149.352 179.693 149.321 179.457 149.386C179.22 149.451 179.019 149.606 178.898 149.819C178.777 150.032 178.746 150.283 178.811 150.519H178.647Z"
        fill="#1ED6A6" />
    <path
        d="M181.844 148.395C182.52 148.722 183.175 149.069 183.893 149.457C184.61 149.845 184.548 149.865 184.856 150.09L185.306 150.417L185.552 150.58C185.728 150.75 185.963 150.845 186.208 150.845C186.453 150.845 186.688 150.75 186.864 150.58C187.034 150.405 187.129 150.171 187.129 149.927C187.129 149.683 187.034 149.448 186.864 149.273C185.604 148.269 184.229 147.418 182.766 146.741C182.556 146.622 182.307 146.589 182.074 146.65C181.84 146.711 181.64 146.861 181.516 147.068C181.454 147.171 181.413 147.285 181.396 147.404C181.378 147.522 181.385 147.644 181.416 147.76C181.446 147.876 181.5 147.985 181.574 148.08C181.647 148.175 181.739 148.254 181.844 148.314V148.395Z"
        fill="#1ED6A6" />
</svg>