<svg width="276" height="178" viewBox="0 0 276 178" fill="none" xmlns="http://www.w3.org/2000/svg">
    <path
        d="M161.875 159.92C161.099 159.755 160.31 159.578 159.522 159.402C159.604 150.099 158.427 128.141 145.952 124.401C131.688 120.12 108.926 131.893 103.371 134.939C102.618 134.48 101.853 134.01 101.088 133.54C103.618 132.046 129.875 117.121 146.623 122.143C161.016 126.459 162.052 150.44 161.875 159.92Z"
        fill="#6018C8" />
    <path
        d="M150.86 157.062C150.083 156.838 149.306 156.591 148.517 156.332C148.459 149.617 146.999 136.527 140.456 135.057C131.923 133.14 121.908 137.103 115.517 141.925C114.775 141.525 114.022 141.114 113.269 140.702C120.036 135.268 131.346 130.599 140.973 132.763C150.295 134.857 150.871 152.463 150.86 157.062Z"
        fill="#6018C8" />
    <path
        d="M139.302 153.051C138.537 152.757 137.761 152.463 136.996 152.133C137.09 149.887 136.913 145.735 134.43 145.218C131.817 144.665 128.91 146.512 127.274 147.888H127.262C126.498 147.523 125.744 147.158 124.968 146.782C126.192 145.618 130.452 141.972 134.912 142.913C139.597 143.901 139.502 150.64 139.302 153.051Z"
        fill="#6018C8" />
    <path
        d="M81.7342 117.553C81.0516 117.059 80.3689 116.554 79.6981 116.048V116.036C80.9927 110.779 84.0644 95.5483 77.7209 90.4322C71.6363 85.5279 58.3372 90.2558 52.9352 92.5022C52.335 91.9024 51.7583 91.2908 51.1934 90.6792C56.2776 88.4682 71.6951 82.5641 79.192 88.5975C87.1597 95.019 82.9228 113.166 81.7342 117.553Z"
        fill="#6018C8" />
    <path
        d="M72.2601 110.203C71.6363 109.697 71.0126 109.179 70.3888 108.662C71.8011 105.698 73.5547 100.218 71.3656 98.9003C69.2001 97.6066 65.0927 100.041 62.6212 101.876C62.021 101.358 61.4325 100.817 60.8558 100.265C63.3862 98.3005 68.8706 94.6664 72.5779 96.8892C77.2973 99.7236 73.0251 108.697 72.2601 110.203Z"
        fill="#6018C8" />
    <path d="M66.4638 32.0001L0 50.9507L27.1558 146.062L93.6196 127.111L66.4638 32.0001Z" fill="#5840FF" />
    <path d="M64.1973 41.6185L7.46326 57.7949L11.5398 72.0727L68.2739 55.8963L64.1973 41.6185Z" fill="#60F0F8" />
    <path d="M24.7962 73.2996L12.9089 76.689L16.4442 89.071L28.3315 85.6816L24.7962 73.2996Z" fill="#6675F6" />
    <path d="M29.164 88.5975L17.2767 91.9868L20.688 103.934L32.5753 100.545L29.164 88.5975Z" fill="#6675F6" />
    <path d="M33.4078 103.461L21.5205 106.85L24.9318 118.798L36.8191 115.408L33.4078 103.461Z" fill="#6675F6" />
    <path d="M37.6514 118.324L25.7642 121.713L29.3991 134.444L41.2863 131.055L37.6514 118.324Z" fill="#6675F6" />
    <path d="M39.6697 69.0588L27.7139 72.4678L31.2492 84.8499L43.205 81.4409L39.6697 69.0588Z" fill="#6675F6" />
    <path d="M54.543 64.8181L42.5872 68.2271L46.1224 80.6091L58.0783 77.2002L54.543 64.8181Z" fill="#6675F6" />
    <path d="M44.0375 84.3567L32.0817 87.7656L35.4929 99.7133L47.4488 96.3044L44.0375 84.3567Z" fill="#6675F6" />
    <path d="M58.9107 80.116L46.9548 83.5249L50.3661 95.4726L62.322 92.0637L58.9107 80.116Z" fill="#6675F6" />
    <path d="M48.2811 99.2195L36.3252 102.628L39.7365 114.576L51.6924 111.167L48.2811 99.2195Z" fill="#6675F6" />
    <path d="M63.1543 94.9788L51.1985 98.3877L54.6098 110.335L66.5656 106.926L63.1543 94.9788Z" fill="#6675F6" />
    <path d="M52.5248 114.083L40.569 117.492L44.2039 130.223L56.1597 126.814L52.5248 114.083Z" fill="#6675F6" />
    <path d="M67.3981 109.842L55.4423 113.251L59.0772 125.982L71.033 122.573L67.3981 109.842Z" fill="#FFA26B" />
    <path d="M82.5747 105.515L70.3157 109.01L73.9506 121.741L86.2096 118.246L82.5747 105.515Z" fill="#18F0B8" />
    <path d="M78.3311 90.6516L66.072 94.147L69.4833 106.095L81.7424 102.599L78.3311 90.6516Z" fill="#18F0B8" />
    <path d="M74.0874 75.7883L61.8284 79.2837L65.2397 91.2314L77.4987 87.736L74.0874 75.7883Z" fill="#18F0B8" />
    <path d="M69.7196 60.4909L57.4606 63.9863L60.9959 76.3684L73.2549 72.873L69.7196 60.4909Z" fill="#18F0B8" />
    <path
        d="M28.9341 114.636L30.3067 114.245L28.4889 107.879L27.5407 108.15L25.8803 109.209L26.4941 110.264L27.5185 109.679L28.9341 114.636Z"
        fill="#F0FFFF" />
    <path
        d="M34.0037 129.506C35.6924 129.025 36.4113 127.267 35.8878 125.434L35.8827 125.416C35.3593 123.583 33.8256 122.487 32.155 122.963C30.4753 123.442 29.7474 125.203 30.2708 127.036L30.276 127.054C30.7994 128.887 32.315 129.988 34.0037 129.506ZM33.6634 128.246C32.8235 128.485 32.0277 127.785 31.6977 126.629L31.6925 126.611C31.3625 125.455 31.6645 124.461 32.4953 124.224C33.3261 123.987 34.1335 124.694 34.461 125.841L34.4662 125.859C34.7936 127.006 34.5032 128.006 33.6634 128.246Z"
        fill="#F0FFFF" />
    <path d="M48.047 123.372L49.51 122.955L49.0974 121.51L47.6345 121.927L48.047 123.372Z" fill="#F0FFFF" />
    <path
        d="M42.7691 110.614L47.447 109.28L47.104 108.079L44.3497 108.865L45.1523 107.777C46.0245 106.59 46.4168 105.912 46.1152 104.856L46.11 104.838C45.7722 103.655 44.6861 103.134 43.3767 103.508C42.2479 103.83 41.7743 104.463 41.3936 105.489L42.5932 105.997C42.8978 105.285 43.1546 104.919 43.6422 104.78C44.1389 104.638 44.5736 104.827 44.7257 105.359C44.8753 105.883 44.6662 106.314 44.0662 107.188L42.4546 109.513L42.7691 110.614Z"
        fill="#F0FFFF" />
    <path
        d="M60.1661 106.048C61.5748 105.646 62.1917 104.523 61.8513 103.331L61.8462 103.313C61.511 102.139 60.5422 101.927 59.643 102.027L60.8057 100.046L60.5066 98.9981L56.2351 100.216L56.5755 101.408L59.0589 100.7L57.984 102.647L58.4534 103.47L59.0314 103.305C59.808 103.084 60.351 103.241 60.498 103.756L60.5032 103.774C60.6373 104.244 60.3521 104.647 59.8283 104.797C59.1871 104.979 58.6583 104.837 58.0856 104.473L57.3887 105.658C58.1136 106.145 59.0282 106.372 60.1661 106.048Z"
        fill="#F0FFFF" />
    <path
        d="M25.9208 99.0382L27.2483 98.6597L26.8589 97.2962L27.7078 97.0541L27.3855 95.9254L26.5366 96.1675L25.4305 92.2938L24.2565 92.6285L21.9362 97.6356L22.443 98.5555L25.5314 97.6747L25.9208 99.0382ZM23.5295 97.025L24.647 94.5776L25.2091 96.546L23.5295 97.025Z"
        fill="#F0FFFF" />
    <path
        d="M40.2564 94.9134C41.7103 94.4988 42.4162 93.3796 42.0346 92.0432L42.0294 92.0252C41.622 90.5985 40.4675 90.2832 39.2394 90.6335C38.8872 90.7339 38.6743 90.8434 38.4395 90.9787L38.1997 89.8655L40.8908 89.0981L40.5428 87.8791L36.6596 88.9865L37.3686 92.1532L38.3244 92.4567C38.5863 92.2454 38.9166 92.034 39.314 91.9207C39.9732 91.7327 40.524 91.9174 40.6787 92.4592L40.6839 92.4772C40.8437 93.0371 40.5276 93.469 39.8774 93.6544C39.3175 93.8141 38.7757 93.6951 38.1733 93.3982L37.6197 94.64C38.4014 95.0518 39.245 95.2018 40.2564 94.9134Z"
        fill="#F0FFFF" />
    <path
        d="M55.4189 91.2985C56.7916 90.9071 57.5748 89.717 57.2061 88.4258L57.2009 88.4077C56.8245 87.0894 55.6597 86.6696 54.4044 87.0276C53.8265 87.1924 53.4807 87.4863 53.211 87.8073C53.0989 87.2436 53.1184 86.2518 54.0666 85.9814C54.6085 85.8269 54.9967 85.9212 55.5024 86.1188L55.927 84.8357C55.2408 84.5529 54.6087 84.4597 53.7508 84.7044C51.8634 85.2426 51.4064 86.9939 51.9634 88.9443L51.9685 88.9624C52.3269 90.2175 52.8093 90.8123 53.4014 91.1415C53.9702 91.4577 54.5971 91.5328 55.4189 91.2985ZM55.0244 90.122C54.3381 90.3178 53.8066 90.0299 53.6545 89.4971L53.6493 89.4791C53.4972 88.9463 53.7863 88.4538 54.4726 88.2581C55.1589 88.0623 55.6852 88.3322 55.8373 88.8649L55.8425 88.883C55.9972 89.4247 55.7107 89.9263 55.0244 90.122Z"
        fill="#F0FFFF" />
    <path
        d="M19.2297 85.3742L20.8011 84.9261L22.1308 78.8442L21.8317 77.7967L17.2803 79.0946L17.6233 80.2956L20.5943 79.4483L19.2297 85.3742Z"
        fill="#F0FFFF" />
    <path
        d="M36.3416 79.8696C37.7413 79.4704 38.5839 78.488 38.2487 77.3142L38.2435 77.2961C38.0295 76.5467 37.5342 76.2485 36.7976 76.0972C37.2002 75.6602 37.4002 75.1637 37.2068 74.4865L37.2017 74.4685C36.9232 73.4933 35.8216 72.9871 34.4851 73.3683C33.1486 73.7494 32.4827 74.7693 32.7586 75.7354L32.7638 75.7535C32.9572 76.4307 33.3893 76.7469 33.962 76.9058C33.3814 77.4034 33.1582 77.9553 33.3773 78.7228L33.3825 78.7409C33.697 79.8425 34.9418 80.2687 36.3416 79.8696ZM35.2483 76.041C34.6975 76.1981 34.2499 75.9644 34.1235 75.522L34.1184 75.5039C34.0075 75.1157 34.2436 74.6773 34.8126 74.515C35.3815 74.3528 35.8162 74.6097 35.927 74.9979L35.9322 75.016C36.0586 75.4584 35.7992 75.8839 35.2483 76.041ZM36.0141 78.7228C35.3278 78.9185 34.8209 78.6823 34.6971 78.2488L34.6919 78.2308C34.5527 77.7432 34.9307 77.3229 35.5629 77.1426C36.195 76.9624 36.7381 77.12 36.8773 77.6076L36.8825 77.6257C37.0088 78.0681 36.7004 78.5271 36.0141 78.7228Z"
        fill="#F0FFFF" />
    <path
        d="M50.76 75.1193C50.2272 75.2713 49.7899 75.2104 49.2236 74.9716L48.7938 76.2366C49.4529 76.5271 50.1637 76.6565 51.0848 76.3938C52.8819 75.8813 53.4485 74.2062 52.8632 72.1565L52.8581 72.1384C52.5022 70.8923 52.0083 70.2911 51.4278 69.9683C50.8125 69.6262 50.2565 69.5602 49.4077 69.8023C47.9808 70.2091 47.2647 71.4289 47.6282 72.7021L47.6334 72.7201C47.9995 74.0023 49.1011 74.5085 50.4738 74.117C51.0156 73.9625 51.3846 73.6815 51.6323 73.318C51.7329 73.8752 51.7172 74.8464 50.76 75.1193ZM50.3695 72.8969C49.6832 73.0926 49.1569 72.8228 48.997 72.2629L48.9919 72.2449C48.832 71.685 49.1068 71.177 49.7932 70.9813C50.4885 70.783 51.02 71.0709 51.1798 71.6307L51.185 71.6488C51.3397 72.1906 51.0558 72.7012 50.3695 72.8969Z"
        fill="#F0FFFF" />
    <path
        d="M61.2933 118.557L65.7544 117.284L65.3985 116.038L60.9375 117.31L61.2933 118.557ZM61.9637 120.904L66.4248 119.632L66.0689 118.386L61.6078 119.658L61.9637 120.904Z"
        fill="#F0FFFF" />
    <path
        d="M78.3097 116.492L79.592 116.126L79.1279 114.501L80.7624 114.035L80.4066 112.789L78.7721 113.255L78.3079 111.629L77.0256 111.995L77.4897 113.62L75.8552 114.087L76.211 115.333L77.8455 114.867L78.3097 116.492Z"
        fill="#190048" />
    <path d="M73.1671 99.8261L75.9485 99.0329L75.572 97.7146L72.7906 98.5078L73.1671 99.8261Z" fill="#180048" />
    <path
        d="M70.0151 80.8215L69.4192 82.7288L67.9271 81.417L66.653 81.7803L69.0045 83.7426L67.9969 86.7547L69.2356 86.4015L69.8689 84.384L71.4652 85.7657L72.7393 85.4023L70.2887 83.3611L71.2538 80.4683L70.0151 80.8215Z"
        fill="#180048" />
    <path d="M63.838 72.1342L64.751 71.8738L66.0153 64.4259L65.1022 64.6863L63.838 72.1342Z" fill="#180048" />
    <path d="M264.92 65.0001L179 84.812L189.32 129.507L275.24 109.695L264.92 65.0001Z" fill="#15F0B7" />
    <path
        d="M271.249 107.851L192.078 126.107L182.926 86.4695L262.096 68.2139L271.249 107.851ZM192.857 124.861L270.002 107.073L261.317 69.4597L184.173 87.2482L192.857 124.861Z"
        fill="#12C093" />
    <path d="M205.917 83.9886L186.658 88.4297L187.006 89.9363L206.265 85.4952L205.917 83.9886Z" fill="#12C093" />
    <path d="M262.089 88.3978L242.348 92.9497L242.587 93.9852L262.328 89.4333L262.089 88.3978Z" fill="#12C093" />
    <path d="M265.975 98.845L242.814 104.186L244.321 110.71L267.481 105.369L265.975 98.845Z" fill="#91F8DD" />
    <path
        d="M191.176 120.305L209.806 116.009C211.119 115.707 212.5 115.938 213.643 116.652C214.786 117.366 215.599 118.505 215.902 119.817L192.157 125.293L191.176 120.305Z"
        fill="#12C093" />
    <path
        d="M262.52 74.0026L243.89 78.2983C242.576 78.6011 241.196 78.37 240.053 77.6559C238.909 76.9418 238.097 75.8032 237.793 74.4905L261.538 69.0151L262.52 74.0026Z"
        fill="#12C093" />
    <path
        d="M253.294 95.4258C252.447 95.6211 251.561 95.561 250.748 95.2531C249.935 94.9452 249.232 94.4033 248.727 93.696C248.223 92.9887 247.939 92.1476 247.913 91.2793C247.886 90.411 248.118 89.5543 248.579 88.8176C249.04 88.081 249.709 87.4974 250.501 87.1407C251.294 86.784 252.175 86.6703 253.032 86.8138C253.89 86.9573 254.685 87.3517 255.318 87.947C255.951 88.5424 256.394 89.312 256.589 90.1585C256.85 91.2935 256.649 92.4855 256.032 93.4729C255.414 94.4604 254.429 95.1627 253.294 95.4258ZM251.552 87.8782C250.905 88.0274 250.317 88.3648 249.862 88.8478C249.407 89.3308 249.106 89.9377 248.996 90.5919C248.887 91.246 248.974 91.9179 249.246 92.5227C249.519 93.1274 249.965 93.6379 250.527 93.9894C251.09 94.341 251.745 94.5178 252.408 94.4977C253.071 94.4775 253.714 94.2613 254.254 93.8762C254.795 93.4912 255.209 92.9546 255.444 92.3344C255.679 91.7143 255.725 91.0383 255.576 90.392C255.375 89.5259 254.838 88.7748 254.084 88.3035C253.329 87.8323 252.419 87.6793 251.552 87.8782Z"
        fill="#12C093" />
    <path
        d="M230.396 112.659C237.426 111.039 241.536 102.843 239.576 94.3542C237.616 85.8654 230.328 80.298 223.298 81.919C216.268 83.5399 212.159 91.7355 214.119 100.224C216.079 108.713 223.366 114.28 230.396 112.659Z"
        fill="#12C093" />
    <path
        d="M201.041 104.599C202.955 104.599 204.506 103.049 204.506 101.136C204.506 99.2241 202.955 97.6738 201.041 97.6738C199.127 97.6738 197.576 99.2241 197.576 101.136C197.576 103.049 199.127 104.599 201.041 104.599Z"
        fill="#12C093" />
    <path d="M207.898 105.247L196.342 107.912L196.882 110.251L208.438 107.586L207.898 105.247Z" fill="#12C093" />
    <path d="M260.556 76.9999L249 79.6646L249.27 80.8339L260.826 78.1693L260.556 76.9999Z" fill="#91F8DD" />
    <path
        d="M254.372 16.159C253.747 17.1103 253.271 17.4512 253.278 15.8415C252.654 16.8707 252.212 17.0617 252.143 15.5122C251.381 16.6512 250.997 16.5589 251.013 15.1846C249.951 16.7253 249.895 15.7844 249.839 14.8436C248.998 16.1534 248.762 15.717 248.789 14.5392C248.079 15.7174 247.747 15.5923 247.784 14.2479C247.026 15.5573 246.794 15.1709 246.814 13.9668C246.09 15.1118 245.751 15.0428 245.827 13.6806C245.168 14.6656 244.716 14.9218 244.755 13.3698C244.026 14.5959 243.742 14.3731 243.79 13.0901C243.124 14.1651 242.739 14.2568 242.803 12.8038C242.07 13.9948 241.771 13.8403 241.834 12.5229C241.056 13.8509 240.824 13.4158 240.824 12.2303C239.824 13.7552 239.775 12.8746 239.756 11.9207C238.788 13.3386 238.653 12.6511 238.667 11.6047C238.032 12.6549 237.643 12.813 237.697 11.3237C237.079 12.3835 236.72 12.5359 236.831 11.0725C236.076 12.3545 235.838 12.0235 235.888 10.7992C235.12 12.0768 234.879 11.7401 234.919 10.5182C233.982 11.9937 233.93 11.2382 233.972 10.2437C233.17 11.5888 232.977 11.1168 233.002 9.96261C232.372 11.0671 232.012 11.1225 232.037 9.68293C231.404 10.7625 231.005 10.8548 230.988 9.37856C230.249 10.5874 229.935 10.3849 229.96 9.08077C229.276 10.2036 228.915 10.1957 228.951 8.78803C228.347 9.79878 227.946 10.0455 228.004 8.51353C227.362 9.60519 226.969 9.67517 226.954 8.20916C226.075 9.68682 225.945 8.93293 225.904 7.9049C225.189 9.21719 224.971 8.84919 224.998 7.64204C224.319 8.81462 224.003 8.71817 224.051 7.36742C223.389 8.49648 223.052 8.49083 223.104 7.09292C222.514 8.10754 222.107 8.35746 222.139 6.81324C221.441 8.08214 221.184 7.79952 221.21 6.5438C220.357 8.02922 220.214 7.27145 220.16 6.23953C219.308 7.54101 219.033 7.10327 219.008 5.90541C218.125 7.30956 217.989 6.69422 218.02 5.61926C217.269 6.75643 216.877 6.67187 216.868 5.28512C216.098 6.47005 215.779 6.30022 215.841 4.98722C214.889 6.41478 214.712 5.70535 214.666 4.64615C214.151 5.46942 213.656 6.13921 213.536 4.3186C212.729 5.57997 212.44 5.23985 212.437 4L202.851 37.0203L192 74.3968C192.625 73.4455 193.102 73.1045 193.095 74.7144C193.718 73.6852 194.161 73.4941 194.229 75.0437C194.991 73.9046 195.376 73.997 195.359 75.3714C196.421 73.8307 196.477 74.7716 196.534 75.7124C197.374 74.4026 197.611 74.8388 197.583 76.0168C198.294 74.8385 198.625 74.9636 198.589 76.3081C199.347 74.9985 199.578 75.3851 199.558 76.5892C200.283 75.444 200.621 75.5132 200.545 76.8754C201.204 75.8903 201.656 75.6342 201.617 77.1862C202.346 75.96 202.63 76.1828 202.582 77.4659C203.248 76.3908 203.633 76.2992 203.569 77.752C204.302 76.5612 204.602 76.7155 204.539 78.0331C205.316 76.7051 205.549 77.1401 205.548 78.3257C206.548 76.8008 206.597 77.6814 206.616 78.6353C207.584 77.2173 207.719 77.9049 207.706 78.9513C208.34 77.9009 208.73 77.743 208.675 79.2323C209.293 78.1724 209.652 78.02 209.542 79.4835C210.296 78.2015 210.534 78.5324 210.484 79.7567C211.252 78.4791 211.494 78.8158 211.453 80.0378C212.39 78.5623 212.442 79.3178 212.4 80.3123C213.203 78.9671 213.395 79.4392 213.37 80.5934C214 79.4888 214.36 79.4334 214.335 80.873C214.968 79.7934 215.368 79.7012 215.385 81.1774C216.123 79.9686 216.437 80.171 216.412 81.4752C217.096 80.3524 217.457 80.3602 217.422 81.768C218.025 80.7565 218.426 80.5104 218.369 82.0425C219.01 80.9507 219.403 80.8808 219.418 82.3467C220.298 80.8691 220.428 81.6229 220.468 82.6511C221.183 81.3387 221.401 81.7067 221.374 82.9139C222.054 81.7413 222.37 81.8377 222.321 83.1886C222.983 82.0595 223.32 82.0652 223.268 83.4631C223.858 82.4483 224.265 82.1985 224.233 83.7427C224.931 82.4738 225.188 82.7563 225.162 84.0122C226.015 82.5266 226.158 83.2844 226.212 84.3165C227.065 83.0149 227.339 83.4527 227.365 84.6506C228.247 83.2463 228.383 83.8616 228.352 84.9367C229.103 83.7994 229.495 83.8841 229.504 85.2709C230.274 84.0858 230.593 84.2556 230.532 85.5688C231.484 84.1412 231.66 84.8505 231.706 85.9098C232.222 85.0866 232.716 84.4168 232.836 86.2374C233.643 84.9759 233.932 85.3161 233.935 86.556L243.521 53.5372L254.372 16.159Z"
        fill="white" />
    <path d="M246.821 23.9414L214.081 14.4497L213.793 15.4394L246.534 24.9312L246.821 23.9414Z" fill="#0F0030" />
    <path d="M244.748 31.0835L212.007 21.5918L211.72 22.5815L244.46 32.0732L244.748 31.0835Z" fill="#0F0030" />
    <path d="M210.842 25.6082L210.554 26.5991L219.725 29.2579L220.013 28.2669L210.842 25.6082Z" fill="#0F0030" />
    <path d="M238.841 33.7249L238.553 34.7158L243.293 36.0899L243.581 35.099L238.841 33.7249Z" fill="#0F0030" />
    <path d="M209.928 28.7303L209.64 29.7212L222.223 33.3689L222.511 32.378L209.928 28.7303Z" fill="#0F0030" />
    <path d="M235.41 36.1179L235.122 37.1089L242.386 39.2145L242.673 38.2235L235.41 36.1179Z" fill="#0F0030" />
    <path d="M209.028 31.8572L208.74 32.8481L214.856 34.621L215.143 33.6301L209.028 31.8572Z" fill="#0F0030" />
    <path d="M237.25 40.0393L236.962 41.0303L241.479 42.3395L241.766 41.3486L237.25 40.0393Z" fill="#0F0030" />
    <path d="M208.121 34.9822L207.833 35.9731L223.03 40.3787L223.317 39.3878L208.121 34.9822Z" fill="#0F0030" />
    <path d="M236.432 43.1897L236.145 44.1807L240.571 45.4641L240.859 44.4731L236.432 43.1897Z" fill="#0F0030" />
    <path d="M207.084 38.5535L206.796 39.5444L219.38 43.1924L219.667 42.2014L207.084 38.5535Z" fill="#0F0030" />
    <path d="M234.949 46.6316L234.661 47.6226L239.535 49.0354L239.822 48.0445L234.949 46.6316Z" fill="#0F0030" />
    <path d="M206.177 41.678L205.889 42.6689L218.473 46.3169L218.76 45.326L206.177 41.678Z" fill="#0F0030" />
    <path d="M234.086 49.7693L233.799 50.7603L238.628 52.1602L238.915 51.1693L234.086 49.7693Z" fill="#0F0030" />
    <path d="M205.27 44.8025L204.982 45.7935L220.71 50.3532L220.998 49.3622L205.27 44.8025Z" fill="#0F0030" />
    <path d="M233.224 52.907L232.936 53.8979L237.72 55.285L238.008 54.294L233.224 52.907Z" fill="#0F0030" />
    <path d="M204.363 47.9275L204.075 48.9185L216.659 52.5665L216.946 51.5755L204.363 47.9275Z" fill="#0F0030" />
    <path d="M229.793 55.2996L229.505 56.2905L236.813 58.4092L237.101 57.4182L229.793 55.2996Z" fill="#0F0030" />
    <path d="M203.326 51.4983L203.039 52.4893L210.838 54.7503L211.126 53.7594L203.326 51.4983Z" fill="#0F0030" />
    <path d="M231.28 59.6028L230.992 60.5938L235.777 61.9808L236.064 60.9898L231.28 59.6028Z" fill="#0F0030" />
    <path d="M234.769 65.4556L202.029 55.9639L201.742 56.9536L234.482 66.4453L234.769 65.4556Z" fill="#0F0030" />
    <path d="M200.627 64.0709L199.754 63.8179L197.204 72.6015L198.077 72.8545L200.627 64.0709Z" fill="#0F0030" />
    <path d="M201.409 64.2973L201.094 64.2061L198.544 72.9896L198.859 73.0809L201.409 64.2973Z" fill="#0F0030" />
    <path d="M201.855 64.4267L201.541 64.3354L198.991 73.119L199.306 73.2103L201.855 64.4267Z" fill="#0F0030" />
    <path d="M203.059 64.7759L201.988 64.4653L199.438 73.2489L200.509 73.5595L203.059 64.7759Z" fill="#0F0030" />
    <path d="M203.991 65.0382L203.331 64.8467L200.781 73.6302L201.442 73.8217L203.991 65.0382Z" fill="#0F0030" />
    <path d="M204.555 65.2012L204.224 65.1055L201.674 73.889L202.005 73.9848L204.555 65.2012Z" fill="#0F0030" />
    <path d="M204.998 65.338L204.668 65.2422L202.118 74.0258L202.448 74.1215L204.998 65.338Z" fill="#0F0030" />
    <path d="M205.726 65.5488L205.561 65.501L203.011 74.2846L203.176 74.3324L205.726 65.5488Z" fill="#0F0030" />
    <path d="M206.44 65.7557L206.008 65.6304L203.458 74.414L203.89 74.5393L206.44 65.7557Z" fill="#0F0030" />
    <path d="M206.886 65.8854L206.605 65.8037L204.055 74.5873L204.337 74.6689L206.886 65.8854Z" fill="#0F0030" />
    <path d="M207.333 66.0148L207.052 65.9331L204.502 74.7167L204.784 74.7984L207.333 66.0148Z" fill="#0F0030" />
    <path d="M208.525 66.3608L207.498 66.063L204.948 74.8466L205.976 75.1444L208.525 66.3608Z" fill="#0F0030" />
    <path d="M209.48 66.6373L208.838 66.4512L206.288 75.2348L206.93 75.4209L209.48 66.6373Z" fill="#0F0030" />
    <path d="M210.03 66.797L209.732 66.7104L207.182 75.494L207.48 75.5805L210.03 66.797Z" fill="#0F0030" />
    <path d="M210.477 66.9264L210.178 66.8398L207.629 75.6234L207.927 75.7099L210.477 66.9264Z" fill="#0F0030" />
    <path d="M212.94 67.6405L212.412 67.4873L209.862 76.2709L210.39 76.4241L212.94 67.6405Z" fill="#0F0030" />
    <path d="M213.834 67.8998L213.305 67.7466L210.756 76.5302L211.284 76.6834L213.834 67.8998Z" fill="#0F0030" />
    <path d="M215.28 68.3186L214.199 68.0054L211.649 76.789L212.73 77.1022L215.28 68.3186Z" fill="#0F0030" />
    <path d="M216.364 68.6332L215.986 68.5234L213.436 77.307L213.814 77.4168L216.364 68.6332Z" fill="#0F0030" />
    <path d="M217.258 68.892L216.879 68.7822L214.329 77.5658L214.708 77.6756L217.258 68.892Z" fill="#0F0030" />
    <path d="M219.234 69.4652L217.772 69.0415L215.222 77.8251L216.684 78.2488L219.234 69.4652Z" fill="#0F0030" />
    <path d="M219.925 69.6653L219.559 69.5591L217.009 78.3427L217.376 78.4489L219.925 69.6653Z" fill="#0F0030" />
    <path d="M220.819 69.9246L220.452 69.8184L217.902 78.6019L218.269 78.7081L220.819 69.9246Z" fill="#0F0030" />
    <path d="M221.712 70.1833L221.346 70.0771L218.796 78.8607L219.162 78.9669L221.712 70.1833Z" fill="#0F0030" />
    <path d="M222.359 70.3713L221.792 70.207L219.243 78.9906L219.809 79.1549L222.359 70.3713Z" fill="#0F0030" />
    <path d="M224.587 71.0168L223.133 70.5952L220.583 79.3788L222.037 79.8004L224.587 71.0168Z" fill="#0F0030" />
    <path d="M225.517 71.2865L224.919 71.1133L222.37 79.8969L222.967 80.0701L225.517 71.2865Z" fill="#0F0030" />
    <path d="M226.41 71.5458L225.813 71.3726L223.263 80.1561L223.861 80.3293L226.41 71.5458Z" fill="#0F0030" />
    <path d="M227.02 71.7136L226.709 71.6235L224.16 80.4071L224.47 80.4972L227.02 71.7136Z" fill="#0F0030" />
    <path d="M228.403 72.1231L227.6 71.8901L225.05 80.6737L225.853 80.9067L228.403 72.1231Z" fill="#0F0030" />
    <path d="M228.898 72.258L228.496 72.1416L225.947 80.9251L226.348 81.0416L228.898 72.258Z" fill="#0F0030" />
    <path d="M229.931 72.5662L229.386 72.4082L226.836 81.1918L227.381 81.3498L229.931 72.5662Z" fill="#0F0030" />
    <path d="M230.825 72.8255L230.28 72.6675L227.73 81.451L228.275 81.6091L230.825 72.8255Z" fill="#0F0030" />
    <path d="M231.722 73.0765L231.177 72.9185L228.627 81.702L229.172 81.8601L231.722 73.0765Z" fill="#0F0030" />
    <path d="M232.165 73.2138L231.892 73.1348L229.342 81.9183L229.615 81.9974L232.165 73.2138Z" fill="#0F0030" />
    <path d="M232.612 73.3432L232.339 73.2642L229.789 82.0477L230.062 82.1268L232.612 73.3432Z" fill="#0F0030" />
    <path
        d="M250.621 146.229C255.934 146.229 260.242 141.924 260.242 136.614C260.242 131.304 255.934 127 250.621 127C245.307 127 241 131.304 241 136.614C241 141.924 245.307 146.229 250.621 146.229Z"
        fill="#FFA26B" />
    <path
        d="M250.571 144.651C255.009 144.651 258.607 141.055 258.607 136.621C258.607 132.186 255.009 128.591 250.571 128.591C246.133 128.591 242.536 132.186 242.536 136.621C242.536 141.055 246.133 144.651 250.571 144.651Z"
        fill="#FFBD97" />
    <path
        d="M252.321 133.427C251.555 132.805 250.558 132.506 249.354 132.784C247.569 133.195 246.647 134.594 246.597 136.156L245.66 136.372L245.925 137.52L246.683 137.346C246.698 137.46 246.721 137.56 246.747 137.671L246.804 137.917L246.056 138.089L246.324 139.249L247.216 139.043C247.956 140.517 249.41 141.321 251.206 140.907C252.443 140.622 253.173 139.913 253.618 138.941L252.002 137.998C251.737 138.529 251.425 138.907 250.856 139.038C250.243 139.179 249.725 138.97 249.383 138.508L251.145 138.102L250.885 136.976L248.889 137.436C248.857 137.349 248.837 137.26 248.816 137.171C248.793 137.071 248.772 136.981 248.76 136.878L250.756 136.418L250.494 135.281L248.743 135.684C248.867 135.151 249.223 134.763 249.781 134.635C250.361 134.501 250.827 134.687 251.234 135.028L252.321 133.427Z"
        fill="#FFA26B" />
    <path
        d="M232.621 156.229C237.934 156.229 242.242 151.924 242.242 146.614C242.242 141.304 237.934 137 232.621 137C227.307 137 223 141.304 223 146.614C223 151.924 227.307 156.229 232.621 156.229Z"
        fill="#FFA26B" />
    <path
        d="M232.571 154.651C237.009 154.651 240.607 151.056 240.607 146.621C240.607 142.186 237.009 138.591 232.571 138.591C228.134 138.591 224.536 142.186 224.536 146.621C224.536 151.056 228.134 154.651 232.571 154.651Z"
        fill="#FFBD97" />
    <path
        d="M234.321 143.427C233.555 142.805 232.558 142.506 231.354 142.784C229.569 143.195 228.647 144.594 228.597 146.156L227.66 146.372L227.925 147.52L228.683 147.346C228.698 147.46 228.721 147.56 228.747 147.671L228.804 147.917L228.056 148.089L228.324 149.249L229.216 149.043C229.956 150.517 231.41 151.321 233.206 150.907C234.443 150.622 235.173 149.913 235.618 148.941L234.002 147.998C233.737 148.529 233.425 148.907 232.856 149.038C232.243 149.179 231.725 148.97 231.383 148.508L233.145 148.102L232.885 146.976L230.889 147.436C230.857 147.349 230.837 147.26 230.816 147.171C230.793 147.071 230.772 146.981 230.76 146.878L232.756 146.418L232.494 145.281L230.743 145.684C230.867 145.151 231.223 144.763 231.781 144.635C232.361 144.501 232.827 144.687 233.234 145.028L234.321 143.427Z"
        fill="#FFA26B" />
    <path
        d="M186.782 160.311C186.782 160.311 188.852 170.478 185.83 171.08C182.809 171.681 178.857 163.953 178.857 163.953L186.782 160.311Z"
        fill="#BF40C6" />
    <path
        d="M96.9707 65.6366C96.9707 65.6366 98.7243 69.6296 93.9239 71.8406C89.1235 74.0517 82.3349 67.2138 82.0509 61.6239C81.7669 56.034 83.4572 59.3404 85.257 61.329C87.0569 63.3175 91.2303 65.1646 91.2303 65.1646L96.9707 65.6366Z"
        fill="#F050F8" />
    <path
        d="M101.258 76.2434C98.4906 75.3954 95.9728 73.8839 93.9238 71.8406C90.6927 68.5221 92.4667 66.0508 93.91 65.8411C95.3534 65.6314 97.1523 66.7738 96.97 65.6365C96.7778 64.9923 96.4448 64.3989 95.9952 63.899C95.5455 63.3991 94.9904 63.0052 94.3698 62.7458C93.7493 62.4863 93.0789 62.3679 92.4069 62.3989C91.735 62.4299 91.0784 62.6096 90.4844 62.9251C86.4958 64.7537 86.1887 69.7825 87.1854 73.0759C88.1821 76.3694 96.1535 80.1749 96.1535 80.1749L101.258 76.2434Z"
        fill="#F484FA" />
    <path
        d="M181.215 80.4458C181.215 80.4458 185.029 74.2189 191.02 75.4218C197.011 76.6248 200.903 82.6689 204.805 84.0639C208.707 85.4588 209.818 87.9878 208.816 90.448C207.814 92.9082 202.69 96.3612 195.205 96.0852C187.72 95.8091 181.215 80.4458 181.215 80.4458Z"
        fill="#F484FA" />
    <path
        d="M204.115 134.991C203.891 139.266 203.012 143.481 201.508 147.49C201.309 148.016 201.085 148.533 200.836 149.04C200.824 149.056 200.814 149.073 200.805 149.09C196.892 157.293 188.407 161.924 180.144 164.857C174.744 166.753 169.154 168.06 163.472 168.753C162.28 168.898 149.289 169.774 147.769 169.442L147.707 169.412L147.608 169.362C147.543 172.12 147.006 176.941 144.235 177.774C143.867 177.883 143.482 177.923 143.099 177.891C139.042 177.602 138.619 171.334 138.629 168.629C127.81 167.282 117.204 164.575 107.064 160.573C106.999 162.952 106.388 166.705 103.309 167.544C102.877 167.67 102.429 167.731 101.979 167.725C96.3676 167.757 96.6021 155.677 96.665 153.793C85.9158 144.365 78.9491 130.065 80.2419 112.537C80.4487 109.708 80.8532 106.896 81.4523 104.123C86.9519 78.3773 116.39 53.205 150.457 63.2637C184.525 73.3339 200.232 92.9594 203.758 123.674C204.213 127.428 204.332 131.215 204.115 134.991Z"
        fill="#F050F8" />
    <path opacity="0.1"
        d="M126.299 107.377C126.299 107.377 126.797 99.4378 132.719 96.0859C138.642 92.734 144.377 92.1193 146.032 92.9317C147.686 93.7442 158.254 105.576 154.873 109.834C151.491 114.092 142.628 112.188 138.155 110.32C133.683 108.451 132.527 108.294 131.128 109.3C129.729 110.306 126.13 111.251 126.299 107.377Z"
        fill="#180048" />
    <path
        d="M126.192 106.206C126.192 106.206 126.689 98.2669 132.611 94.915C138.534 91.5631 144.269 90.9484 145.924 91.7608C147.578 92.5733 158.147 104.405 154.765 108.663C151.384 112.921 142.52 111.018 138.047 109.149C133.575 107.28 132.42 107.123 131.02 108.129C129.621 109.135 126.022 110.08 126.192 106.206Z"
        fill="#F484FA" />
    <path
        d="M192.712 144.054C192.747 143.058 192.563 142.066 192.175 141.148C191.007 138.36 187.396 132.76 177.425 133.784C164.243 135.137 164.514 144.188 165.782 148.785C167.051 153.382 173.045 155.785 181.643 154.361C189.435 153.07 192.537 148.572 192.712 144.054Z"
        fill="#F484FA" />
    <path
        d="M166.289 77.4443L157.411 81.5325C152.107 77.3316 140.027 73.8486 131.529 71.7958C126.223 70.5241 122.315 69.7964 122.315 69.7964L130.819 64.5969L130.841 64.583C152.253 67.8808 164.695 76.3146 166.149 77.3384C166.187 77.3703 166.225 77.3905 166.25 77.4118L166.289 77.4443Z"
        fill="#100030" />
    <path
        d="M166.288 77.4446L157.411 81.5328C152.107 77.3319 140.027 73.8489 131.529 71.7961L130.818 64.5984L130.841 64.5845C152.253 67.8823 164.695 76.3161 166.149 77.3399C166.187 77.3718 166.225 77.392 166.25 77.4133L166.288 77.4446Z"
        fill="#180048" />
    <path
        d="M156.277 143.607C158.918 143.607 161.059 141.467 161.059 138.827C161.059 136.188 158.918 134.048 156.277 134.048C153.635 134.048 151.494 136.188 151.494 138.827C151.494 141.467 153.635 143.607 156.277 143.607Z"
        fill="white" />
    <path
        d="M195.544 136.685C198.186 136.685 200.327 134.545 200.327 131.906C200.327 129.267 198.186 127.127 195.544 127.127C192.903 127.127 190.762 129.267 190.762 131.906C190.762 134.545 192.903 136.685 195.544 136.685Z"
        fill="white" />
    <path
        d="M156.237 134.699C155.369 134.73 154.533 135.03 153.845 135.559C154.178 135.608 154.495 135.732 154.774 135.92C155.052 136.109 155.285 136.358 155.454 136.649C155.622 136.94 155.723 137.265 155.749 137.601C155.774 137.936 155.724 138.273 155.601 138.586C155.478 138.899 155.286 139.181 155.039 139.409C154.792 139.638 154.496 139.808 154.175 139.906C153.853 140.005 153.513 140.03 153.18 139.979C152.848 139.928 152.531 139.802 152.253 139.612C152.391 140.407 152.755 141.145 153.301 141.739C153.848 142.333 154.554 142.757 155.335 142.96C156.116 143.163 156.94 143.137 157.707 142.886C158.473 142.634 159.152 142.166 159.66 141.54C160.168 140.913 160.485 140.153 160.572 139.351C160.66 138.549 160.514 137.739 160.153 137.017C159.792 136.296 159.231 135.693 158.536 135.282C157.842 134.871 157.043 134.668 156.237 134.699ZM155.288 141.94C155.207 141.943 155.126 141.922 155.057 141.879C154.988 141.836 154.933 141.774 154.899 141.7C154.865 141.626 154.853 141.544 154.866 141.463C154.879 141.383 154.916 141.308 154.971 141.248C155.026 141.189 155.098 141.147 155.177 141.128C155.257 141.109 155.34 141.114 155.416 141.142C155.492 141.171 155.559 141.221 155.607 141.287C155.654 141.353 155.682 141.431 155.685 141.513C155.687 141.567 155.678 141.621 155.659 141.671C155.641 141.722 155.612 141.769 155.575 141.808C155.538 141.848 155.494 141.88 155.445 141.902C155.396 141.925 155.342 141.938 155.288 141.94ZM156.144 142.339C156.1 142.341 156.057 142.33 156.02 142.307C155.982 142.284 155.952 142.251 155.934 142.211C155.916 142.171 155.909 142.127 155.916 142.083C155.923 142.04 155.942 142 155.972 141.968C156.002 141.936 156.041 141.913 156.083 141.903C156.126 141.892 156.171 141.895 156.212 141.91C156.253 141.925 156.288 141.953 156.314 141.988C156.34 142.023 156.354 142.066 156.356 142.11C156.358 142.168 156.337 142.225 156.298 142.268C156.258 142.311 156.203 142.336 156.144 142.339ZM157.296 142C157.056 142.009 156.819 141.947 156.614 141.821C156.409 141.695 156.247 141.511 156.146 141.293C156.046 141.075 156.013 140.832 156.051 140.594C156.089 140.357 156.197 140.137 156.36 139.961C156.524 139.785 156.736 139.661 156.969 139.605C157.203 139.55 157.448 139.565 157.674 139.648C157.899 139.732 158.094 139.88 158.235 140.075C158.376 140.27 158.456 140.502 158.465 140.742C158.477 141.063 158.361 141.377 158.141 141.612C157.922 141.848 157.618 141.988 157.296 142Z"
        fill="#180048" />
    <path
        d="M195.444 127.74C194.577 127.771 193.741 128.071 193.052 128.6C193.385 128.649 193.703 128.772 193.982 128.961C194.26 129.15 194.493 129.399 194.662 129.69C194.83 129.981 194.931 130.306 194.957 130.642C194.982 130.977 194.932 131.314 194.809 131.627C194.686 131.94 194.494 132.222 194.247 132.45C194 132.679 193.704 132.849 193.382 132.947C193.061 133.046 192.721 133.071 192.388 133.02C192.055 132.969 191.738 132.843 191.461 132.653C191.599 133.448 191.962 134.186 192.509 134.78C193.056 135.374 193.762 135.798 194.543 136.001C195.324 136.204 196.147 136.178 196.914 135.927C197.681 135.675 198.359 135.207 198.868 134.581C199.376 133.954 199.693 133.194 199.78 132.392C199.868 131.59 199.722 130.78 199.361 130.058C199 129.337 198.439 128.734 197.744 128.323C197.05 127.912 196.251 127.71 195.444 127.74ZM194.371 134.981C194.289 134.984 194.209 134.963 194.139 134.92C194.07 134.877 194.015 134.815 193.981 134.741C193.947 134.667 193.936 134.585 193.949 134.505C193.962 134.424 193.998 134.349 194.053 134.29C194.109 134.23 194.181 134.188 194.26 134.169C194.339 134.15 194.422 134.155 194.499 134.184C194.575 134.212 194.641 134.262 194.689 134.328C194.737 134.394 194.764 134.473 194.767 134.554C194.771 134.663 194.732 134.769 194.657 134.849C194.583 134.929 194.48 134.977 194.371 134.981ZM195.263 135.383C195.22 135.385 195.176 135.373 195.139 135.35C195.102 135.328 195.072 135.294 195.054 135.254C195.036 135.215 195.03 135.17 195.037 135.127C195.043 135.084 195.063 135.044 195.093 135.012C195.123 134.98 195.161 134.957 195.204 134.947C195.246 134.937 195.291 134.939 195.332 134.955C195.373 134.97 195.409 134.997 195.434 135.032C195.46 135.068 195.475 135.11 195.476 135.154C195.477 135.183 195.473 135.212 195.463 135.239C195.453 135.266 195.437 135.291 195.417 135.313C195.398 135.334 195.374 135.351 195.347 135.363C195.321 135.375 195.292 135.382 195.263 135.383ZM196.417 135.047C196.177 135.056 195.939 134.994 195.734 134.868C195.53 134.742 195.367 134.558 195.267 134.34C195.167 134.122 195.134 133.879 195.172 133.642C195.21 133.405 195.317 133.184 195.481 133.008C195.644 132.832 195.856 132.708 196.09 132.653C196.324 132.597 196.569 132.612 196.794 132.696C197.019 132.779 197.215 132.928 197.356 133.122C197.496 133.317 197.576 133.549 197.585 133.789C197.597 134.11 197.481 134.424 197.262 134.66C197.043 134.896 196.739 135.035 196.417 135.047H196.417Z"
        fill="#180048" />
    <path
        d="M159.843 153.225C159.843 153.225 158.798 145.769 151.646 146.274C146.593 146.631 144.171 151.159 144.622 155.835C144.68 157.029 145.087 158.181 145.793 159.147C146.5 160.113 147.474 160.85 148.595 161.269C149.778 161.723 151.042 161.931 152.308 161.881C153.575 161.832 154.818 161.525 155.962 160.98C160.512 158.827 159.843 153.225 159.843 153.225Z"
        fill="#5840FF" />
    <path
        d="M176.628 146.697C176.851 151.683 172.867 150.905 172.117 148.541C171.584 146.854 170.848 144.004 171.567 142.308C171.698 141.963 171.917 141.657 172.202 141.422C172.487 141.187 172.828 141.03 173.192 140.966C176.137 140.352 176.628 146.697 176.628 146.697Z"
        fill="#F050F8" />
    <path
        d="M184.627 147.059C183.682 145.398 183.365 143.453 183.732 141.578C183.819 141.291 183.987 141.035 184.217 140.841C184.447 140.648 184.729 140.526 185.027 140.491C187.374 140.18 188.076 144.592 188.076 144.592C188.782 148.673 185.707 148.908 184.627 147.059Z"
        fill="#F050F8" />
    <path
        d="M204.115 134.991C203.891 139.266 203.012 143.481 201.509 147.49C201.309 148.016 201.085 148.533 200.836 149.04C200.091 148.503 199.476 147.806 199.036 147C198.596 146.195 198.341 145.301 198.291 144.385C197.884 140.088 199.888 135.935 204.115 134.991Z"
        fill="#5840FF" />
    <path opacity="0.1"
        d="M200.805 149.09C196.893 157.293 188.408 161.924 180.145 164.857C174.744 166.753 169.155 168.06 163.473 168.753C162.28 168.898 149.29 169.774 147.77 169.442L147.708 169.412L147.609 169.362L147.681 167.962L163.676 167.234C170.764 166.843 177.701 165.035 184.079 161.919C190.456 158.803 196.144 154.44 200.805 149.09Z"
        fill="#180048" />
    <path opacity="0.1"
        d="M144.235 177.774C143.867 177.883 143.482 177.923 143.099 177.891C139.042 177.603 138.619 171.335 138.629 168.629C127.81 167.282 117.204 164.575 107.064 160.573L106.907 158.875C111.08 160.674 115.374 162.181 119.756 163.385C125.794 164.909 140.002 167.487 140.002 167.487L140.304 172.313C140.279 173.527 140.648 174.715 141.357 175.7C142.066 176.685 143.076 177.413 144.235 177.774Z"
        fill="#180048" />
    <path opacity="0.1"
        d="M103.309 167.544C102.877 167.669 102.429 167.731 101.979 167.725C96.3675 167.757 96.6019 155.677 96.6649 153.793C85.9157 144.365 78.949 130.065 80.2417 112.537C80.8411 120.492 82.6252 128.314 85.5351 135.743C88.3598 142.579 92.8561 148.598 98.612 153.248C98.612 153.248 98.6844 157.752 99.1277 162.566C99.5064 166.677 102.459 167.421 103.309 167.544Z"
        fill="#180048" />
    <path
        d="M176.627 146.697C176.851 151.683 172.867 150.905 172.117 148.541C172.959 149.597 175.014 151.121 175.564 148.495C175.864 146.102 175.239 143.684 173.818 141.735C173.189 141.06 171.994 141.95 171.566 142.308C171.698 141.963 171.917 141.657 172.202 141.422C172.487 141.187 172.828 141.03 173.192 140.966C176.137 140.352 176.627 146.697 176.627 146.697Z"
        fill="#BF40C6" />
    <path
        d="M184.627 147.059C184.933 147.334 185.316 147.509 185.725 147.558C186.134 147.607 186.548 147.528 186.91 147.333C187.688 146.801 187.067 144.035 186.339 142.035C185.716 140.274 184.121 141.306 183.732 141.578C183.819 141.291 183.987 141.035 184.217 140.841C184.447 140.648 184.729 140.526 185.027 140.491C187.374 140.18 188.076 144.592 188.076 144.592C188.782 148.673 185.707 148.908 184.627 147.059Z"
        fill="#BF40C6" />
    <path
        d="M71.4213 168.836C78.2655 168.836 83.8138 163.292 83.8138 156.452C83.8138 149.613 78.2655 144.068 71.4213 144.068C64.5771 144.068 59.0288 149.613 59.0288 156.452C59.0288 163.292 64.5771 168.836 71.4213 168.836Z"
        fill="#FFA26B" />
    <path
        d="M71.3574 166.804C77.0736 166.804 81.7075 162.173 81.7075 156.461C81.7075 150.749 77.0736 146.118 71.3574 146.118C65.6412 146.118 61.0073 150.749 61.0073 156.461C61.0073 162.173 65.6412 166.804 71.3574 166.804Z"
        fill="#FFBD97" />
    <path
        d="M74.6801 151.721C73.6933 150.92 72.4093 150.535 70.8579 150.893C68.5595 151.423 67.3718 153.224 67.3067 155.236L66.1001 155.514L66.4416 156.994L67.4184 156.769C67.4372 156.916 67.4671 157.045 67.5002 157.189L67.5732 157.505L66.6108 157.727L66.9556 159.22L68.1048 158.955C69.0575 160.854 70.9305 161.889 73.2433 161.356C74.8378 160.989 75.7769 160.076 76.3503 158.824L74.2695 157.61C73.9281 158.294 73.526 158.78 72.7933 158.949C72.0033 159.131 71.3358 158.861 70.896 158.267L73.1656 157.743L72.8307 156.293L70.2594 156.885C70.2185 156.774 70.192 156.659 70.1655 156.544C70.1356 156.415 70.1091 156.3 70.0936 156.167L72.6649 155.574L72.3267 154.109L70.0714 154.629C70.2305 153.942 70.6901 153.443 71.4083 153.277C72.1553 153.105 72.7554 153.345 73.2803 153.783L74.6801 151.721Z"
        fill="#FFA26B" />
    <path
        d="M154.314 71.1027C153.994 72.7556 153.337 74.325 152.384 75.713C151.875 76.4637 151.283 77.1542 150.618 77.7712C149.936 77.4771 149.241 77.1949 148.512 76.9126C147.135 76.3716 145.699 75.8659 144.228 75.3837C144.075 75.3366 143.933 75.2778 143.78 75.2308C143.216 75.0426 142.639 74.8544 142.074 74.6898C140.473 74.1841 138.849 73.7136 137.272 73.2785C135.53 72.7963 133.847 72.3611 132.259 71.973C132.011 71.9142 131.764 71.8554 131.529 71.7966C131.023 71.679 130.528 71.5614 130.046 71.4437C129.646 69.6472 129.651 67.784 130.061 65.9897C130.472 64.1954 131.278 62.5151 132.42 61.071C133.562 59.6269 135.012 58.4554 136.664 57.6415C138.316 56.8276 140.128 56.3919 141.97 56.366C143.812 56.3401 145.636 56.7247 147.31 57.4918C148.985 58.259 150.467 59.3893 151.649 60.8008C152.831 62.2122 153.684 63.8692 154.145 65.6512C154.606 67.4332 154.663 69.2955 154.314 71.1027Z"
        fill="#FFA26B" />
    <path
        d="M152.348 70.303C152.114 71.8506 151.535 73.3257 150.654 74.6193C150.062 75.4894 149.339 76.2629 148.512 76.9127C147.135 76.3717 145.699 75.866 144.228 75.3838C144.075 75.3367 143.933 75.278 143.78 75.2309C143.216 75.0427 142.639 74.8545 142.074 74.6899C140.473 74.1842 138.849 73.7137 137.272 73.2786C135.53 72.7964 133.847 72.3612 132.259 71.9731C131.5 69.6445 131.596 67.122 132.529 64.8577C132.799 64.1926 133.138 63.5578 133.541 62.9641C134.863 61.0323 136.801 59.6049 139.039 58.9147C141.277 58.2245 143.682 58.3121 145.864 59.1634C148.045 60.0147 149.874 61.5793 151.052 63.6023C152.229 65.6252 152.686 67.9872 152.348 70.303Z"
        fill="#FFBD97" />
    <path
        d="M130.584 53.7983C137.428 53.7983 142.976 48.2538 142.976 41.4143C142.976 34.5748 137.428 29.0303 130.584 29.0303C123.739 29.0303 118.191 34.5748 118.191 41.4143C118.191 48.2538 123.739 53.7983 130.584 53.7983Z"
        fill="#FFA26B" />
    <path
        d="M130.52 51.7661C136.236 51.7661 140.87 47.1354 140.87 41.4231C140.87 35.7108 136.236 31.0801 130.52 31.0801C124.804 31.0801 120.17 35.7108 120.17 41.4231C120.17 47.1354 124.804 51.7661 130.52 51.7661Z"
        fill="#FFBD97" />
    <path
        d="M133.68 36.721C132.693 35.9198 131.409 35.535 129.858 35.8927C127.56 36.4226 126.372 38.2244 126.307 40.2363L125.1 40.5145L125.442 41.994L126.418 41.7688C126.437 41.9157 126.467 42.045 126.5 42.1886L126.573 42.5046L125.611 42.7265L125.956 44.2204L127.105 43.9554C128.057 45.8537 129.931 46.8894 132.243 46.3562C133.838 45.9886 134.777 45.0761 135.35 43.8244L133.27 42.6098C132.928 43.2936 132.526 43.7797 131.793 43.9486C131.003 44.1307 130.336 43.861 129.896 43.2665L132.166 42.7433L131.831 41.2925L129.259 41.8853C129.219 41.7737 129.192 41.6588 129.165 41.5439C129.136 41.4146 129.109 41.2997 129.094 41.1671L131.665 40.5743L131.327 39.1092L129.071 39.6292C129.23 38.942 129.69 38.4427 130.408 38.2771C131.155 38.1049 131.755 38.3447 132.28 38.7835L133.68 36.721Z"
        fill="#FFA26B" />
    <path
        d="M144.467 24.9751C151.311 24.9751 156.859 19.4305 156.859 12.591C156.859 5.75154 151.311 0.207031 144.467 0.207031C137.622 0.207031 132.074 5.75154 132.074 12.591C132.074 19.4305 137.622 24.9751 144.467 24.9751Z"
        fill="#FFA26B" />
    <path
        d="M144.498 22.9902C150.214 22.9902 154.848 18.3595 154.848 12.6472C154.848 6.93492 150.214 2.3042 144.498 2.3042C138.781 2.3042 134.148 6.93492 134.148 12.6472C134.148 18.3595 138.781 22.9902 144.498 22.9902Z"
        fill="#FFBD97" />
    <path
        d="M139.033 11.62C138.642 12.8289 138.747 14.1647 139.641 15.482C140.966 17.4335 143.076 17.8909 144.977 17.2259L145.672 18.2504L146.929 17.3984L146.366 16.569C146.496 16.4985 146.606 16.424 146.728 16.3413L146.997 16.1593L147.551 16.9765L148.82 16.1162L148.158 15.1405C149.585 13.5677 149.874 11.4481 148.541 9.48441C147.622 8.13056 146.431 7.58411 145.057 7.50101L144.675 9.87889C145.437 9.95051 146.035 10.1501 146.458 10.7722C146.913 11.443 146.903 12.1625 146.507 12.7869L145.199 10.8598L143.966 11.6953L145.448 13.8785C145.359 13.9569 145.261 14.0231 145.164 14.0893C145.054 14.1637 144.956 14.2299 144.838 14.2921L143.356 12.1089L142.111 12.9526L143.411 14.8675C142.713 14.9671 142.081 14.7187 141.667 14.1088C141.236 13.4746 141.243 12.8287 141.463 12.1811L139.033 11.62Z"
        fill="#FFA26B" />
    <path
        d="M147.182 67.4098L144.569 68.5153C144.788 68.8582 144.922 69.248 144.961 69.6528C145 70.0576 144.942 70.4658 144.793 70.844C144.636 71.241 144.362 71.5803 144.006 71.8159C143.65 72.0516 143.23 72.1721 142.804 72.1612L143.91 69.6444L142.309 68.9387L141.062 71.7849C140.932 71.7378 140.803 71.6908 140.673 71.632C140.532 71.5749 140.394 71.5081 140.261 71.432L141.521 68.5976L139.897 67.8802L138.802 70.3736C138.534 70.0792 138.359 69.7118 138.301 69.3181C138.242 68.9244 138.302 68.5221 138.473 68.1625C138.63 67.7973 138.876 67.4771 139.188 67.2307C139.501 66.9843 139.869 66.8195 140.261 66.7512L139.308 63.9873C138.531 64.1756 137.81 64.5473 137.206 65.0711C136.602 65.5949 136.132 66.2557 135.836 66.9981C135.336 68.0543 135.206 69.2477 135.467 70.3866C135.727 71.5256 136.363 72.5441 137.272 73.2785C138.849 73.7137 140.473 74.1841 142.074 74.6898C142.639 74.8545 143.215 75.0427 143.78 75.2309C144.587 75.0407 145.334 74.6576 145.96 74.1147C146.585 73.5718 147.069 72.8853 147.37 72.1142C147.724 71.3739 147.892 70.5585 147.859 69.7387C147.826 68.9189 147.594 68.1194 147.182 67.4098Z"
        fill="#FFA26B" />
</svg>