<svg width="203" height="178" viewBox="0 0 203 178" fill="none" xmlns="http://www.w3.org/2000/svg">
    <path d="M21 95C21 95 -0.309723 88.1512 2.2065 67" stroke="#60F0F8" stroke-width="2" stroke-linecap="round"
        stroke-linejoin="round" />
    <path
        d="M3.49998 67C5.433 67 7 65.4332 7 63.5002C7 61.5668 5.433 60 3.49998 60C1.567 60 0 61.5668 0 63.5002C0 65.4332 1.567 67 3.49998 67Z"
        fill="#60F0F8" />
    <path
        d="M4 60.4775C4.20543 58.8325 4.29377 57.1736 4.26424 55.5152C4.14493 53.6612 6.30996 53.473 6.42075 55.1478C6.414 56.6309 6.25391 58.1084 5.94342 59.5548C6.36153 59.3735 6.73347 59.0922 7.02946 58.7329C7.3255 58.3737 7.53739 57.9466 7.64822 57.4857C8.15961 55.784 10.2906 55.9004 9.96667 57.9245C9.64275 59.9491 5.81558 62 5.81558 62L4 60.4775Z"
        fill="#60F0F8" />
    <path
        d="M19.4457 79.7419C14.4894 128.605 51.4407 172.374 102.007 177.494C122.592 179.641 143.31 174.915 160.916 164.056C183.155 150.28 199.008 127.352 202.354 100.08C202.428 99.4784 202.494 98.8769 202.552 98.2666C203.029 93.6105 203.125 88.9232 202.841 84.2515C201.613 64.8571 193.975 46.4168 181.123 31.8181C165.482 13.9937 143.62 2.79029 119.991 0.48992C110.334 -0.494217 100.583 0.0062571 91.0772 1.97389C58.9999 8.65994 32.6551 31.7193 22.9817 62.5444C21.2199 68.1418 20.0352 73.9042 19.4457 79.7419Z"
        fill="#60F0F8" />
    <path
        d="M23 62.4661C28.3116 56.2524 34.3017 55.8082 39.4482 59.4952C44.5944 63.1823 38.3393 70.3834 42.7575 73.3626C47.1756 76.3422 53.8277 71.0912 56.3926 75.1652C58.9574 79.2391 56.0616 84.646 50.7415 84.745C45.4219 84.8437 39.2743 82.5309 37.4294 88.0368C35.5841 93.5427 40.863 100.234 46.5304 104.826C52.1978 109.419 51.2132 115.245 50.8822 122.612C50.5512 129.977 54.4069 146.479 64.9475 149.417C75.4884 152.355 78.3015 143.573 79.6168 136.932C80.9324 130.29 85.5492 126.743 92.954 127.056C100.359 127.368 106.258 127.969 106.937 123.385C107.615 118.801 104.082 118.019 100.533 113.221C96.9832 108.423 102.436 104.95 97.4138 100.003C92.3916 95.0574 84.2584 97.6167 77.2754 90.9504C70.2923 84.2842 71.6411 71.1326 77.3501 69.3793C83.0587 67.6265 83.6627 72.1283 85.4913 75.0666C87.3198 78.0044 92.8961 77.5356 95.6844 73.1324C98.4728 68.7292 98.1002 57.841 104.835 60.5896C111.57 63.3386 121.78 63.3632 122.905 54.3763C124.03 45.3889 114.879 43.4137 110.337 44.2285C105.795 45.0433 102.527 41.5289 99.9619 37.4633C97.397 33.3976 90.0334 32.8628 87.4521 26.6821C84.8708 20.5013 92.4164 15.7607 94.4847 9.83501C95.734 6.29609 93.3346 3.60489 91.1751 2C59.0734 8.67457 32.6886 31.6941 23 62.4661Z"
        fill="#18F0B8" />
    <path
        d="M171.698 52.9718C175.771 60.1178 178.924 62.3254 177.311 67.8359C175.698 73.3468 177.385 77.5082 183.015 79.5522C187.862 81.3101 199.008 80.46 203 84C201.789 64.766 194.256 46.4785 181.581 32C177.947 35.9493 168.349 47.1587 171.698 52.9718Z"
        fill="#18F0B8" />
    <path
        d="M155 136.041C155.074 145.74 165.534 152.94 161.071 164C183.037 150.219 198.695 127.282 202 100C198.654 100.618 192.273 102.713 189.295 109.897C185.142 119.86 181.609 125.856 174.347 125.113C167.085 124.371 154.927 126.293 155 136.041Z"
        fill="#18F0B8" />
    <path
        d="M32.7592 109.002C33.3643 109.051 33.9617 109.162 34.5406 109.331C35.3334 109.49 36.1042 109.73 36.8389 110.046C39.0085 111.011 40.8553 112.499 42.1835 114.352C46.1831 119.76 42.7981 123.286 39.5112 122.982C37.5249 122.793 35.8679 120.336 34.8793 118.979C33.3738 116.917 31.5567 114.311 31.0669 111.821C30.952 111.236 30.9855 110.634 31.1646 110.062C31.2769 109.707 31.5235 109.401 31.8597 109.199C32.1325 109.055 32.445 108.987 32.7592 109.002Z"
        fill="#18F0B8" />
    <path
        d="M134.393 25.5585C134.064 26.8067 133.94 28.1016 134.027 29.3908C134.1 31.6286 134.515 34.346 136.468 35.7992C139.958 38.4089 141.235 40.102 141.992 43.1083C142.749 46.1142 145.922 51.92 154.359 49.3683C162.797 46.8161 160.527 36.7158 155.612 33.9657C150.698 31.216 151.544 22.6021 143.326 22.0487C141.073 21.9002 138.445 22.0487 136.419 23.0977C135.933 23.3447 135.502 23.6911 135.154 24.1144C134.805 24.5378 134.546 25.0294 134.393 25.5585Z"
        fill="#18F0B8" />
    <path
        d="M102.329 26.1277C102.329 26.1277 104.425 20.7935 111.976 24.0574C119.526 27.3209 119.681 31.2801 118.379 33.9513C117.077 36.6222 110.141 36.7883 106.35 33.8169C102.558 30.8455 101.338 28.0085 102.329 26.1277Z"
        fill="#18F0B8" />
    <path d="M114 97.5591C114 97.5591 112.483 103.961 108.39 102.876C104.297 101.791 105.055 96 105.055 96"
        stroke="#180048" stroke-width="2" stroke-linecap="round" stroke-linejoin="round" />
    <path d="M86 90.5448C86 90.5448 87.4974 85.3519 90.531 86.0677C93.5647 86.7839 92.9486 92 92.9486 92"
        stroke="#180048" stroke-width="2" stroke-linecap="round" stroke-linejoin="round" />
    <path d="M129 96.4109C129 96.4109 130.504 91.538 133.579 92.0357C136.654 92.5333 135.924 98 135.924 98"
        stroke="#180048" stroke-width="2" stroke-linecap="round" stroke-linejoin="round" />
    <path
        d="M136.982 106.113C137.249 103.651 134.564 101.381 130.984 101.043C127.405 100.704 124.286 102.425 124.018 104.887C123.751 107.349 126.436 109.619 130.016 109.957C133.595 110.296 136.714 108.575 136.982 106.113Z"
        fill="#FF48D8" />
    <path
        d="M93.9831 98.6812C94.2299 95.9461 91.7513 93.4237 88.4471 93.0473C85.1425 92.6709 82.2638 94.5832 82.017 97.3183C81.7698 100.054 84.2483 102.576 87.553 102.953C90.8572 103.329 93.7358 101.417 93.9831 98.6812Z"
        fill="#FF48D8" />
    <path d="M198 77C199.217 83.2965 199.324 89.6831 198.317 96" stroke="white" stroke-width="2.06965"
        stroke-linecap="round" stroke-linejoin="round" />
    <path d="M195 65C195.854 67.6008 196.523 70.2758 197 73" stroke="white" stroke-width="2.06965"
        stroke-linecap="round" stroke-linejoin="round" />
    <path
        d="M157.5 162C157.776 162 158 161.552 158 161C158 160.448 157.776 160 157.5 160C157.224 160 157 160.448 157 161C157 161.552 157.224 162 157.5 162Z"
        fill="white" />
    <path
        d="M152 165C152.552 165 153 164.552 153 164C153 163.448 152.552 163 152 163C151.448 163 151 163.448 151 164C151 164.552 151.448 165 152 165Z"
        fill="white" />
    <path
        d="M38 130C39.1048 130 40 129.328 40 128.5C40 127.671 39.1048 127 38 127C36.8958 127 36 127.671 36 128.5C36 129.328 36.8958 130 38 130Z"
        fill="white" />
    <path
        d="M45.5 129C46.3286 129 47 128.328 47 127.5C47 126.672 46.3286 126 45.5 126C44.6718 126 44 126.672 44 127.5C44 128.328 44.6718 129 45.5 129Z"
        fill="white" />
    <path
        d="M42.0003 137C43.1043 137 44 136.329 44 135.5C44 134.672 43.1043 134 42.0003 134C40.8957 134 40 134.672 40 135.5C40 136.329 40.8957 137 42.0003 137Z"
        fill="white" />
</svg>